<svg xmlns="http://www.w3.org/2000/svg" viewBox="0 0 415.63 291.3"><defs><style>.cls-1{fill:#d92395;}.cls-2{fill:#02a453;}.cls-3{fill:#fefefe;}</style></defs><title>Asset 1</title><g id="Layer_2" data-name="Layer 2"><g id="Layer_1-2" data-name="Layer 1"><g id="Layer_3" data-name="Layer 3"><g id="lpug6k.tif"><path class="cls-1" d="M215.3,156.8c9.7-15.7,21.2-30.1,30.9-45.7,6.4-10.3,12.7-20.6,18.5-31.2a16.57,16.57,0,0,0,1.6-12.3,38.67,38.67,0,0,1-1.2-8.3,18,18,0,0,1,2-8.5c8.9-16.9,18.6-33.3,30.3-48.5A15.84,15.84,0,0,1,299.6,0h.4c.2.9-.4,1.6-.8,2.3-6,12.2-13,24-18.4,36.5-1,2.3-1.1,2.6-.9,4.5a8.57,8.57,0,0,0,3.6-3.7c7.1-11,14.1-22,21.2-33,.6-.9,1-2,2.3-2.5.1,1.6-.7,2.7-1.3,3.9-5.6,11-11.3,22-16.9,33a16,16,0,0,0-1.9,6.3,4.76,4.76,0,0,0,3.3-2.5c7.5-10.2,13.6-21.4,20.2-32.1a26.75,26.75,0,0,1,3.5-4.8,16.28,16.28,0,0,1-2.1,6.2c-5.3,10.5-10.6,21-15.8,31.5a13,13,0,0,0-1.6,5.6c1.4,0,1.8-1.1,2.5-1.9,6.2-8,11-16.9,16.3-25.4,2.1-3.4,4.3-6.9,6.4-10.3a3.12,3.12,0,0,1,1.5-1.5,3.16,3.16,0,0,1-.5,2.2,329,329,0,0,1-19.7,42.6c-1.3,2.5-2.6,4.9-4,7.4-3.1,5.6-7.6,9.8-13.7,11.7s-9.6,5.7-12.5,11.2c-12.3,22.8-22.5,46.5-32.6,70.4-3.6,8.5-7.8,16.8-13.7,24-.4.5-.6,1.3-1.5,1.3,1.2-3.2.6-6.3-.3-9.4A73,73,0,0,0,215.3,156.8Z"/><path class="cls-1" d="M0,197.6c9.1-.5,18.2-.3,27.3-.4a2.48,2.48,0,0,1,2.6,1.9c1.8,4.4,3.6,8.7,5.6,13.4,2.1-3.6,3.2-7.3,4.7-10.8,1.7-4,1.7-4,6-4.1,7.2,0,14.4,0,21.6-.2,2.1,0,3.1.4,2.9,2.7-.1,1.5.1,3.1.1,4.6,0,1.9.6,4.2-2.5,4.3-.8,0-1.2.8-1.2,1.7,0,6.4.1,12.7,0,19.1,0,1.6.9,1.4,1.8,1.2,1.6-.4,2.1.3,2.1,1.9-.1,2.9,0,5.7.1,8.6,0,1.1-.3,1.5-1.4,1.5-7.5,0-15-.1-22.5,0-1.2,0-1.4-.5-1.4-1.5,0-2.7.1-5.5,0-8.2-.1-1.6.3-2.4,2.1-2.1.9.1,1.6,0,1.6-1.2,0-6.8,0-13.6-.4-20.4-.4,1.7-.5,3.5-1.3,5-4.4,8.3-7,17.3-10.6,26-.7,1.7-1.6,2.6-3.5,2.5-6.2-.2-4.4,1.2-6.8-4.8-3.1-7.9-6.2-15.9-9.3-23.8a3.78,3.78,0,0,0-.7-1.1c-.7,1.8-1.4,3.2-1.4,4.9.1,3.7.1,7.4.1,11.1,0,1.3.3,1.9,1.6,1.7,1.6-.2,2.1.6,2,2.1,0,2.7-.1,5.5-.1,8.2,0,.8-.3,1.5-1.3,1.5-5.9,0-11.9.5-17.8-.3V231.3a4.53,4.53,0,0,1,1.6-.3c2,.3,2.2-.7,2.2-2.4-.2-5.9-.3-11.7-.3-17.6,0-1.6-.5-2.3-2.1-2.1A7.08,7.08,0,0,1,0,209Q0,203.3,0,197.6ZM3.6,234c-.1.1-.1.3-.2.4a.52.52,0,0,1,.4-.2c.1-.1.3-.3.3-.4C3.8,233.5,3.8,233.9,3.6,234Zm2.7-19.6c0,.1,0,.1.1.2h.1c-.1-.1-.2-.1-.2-.2s-.1-.4-.2-.6c-.4-1-.9-1.9-1.4-3.1-.5,1.6-.4,2.7,1.1,3.3A1.76,1.76,0,0,0,6.3,214.4Zm52.5-2.5c.4,0,.5-.3.7-.5,1.6-1.3,2.8-3.1,4.8-4a9.89,9.89,0,0,1-2.5,2.9c-2.9,2.9-5.5,6.1-5.6,10.5-.1.1-.1.2-.2.2l.2-.2a36.8,36.8,0,0,0,3-3.9c1.5-2.5,4.4-4,4.7-7.2,0-.2.3-.6.6-.4,2.2,1.3,2.8-1.2,4.3-1.4-1.4-1.6-2.9-.7-4.3-.8.3-1.1,1.2-1.5,1.8-2.2a8.8,8.8,0,0,0,2.4-4.8c.1-.5.3-1.1-.6-1.2a5.84,5.84,0,0,0-6.4,4.4,23.39,23.39,0,0,1-2.6,7.7.66.66,0,0,0-.3.9h-.3a.35.35,0,0,0,.1.2A.22.22,0,0,0,58.8,211.9ZM9.4,236.5c2.1-.4,3.8-2.2,6.1-1.9-2.7,1.9-5.9,2.7-8.9,3.7a4,4,0,0,0-2.4,1.4c2.4-.4,4.6-.7,6.7-1a14.66,14.66,0,0,0,5.4-1.6,2.78,2.78,0,0,0,1.4-3.3c-.9.1-1.3,1-2.2.8-.7-.8.7-1.3.1-2.2-1.1.2-2.4-.5-3.5.6s-2,2.1-3,3.1c-.1.1-.1.3-.2.4Zm14.5-21.7.1.1-.1-.1c-.5-3.2-2.5-5.3-5.1-7.2C18.4,211.8,19.8,213.8,23.9,214.8Zm14.3,6.3a9,9,0,0,0,6.7-8.1,49.24,49.24,0,0,0-3.9,3.3,11.09,11.09,0,0,0-2.8,4.8,1.38,1.38,0,0,0-.3.4l.2.2A1.27,1.27,0,0,0,38.2,221.1Zm19.2-9.3a17.09,17.09,0,0,0,3.5-11.7c0-.5.3-1.2-.7-1.1-1.2.2-2.8,2.2-2.6,3.4a16.18,16.18,0,0,1-.6,9c-.2.2-.5.6-.2.8S57.2,212,57.4,211.8ZM2.5,199.7c0-.1,0-.1-.1-.2H2.3c.1.1.2.1.2.2a70.7,70.7,0,0,0,3.1,10.6C8.5,203.2,8,202.3,2.5,199.7ZM34,232.5a43.72,43.72,0,0,0,5.9-4.5,7.84,7.84,0,0,0,2.3-4.4c.4-1.5,0-1.9-1.5-1.4-3.9,1.3-6.8,5.7-6.7,10.3,0,.1-.1.1-.2.2h.1A.31.31,0,0,0,34,232.5Zm28.2-10.1c.2.6-.3.9-.6,1.2a12.5,12.5,0,0,0-2.7,6.1c3.3-2.4,4.8-5.9,6.7-9.2.1-.2.2-.6,0-.8-.4-.4-.7-.1-1.1.2-.9.7-1.1,2.1-2.3,2.5-.5-.9.3-1.3.7-1.8,2-2.7,3.6-5.5,1.9-9.3a23.35,23.35,0,0,1-3.2,5.4c-1.4,1.6-2.7,3.2-4.1,4.8a11.2,11.2,0,0,0-2.3,5.5c-.6,3.3,1.6,8.5,4.3,10.1.3-.8-.2-1.4-.4-2-2.3-5-.6-9.1,2.3-12.6C61.6,222.2,61.9,221.9,62.2,222.4ZM32.6,211.6c-3.3,4-4.9,8.2-2.8,13.3.7,1.7,1.1,3.6,1.8,5.3.3.7.1,1.6.6,2C35.7,225.4,35.3,218.5,32.6,211.6Zm20.6,8.6c.4-3.8,1.9-6.6,3.1-9.6a12.8,12.8,0,0,0-1-11.1,11.18,11.18,0,0,1-2.2,5.8,9,9,0,0,0-1.5,6.2A86,86,0,0,0,53.2,220.2ZM2,239.7c3.4-2.4,7.1-4,9.5-7.3s3.6-7.5,1.4-11.2a17.45,17.45,0,0,1-3.7,8.3c-1.5,1.9-3.2,3.7-4.8,5.5C3.3,236.2,2.1,237.5,2,239.7Zm7.7-35.5a8.88,8.88,0,0,0-2.6,7.7,14.25,14.25,0,0,0,3.7,7.2c-1.3-5.9-1-11.6,1.9-17-.9-.1-1.2.5-1.7.8s-.7.9-1.3.7c.5-2.3.1-3.8-1.2-4.7-.4-.3-.9-.8-1.4,0C6.3,200.3,7.8,203.8,9.7,204.2ZM24,223.3c.7,5.8,3.8,10.3,7.8,14.6C32,231.6,28.5,223.9,24,223.3Zm5.9-20.2c-3.2,3.5-4.3,10.4-2,13.9C28.9,212.4,32.8,208.3,29.9,203.1Zm35,22.3c-.4,3.3-2.5,5.8-2.9,8.9-.4,2.6.1,5.3,3,6C63.3,235.4,67.2,230.6,64.9,225.4Zm-6.1,12.5c-3.7-2.8-7-5.3-11.5-4.9a3.61,3.61,0,0,0,2.7,3.8A24.74,24.74,0,0,0,58.8,237.9ZM41.3,203.1c-.5,3.7-4.1,7.1-.8,10.9C42.7,210.6,45,207.1,41.3,203.1Zm-22.2-.4c-5.7,3.5-7.5,5.9-7.8,10.9a10,10,0,0,1,3.8-4.1c1.1-.8,3.1-1.1,2.2-3.3,0-.1.2-.5.3-.5C19.8,205.5,18.6,203.9,19.1,202.7Zm31.6,6.8a10.52,10.52,0,0,1,1.8-4.7c1.3-1.9.6-3.4-.6-4.9-.8-1-1.3-.7-1.8.3C48.4,203.2,49.1,206.1,50.7,209.5Zm-30.2,6.2c1.5,4,3.9,7.3,8.2,9C27.1,220.6,25.5,216.7,20.5,215.7Zm28.1-8c-1.2-2.9-1.5-5.9-3.9-7.8-.9-.7-1.2-.7-1.4.5C42.5,204.6,43.7,206.5,48.6,207.7ZM35.9,222.9c2-3.6,4.2-7.1,1.6-11.3C33.8,214.9,35.8,219,35.9,222.9Zm-10.4-9.7c-.4-4.9,2.4-9.4,1.7-14.5A14.12,14.12,0,0,0,25.5,213.2Zm-19,2.9c-.5,4.1,2.2,7.2,2.9,10.8C11.8,223.6,10.4,218.5,6.5,216.1Zm53.3,23.2c-3.7-1.1-7.6-.7-11.3-1.8a1.14,1.14,0,0,0-1.3.5c-.2.6.4,1,.9,1.2a12.2,12.2,0,0,0,1.7.7C53.2,241,56.5,240.1,59.8,239.3Zm-5.4-8.6c-.5-2.7-.9-4.8-1.3-6.9-.1-.6-.1-1.3-.6-1.7s-1.2-1.3-1.9-1.1-.6,1.1-.6,1.9C49.9,226,51.9,228.1,54.4,230.7Zm-15.8,0c-3.4,2.2-5.2,4.9-5.1,8.8A10.38,10.38,0,0,0,38.6,230.7ZM20.4,198.5c-3.7.3-7.8,4.4-7.8,7.5,1.2-1.4,2.9-2.1,4.1-3.3A55.06,55.06,0,0,0,20.4,198.5Zm-8.6,22.6c.9-3.2,3-5.3,3.9-7.9.2-.6.6-1.3,0-1.7a1.72,1.72,0,0,0-1.8.2,2.41,2.41,0,0,0-1.2,1.6C12.2,215.7,11.5,218.1,11.8,221.1Zm11.6-10.9c-.4-3.4,1.2-7-1-10.3C20.6,202.2,20.9,205.7,23.4,210.2ZM7.8,240.1c2.8-.1,5.3,1.1,7.8,1.6.6.1,1.7.6,1.9-.5a1.87,1.87,0,0,0-1.3-2,3.17,3.17,0,0,0-1.6-.4C12.3,239.2,10.1,239.7,7.8,240.1Zm60.8,1.2a9.05,9.05,0,0,1,.6-2.6c.8-1.4.5-2.8.5-4.3,0-.4-.1-.9-.6-1s-.6.3-.8.6C66.4,236.1,66.5,239,68.6,241.3ZM4.3,233.4c1.2-1.4,3.3-2.1,3-4.4a3.58,3.58,0,0,0-2.4-3.2C5,228.5,5.5,231,4.3,233.4Zm3.9-7.1c-.6-2.1-1.1-4.2-3-5.7C4.5,223.7,6.6,224.9,8.2,226.3Zm42.2,3.1c.4,2.6,2.5,3.1,4.3,4.3C54.4,231,52.5,230.3,50.4,229.4Zm-2.3-26.9a7.51,7.51,0,0,1,.7-1.8c.2-.5.5-1-.1-1.5-.3-.3-.5,0-.7.2-.5.4-1.4.6-1.1,1.5A2,2,0,0,0,48.1,202.5Zm-35.6-3.9c-.6.5-1.9.4-1.9,1.7,0,.3.1,1.2.7,1,.9-.4,1.9-.9,2-2.1C13.4,198.7,13.2,198.4,12.5,198.6ZM3.4,207c-.3-.8-.1-2.1-1.5-2.5-.5-.1-.6.5-.5.9a3,3,0,0,0,1.5,2.5C3.6,208.2,3.6,207.6,3.4,207Zm-2,28.6c.9-1.2,1.1-2.1,0-3Zm12-34c0-.2,0-.3-.1-.4a2.51,2.51,0,0,0-.7.4c-.1,0,.1.3.1.5A5,5,0,0,1,13.4,201.6Zm43.2,11.2c-.1,0-.2-.1-.3-.1s-.2.1-.3.2c.2.1.3.2.5.2C56.5,213,56.6,212.9,56.6,212.8Z"/><path class="cls-2" d="M179.8,291.3c-1-.9-2.4-.7-3.6-1.2-.9-.3-1.4-.7-.7-1.6.1-.1.1-.3.2-.4,1.5-3.4,1.5-3.4,4.2-1.1a7.72,7.72,0,0,0,10-.2c2.3-2.3,1.9-4.6-1.1-5.8-1.4-.5-2.9-.9-4.4-1.4-5-1.7-5.9-6.4-1.8-9.8,3.2-2.7,7-3.2,11-2.8a22.11,22.11,0,0,1,2.5.5c3.6,1,3.6,1.1,1.8,4.2-.8,1.4-1.3,1.5-2.4.2-2.3-2.6-4.7-3.3-7.7-2.1-1.6.6-2.9,1.6-2.8,3.5,0,1.7,1.4,2.3,2.8,2.8,1.8.6,3.8,1,5.6,1.8,3.4,1.5,4.3,4,2.6,7.3a10,10,0,0,1-6,5.2c-.7.2-1.5.1-2,.8C185.2,291.3,182.5,291.3,179.8,291.3Z"/><path class="cls-2" d="M206.3,291.3c-2.3-1.7-2.4-4-1.7-6.6,1.3-4.4,2.2-8.8,3.5-13.2.5-1.7-.1-1.9-1.5-1.8a20.78,20.78,0,0,1-2.5,0c.7-1.6,1.4-2.8,3.3-2.4,1.4.3,2-.4,2.2-1.7a9.36,9.36,0,0,0,.4-1.6c-.1-3.6,2.6-4.2,5.2-5,1-.3,1,.2.8,1-.5,1.9-.9,3.8-1.5,5.7-.5,1.6.1,1.8,1.4,1.7,1.8-.1,3.6,0,5.5,0-.4,1.7-1.1,2.6-3,2.5-5-.2-5-.1-6.2,4.6-.8,3.2-1.7,6.3-2.5,9.5-.9,3.8-.2,4.7,3.7,4.3a5,5,0,0,0,1.2-.2c.5-.1,1-.3,1.2.4s-.2.9-.7,1.1c-1.3.5-2.6,1.1-4,1.7Z"/><path class="cls-2" d="M292.1,291.3c-2.3-1.7-2.4-4-1.7-6.6,1.3-4.4,2.2-8.8,3.5-13.2.5-1.7-.1-1.9-1.5-1.8a20.78,20.78,0,0,1-2.5,0c.7-1.6,1.4-2.8,3.3-2.4,1.4.3,2-.4,2.2-1.7a9.37,9.37,0,0,0,.4-1.6c-.1-3.6,2.6-4.2,5.2-5,1-.3,1,.2.8,1-.5,1.9-.9,3.8-1.5,5.7-.5,1.6.1,1.8,1.4,1.7,1.8-.1,3.6,0,5.5,0-.4,1.7-1.1,2.6-3,2.5-5-.2-5-.1-6.2,4.6-.8,3.2-1.7,6.3-2.5,9.5-.9,3.8-.2,4.7,3.7,4.3a5,5,0,0,0,1.2-.2c.5-.1,1-.3,1.2.4s-.2.9-.7,1.1c-1.3.5-2.6,1.1-4,1.7Z"/><path class="cls-2" d="M268.1,291.3c0-.1,0-.2-.1-.2-6.5-3.4-8.2-8.1-5.1-14.7,3.6-7.7,14-11.7,21.8-8.4,1.3.5,1.7,1.1.7,2.2-.1.1-.1.2-.2.4-1.7,3-1.7,3-3.8.6a5.2,5.2,0,0,0-5.4-1.5c-5.9,1.3-10.4,9.3-8.6,15a5.7,5.7,0,0,0,5.3,4.1,13.38,13.38,0,0,0,6.8-1.6c.6-.3,1.1-.7,1.6.1s-.4,1-.8,1.3c-1.7,1.4-4,1.9-6,2.7Z"/><path class="cls-2" d="M215.3,156.8a78.64,78.64,0,0,1,7.6,16.7c1,3.1,1.5,6.2.3,9.4h0a1,1,0,0,0-.5,1c-4.5,5.1-10.5,4.9-15-.1-6.9-7.8-11.6-16.9-15.6-26.4-7.2-17.2-14.5-34.4-22.7-51.1-3.7-7.5-7.7-14.9-11.6-22.3a12.28,12.28,0,0,0-7.2-6.4c-4.9-1.5-9-4.4-13.1-7.3-3.9-2.8-7.7-5.7-11.4-8.8h0q-.15-1.2.9-.6c1.5.8,3,1.6,4.5,2.3,11.1,5.1,20.9,3.4,29.6-5.1a46.47,46.47,0,0,0,8.7-12.3,32.36,32.36,0,0,1,2-3.6c-.8,4.3-2.3,8.5-3.5,12.7-1.5,5.2-3.8,10.2-4.6,15.7a13.37,13.37,0,0,0,1.4,8.1A514,514,0,0,0,202,137.2C206.6,143.5,210.9,150.2,215.3,156.8Z"/><path class="cls-2" d="M126.1,61.4c-.7,1,.3,1.3.7,1.7a65.51,65.51,0,0,0,6,5.8,57.61,57.61,0,0,0,7.3,5.2,49.18,49.18,0,0,1-8.9-.6c-10.3-1.8-19.2-6.1-25.7-14.4a32.81,32.81,0,0,1-6.8-21.6c0-1.1.3-1.4,1.4-1.5,18.9-.9,33.7,7,45.2,21.6a12,12,0,0,1,2,3.9c.6,1.9.1,2.8-2,3a19.82,19.82,0,0,1-6.4-.9,78.74,78.74,0,0,1-12.7-4.2c-.5-.2-1.3-.9-1.8,0-.3.8.7,1.8,1.7,2Z"/><path class="cls-2" d="M168.1,58.9c-.2-.7.4-1.2.6-1.7a34.48,34.48,0,0,0,4.2-15v-.4c-.1-.8.2-2-.6-2.2s-1.1.9-1.4,1.6c-2.2,3.9-4.5,7.7-7.1,11.4-.5.7-.9,1.8-2,1.7s-1.3-1.4-1.6-2.3a35.14,35.14,0,0,1-1-13.3c1.4-14.1,7.9-24.9,20.7-31.4,1.5-.8,2.3-.7,3.3.9,8.3,13.2,6.9,28.9-3.9,41.4a37.64,37.64,0,0,1-11.2,9.3Z"/><path class="cls-1" d="M155.8,197.5h15.1c1.4,0,2,.3,2,1.8-.1,2.4-.1,4.9,0,7.3,0,1.4-.5,2.3-1.9,2.5s-1.5,1-1,2.1c2.1,5.6,4.1,11.1,6.2,16.7.7,1.8,1.2,3.9,4,3.3.7-.1,1,.7,1,1.3.1,3.1.1,6.2.2,9.2,0,.9-.4,1.2-1.3,1.2H157.8c-1,0-1.3-.4-1.4-1.4,0-2.5,0-5-.2-7.6-.1-1.4,1-1.3,1.8-1.5s2,.2,1.6-1.2c-.4-1.2.4-3.4-1.7-3.5a78.47,78.47,0,0,0-9.7,0c-2,.1-1.6,2.3-1.9,3.5-.4,1.4,1.1.7,1.7.9a1.2,1.2,0,0,1,1.2,1.1,39.35,39.35,0,0,1,.2,8.4,1.1,1.1,0,0,1-1.2,1.2c-5.7,0-11.3,0-17-.1-.8,0-1-.4-1-1.2,0-2.9.1-5.9,0-8.8,0-1.3.7-1.4,1.6-1.2,1.5.2,2.1-.5,2.6-1.8,2.3-6.2,4.6-12.3,6.9-18.4.5-1.3.5-2.2-1.2-2.2-.9,0-1.4-.3-1.4-1.4-.1-2.7-.2-5.3-.4-8-.1-1.7.6-2.2,2.2-2.2Zm-4.1,12.8.4-.4c.2-.1.4-.2.4-.5.1,0,.1,0,.2-.1v-.1c-.1.1-.1.2-.2.2s-.5.1-.7.2-.3.3-.5.4a1.38,1.38,0,0,1-.4.3,15.08,15.08,0,0,1-2,1.7c-.9.6-1.1,2-2.5,2,0-.3.1-.5.1-.8l10.2-10.5a4.18,4.18,0,0,0,1.3-3.4c-1.5.1-2.4,1.2-3.5,1.9-.6.4-.8,1.3-1.7,1,0-.8,1.4-1.6.4-2.4-.8-.6-1.5.5-2.1.9-4.9,3.2-6,8.2-6.5,13.6,1.5-5,4.6-8.8,8.3-12.2.3,1.6-1.2,2.3-2,3.2-2,2.3-3.9,4.5-4.5,7.6-.3.4-.3.7.2,1,.6.8-.2,1.2-.4,1.8-.9,2.4-2,4.7-1.6,7.4-.1.1-.4.1-.1.4,0-.1.1-.3.1-.4.5-.2.6-.7.8-1.2a53.2,53.2,0,0,1,6-11.3C151.5,210.6,151.6,210.4,151.7,210.3Zm-2.1,9.2c-1.6-.1-2.2,1.1-2.8,2.2-.2.2-.3.4-.5.5a.54.54,0,0,0,.8-.2,5.5,5.5,0,0,0,2.5-2.5c0-.1.4,0,.1-.3C149.7,219.3,149.6,219.4,149.6,219.5Zm5.4-7.2c-.1-.1-.1-.2-.2-.2v.2h.2a7.78,7.78,0,0,0,.4,3.4c.5,2.1.9,4.2,3,5.4,0,.2-.1.4.2.2-.1-.1-.2-.1-.3-.2a41,41,0,0,1-1.1-6.1A2.35,2.35,0,0,0,155,212.3Zm7.2,12.2c.1.1.1.2.2.2v-.2h-.2c-.6-3.1-1.8-6.2-1.8-9.5,0-1.1-1-1.5-2.2-1.7C158.4,217.5,158.3,221.7,162.2,224.5Zm-21.9,13a3.2,3.2,0,0,1-2.4,2.8c.3.4.6.7,1,.6a23.59,23.59,0,0,1,7.5-.1c.5.1,1.2.4,1.5-.2s-.2-1.2-.6-1.7a3.6,3.6,0,0,0-2-1.1,6.45,6.45,0,0,0-4.1.5c-.6.3-1.2.4-.7-.6a19.16,19.16,0,0,1,8.2-2.1c-.8-2-2-2.5-3.9-2.1A7.16,7.16,0,0,0,140.3,237.5Zm4.3-34.4c-.5-.7.1-1.1.3-1.6s.8-.9.2-1.2a3.32,3.32,0,0,0-2.1-.7c-.6,0-.5.9-.5,1.4v6.7c.8-1.9.5-3.7,2.1-4.6-.7,3.4-1.5,6.8-1,10.7.7-2.6,1.3-4.8,1.8-7,.5-2.5,2.5-4,4-5.7.6-.7,0-1.4-.3-1.9-.5-.7-.9.2-1.4.4C146,200.2,145.9,202.2,144.6,203.1ZM177.8,235c-.2.3-.5.2-.7,0-2.6-3.1-5.1-6.3-4.8-10.8a29.94,29.94,0,0,0,0-3c-2.9,2.1-3,2.9-2.2,5.8.4,1.4,1.4,2.4,1.8,3.7-1,.5-1.1-.5-1.4-1-1.7-2.5-1.8-5.2-1.3-8,.3-1.8.7-3.5,1.1-5.4-3.3,1.6-4.8,4.4-4.6,8.5.2,3.6,3,6.9,7.4,8.6.2-1.2-1.8-1.4-1.2-2.7,2.5,1.8,4.1,4.7,6.5,6.8.3-1.1-1.3-1.5-.6-2.5,1.3.4,1.3,2,2.4,2.7-.1-1.8-3.9-8.8-6.5-11.9a7,7,0,0,0,.8,4C175.3,231.7,177,233.1,177.8,235Zm-13.7-6c.2,0,.3.1.5.1a.76.76,0,0,1-.2-.4c-.4-.5-.8-.9-1.2-1.4-4.5-5.4-8.3-5.7-14.7-3.6a5.78,5.78,0,0,0-3.7,3.9c2.4-1.5,5-1.5,7.5-1.6C156.5,225.8,160.5,226.3,164.1,229Zm-23.9-7.7c-1.2,7.2-1.7,14-7.4,19a9.6,9.6,0,0,0,8.4-6C143,230.1,142.6,225.9,140.2,221.3Zm36.2,18.1a19.21,19.21,0,0,0-7.1-1.5c-3.1,0-6.2,1.1-9.3-.2-.6-.2-1.5-1.2-1.9-.3a2.38,2.38,0,0,0,.7,3,5.09,5.09,0,0,0,1.7.7,14.78,14.78,0,0,0,4.2,0C168.6,240.6,172.4,239.4,176.4,239.4Zm-22.8-28c-2.2,3.3-2.3,6.7-3.7,10l6.8-.3C154.8,218.1,154.5,214.9,153.6,211.4Zm17.9-11.3a27.31,27.31,0,0,0-14.6,6.2C162.2,205.2,167.9,205,171.5,200.1Zm3.1,37.3c-3.3-3.6-7.5-5.1-12.1-5.6-1-.1-1.3.2-.7,1.2a5.35,5.35,0,0,0,3.9,2.6C168.6,236.2,171.6,236.6,174.6,237.4Zm-19.4-27.8a15.5,15.5,0,0,1,8.8,3.2c1.6,1.1,3.2,2.1,5.4,1.7C166.9,210.7,158.5,207.7,155.2,209.6ZM168,237c-2.5-.7-4.6-.9-6.1-2.4a3.9,3.9,0,0,0-3.6-.8c-.5.1-.4.5-.3.8a4.09,4.09,0,0,0,2.9,2.5C163.2,237.6,165.3,237.2,168,237Zm-11.4-32.2c3.5-1.8,6.7-3.8,10.4-4.9a.67.67,0,0,0,.5-1c-.3-.4-.8-.2-1.1-.1C162.6,199.8,159,201.3,156.6,204.8Zm8.2,10.8c-1.8,4-1.9,7.6-.1,10.8v-3.5a5.71,5.71,0,0,1,.9-3.2C166.8,218.2,166.3,217,164.8,215.6Zm5.5-7.3c-1.4-.8-9.1-.7-10.7,0C163.1,209.9,166.6,209.6,170.3,208.3Zm1.3-3.9c-4-.2-7,1.2-10.1,2.4C164.9,206.4,168.6,208,171.6,204.4Zm-33.4,21c-1.2,3.7-2.8,7.4-3.6,11.2A18.07,18.07,0,0,0,138.2,225.4Zm3.2-9.5c-.3,3.4-.4,6.1,1.4,8.7A17,17,0,0,0,141.4,215.9Zm21,5.1c1.3-4.1,1.3-4.7-1.1-6.6C161.5,216.6,161.4,218.9,162.4,221ZM141,206.1c.2,0,.4-.1.7-.1v-5a1,1,0,0,0-1-1.1c-.4-.1-.6.2-.7.6A9.71,9.71,0,0,0,141,206.1Zm1.9,26.7a6.13,6.13,0,0,0,2.7-3.9C143.6,229.8,143.5,229.9,142.9,232.8Zm-10,4c1.6-2.3,1.5-2.9-.4-3.5A33.87,33.87,0,0,1,132.9,236.8Zm1.5.5c0-.1-.1-.1-.1-.2l-.1.1a.35.35,0,0,1,.1.2A.1.1,0,0,1,134.4,237.3Z"/><path class="cls-1" d="M102.4,197.6c6.7,0,13.4.1,20.2,0,1.6,0,2.1.5,2.1,2v11.8c0,1.2-.5,1.5-1.6,1.5-3-.1-6,0-9,0-1.4,0-2.3-.3-2.2-2s-.8-2.2-2.4-1.8a24.75,24.75,0,0,1-6.1.3c-1,0-1.3.3-1.3,1.3,0,4.3-.1,4.3,4.2,4.3,5.1,0,5.2,0,5.1,5.1,0,1.7.6,3.9-.4,4.8-.8.7-3-.1-4.5-.3h-1c-2.9-.1-3,0-2.5,2.9a2.55,2.55,0,0,1,.1,1.2c-.8,2.6.6,2.7,2.6,2.6,1.7-.1,3.4-.1,5-.1,1,0,1.6-.4,1.4-1.5-.3-1.5.6-1.8,1.8-1.8,3.1,0,6.2,0,9.3-.1,1,0,1.5.3,1.5,1.4q-.15,6,0,12c0,1-.4,1.3-1.4,1.3-13.5.2-27,.9-40.5.3-1.9-.1-2.8-.7-2.6-2.7.1-2.2,0-4.3-.1-6.5-.1-1.6.5-2.5,2-2.6,1.8-.1,1.9-1,1.9-2.5-.1-5.7-.2-11.3-.1-17,0-1.6-.3-2.6-2.1-2.5-1.3.1-1.5-.6-1.5-1.7,0-2.8.1-5.6,0-8.4,0-1.5,1-1.3,1.8-1.3Zm-14.7,19c.1.1.3.1.4.2.1-.2-.1-.3-.2-.3-.1-.2-.2-.3-.3-.5-.4-.9-.7-1.8-1.1-2.7-.2-.5-.4-.7-.9-.5s-.4.6-.3,1a4.74,4.74,0,0,0,2,2.6C87.3,216.5,87.5,216.5,87.7,216.6Zm26.2,20.9c0-.1,0-.1-.1-.2h-.1c0,.1.1.1.2.2s0,.4.3.5a2.19,2.19,0,0,0,.3.5c.3.6.5,1.2.8,1.7s.2,1.5,1.1,1-.2-.9-.3-1.3-.8-.7-.2-1.2c1,.3,1.3,1.4,2,1.9a4.27,4.27,0,0,0,4.3.5c1.1-.5-.9-1.3-.6-2.3a.1.1,0,0,1,.1-.1c1,.4,1.3-.3,1.6-1.1.1-.5.4-1.1-.3-1.4a3.41,3.41,0,0,0-3.1.3c.2.9,1.3,1,1.4,1.8-2.3-.8-4.7-1.5-7-2.3-.2,0-.3-.1-.5-.1a.52.52,0,0,1,.2.4c.4.9,1.7,1.3,1.8,2.4-.7.6-.8-.4-1.3-.4l-.4-.4C114.1,237.8,114,237.7,113.9,237.5ZM95.1,212.6a2.19,2.19,0,0,0-.3-.5c-.3-.9-1.8-1-1.5-2.3.3.1.7.2,1,.3a5.92,5.92,0,0,1,.6.4c.3-.3,0-.6-.2-.8-2.8-4.6-6.1-8.6-11.6-10.1-.5-.1-1-.5-1.4-.1s0,1,.3,1.5a6.71,6.71,0,0,0,.9,1.4c1.7,2.3,4.3,3.2,6.6,4.6.7.4,1.8.3,1.8,1.6-.6.2-1-.3-1.5-.5-.3-.1-.6-.4-.8,0a.69.69,0,0,0,.3.9,6.71,6.71,0,0,1,1.5.6c.7.5,2.1.4,1.8,1.9-1.2-.2-1.9-1.5-3.3-1.3.6,2.2,2.4,3.4,5.1,3.6,0-.7-.9-.8-1-1.5.4-.8.8.1,1.2.1.2.1.3.3.5.4a1.44,1.44,0,0,1,.2.3C95.4,212.9,95.3,212.8,95.1,212.6Zm-3.5,1.8q.15-.45-.3-.3c.1.2.2.2.3.3.8,1.7,2.4,1.8,4,1.8C94.3,215.5,93.3,214.2,91.6,214.4Zm-9.3,25.2c2.9-3,3.2-3.4,1.4-4.6a6.47,6.47,0,0,0-1.4,4.6.27.27,0,0,0-.3.3c0,.1.1.1.2.2A4.34,4.34,0,0,0,82.3,239.6Zm19-38.2c.9.8-.9,1.3-.1,2.2a16.18,16.18,0,0,1,1.9-1.8c.7-.6,1.2-1.6,2.4-1.2,0,.6-.8.6-.9,1.2a.52.52,0,0,0-.2.4h.5c3.6-2.2,7.6-2.9,11.7-3.2a17,17,0,0,0-11.1,1.7c-.7-.3.2-.9-.2-1.2-.9.1-1.4.8-2.1,1.2-.7.1-.9,1.3-1.9.7.2-1.2-.6-1.9-1.5-2.5-.4-.3-.7.3-1,.6-1.1,1.5.8,2.2.8,3.5C100.4,202.6,100.4,201.5,101.3,201.4ZM87.4,228.7c1.8.4,2.1-.7,2.1-2.1,1.9-.1.5-1.1.2-1.4-1.7-2.2-3.5-4.3-4.3-7-.1-.4-.3-.8-.9-.5-.4,3.2,1.1,5.6,3.4,7.7-1,.6-1.8-1-2.9-.2.1,1,.8,1.5,1.5,2.1.4.3,1.4.4.9,1.4a6.47,6.47,0,0,1-1.3-.4c-1-.5-1.5-.2-1.3.9.1.7.1,1.7,1,1.5A1.7,1.7,0,0,0,87.4,228.7Zm14.7-5.5c2.9.1,5.5-.3,7.6-2.6a9.94,9.94,0,0,0-5.1,1c-.8.4-1.4,1.4-2.5.9,1.2-1.6,3.1-2,4.7-2.9a10,10,0,0,0,2.4-1.6,1.09,1.09,0,0,0,.4-1.3c-.2-.5-.7-.4-1.1-.4a10,10,0,0,0-9.7,8.9c1.2-.9,1.7-2.5,3.3-2.8.5.3.1.5,0,.8ZM98,232.6c3.9-1.6,4.7-3.1,3.3-6.9-2.4,1.6-2.8,4.2-3.6,6.6-.1.2-.3.4,0,.5C97.7,232.8,97.9,232.6,98,232.6Zm-2.7-12.2c.1.1.3.1.4.2,0-.2-.1-.3-.1-.5-2.8-3.5-7-6.1-7.9-11.3a6.83,6.83,0,0,0,2.2,8.3A60,60,0,0,0,95.3,220.4Zm-.1,13.2c2.3-3,3.1-6.3,1.6-9.8a7.15,7.15,0,0,0-5.8-4.1c3.5,3.9,5.5,8.2,3.9,13.6-.3.1-.4.4-.2.6S95,233.7,95.2,233.6Zm-1.9.1c.6-.2.6-.7.8-1.1,2.3-5.8-2.8-12.9-7.6-15.1a5.91,5.91,0,0,0,2,4.5,18.83,18.83,0,0,1,4.8,11.7c-.1.1-.2.3-.3.4l.2.2A1.27,1.27,0,0,1,93.3,233.7Zm19.2,6.9c.1.2.3.2.5,0a1.44,1.44,0,0,0-.2-.3,43.71,43.71,0,0,0-2.5-4.8,7.4,7.4,0,0,0-9.7-2.7c1.7.7,3.4,1.4,4.2,3C106.3,239.2,109.1,240.4,112.5,240.6Zm9.9-40.9c-6.2.3-12.4-.5-17.5,3.7,3.8-.9,7.6-.1,11.5.1C119.2,203.7,121,202.5,122.4,199.7Zm-20.2,7.7c2-.2,4-.5,6-.6s3.9.3,5.2,2.1c2.2,3,5.2,2.8,8.3,2.3.4-.1,1,0,1-.8s-2-3-2.9-2.9c-3.3.3-6.5-.5-9.7-1.3A9.36,9.36,0,0,0,102.2,207.4Zm20.7-4.1c-6.1,3-12.7-1.3-18.8,1.9a12.61,12.61,0,0,1,5.8.1c1.8.4,3.6.9,5.5,1.4C118.8,207.5,121.8,206.4,122.9,203.3Zm-25.8,8.5c3.6-5,2-9.1-1.2-13.2C93.4,203.3,96.2,207.3,97.1,211.8Zm26.5,17.4c-4.3.4-6,5-10,5.2,2.6,1.5,5.1,1.9,7.8.6C123.9,233.9,122.8,231.4,123.6,229.2Zm-30.8,7.9c2.5.2,4.8.7,6.5,2.3s3,1.2,4.4-.4C98.5,234.7,96,234.2,92.8,237.1ZM90,238.8c3.1,3,6.4,3.5,10.3,2.5C97.4,238.3,94.1,237.5,90,238.8Zm10.8-28.9c-2.6,2.9-3.1,6.5-1.5,9.5C101.6,216.5,101.3,213.3,100.8,209.9Zm-18-5.2c-1.4-.1-1.5.1-1.2,1.1.5,1.5,3.3,3.1,4.8,2.6.8-.3,1.5-1,.5-1.6C85.6,205.8,84.3,204.6,82.8,204.7Zm-.4,26.9a10.79,10.79,0,0,1,3.7,6.3,3.87,3.87,0,0,0,.1-5.3A3.39,3.39,0,0,0,82.4,231.6Zm10-26.7c-.4-3-1.2-5.3-4.7-5.9A19.16,19.16,0,0,0,92.4,204.9Zm-2.1,23.9c-.9.7-1.7,1.2-2.4,1.8-.5.4-1.6.4-1.1,1.4.3.7.7,1.7,1.3,1.8s1.2-.8,1.6-1.4A5.55,5.55,0,0,0,90.3,228.8Zm8.9,5.1c2.1,1.2,3.1,3.8,5.9,4.4C103.9,235.6,102.1,234,99.2,233.9Zm14.1-.7c2.5.2,4-1.3,5.5-2.8.4-.4,1-1,.4-1.6s-1.1.2-1.4.5C116.5,230.8,115.3,232.4,113.3,233.2ZM93.9,205v-6A4.81,4.81,0,0,0,93.9,205Zm12.3,36.8c.4-.2,1.3.3,1.2-.6a1.69,1.69,0,0,0-1.8-1.6c-.6.1-1.7.3-1.6,1C104,241.8,105.2,241.7,106.2,241.8Zm-17.1-3.9a5,5,0,0,0,1.5-6C90,234.2,89.6,236,89.1,237.9Zm23.6-6a3,3,0,0,0,3-1.8c.2-.4-.5-1-.9-1C113.1,229.2,113.8,231,112.7,231.9Zm-20.6,9.7c-1.7-1.3-2.7-2.7-4.8-1.4C88.8,240.8,90,241.7,92.1,241.6Zm13.7-17.8c1.5.1,2.4.2,3.3.3.5,0,.8-.1.7-.7s-.2-1-.9-.7C108,223,107.2,223.3,105.8,223.8Zm-14.5,5.1c.2,1,.3,1.8.4,2.5s.1,1.5.2,2.6C92.6,232,92.6,231.3,91.3,228.9Zm-2.4,5.6c-1.4.9-1,1.9-1,2.9C88.9,236.6,88.8,235.8,88.9,234.5ZM94.6,214l-.2.2c0,.1.1.3.2.3s.3,0,.3-.3C94.8,214.2,94.7,214.1,94.6,214Z"/><path class="cls-1" d="M310.8,197.6h20.4c1.4,0,1.8.5,1.8,1.8v12c0,1.2-.5,1.5-1.6,1.5-3-.1-6,0-9,0-1.4,0-2.3-.3-2.2-2s-.8-2.2-2.4-1.8a28.83,28.83,0,0,1-5.9.3c-1.1,0-1.6.3-1.5,1.5.1,4.1.1,4.1,4.2,4.1,5.1,0,5.2,0,5.1,5.1,0,1.7.6,3.9-.4,4.8-.8.7-3-.1-4.5-.3a3.4,3.4,0,0,1-1-.1c-2.9-.1-3,0-2.5,2.9a2.56,2.56,0,0,1,0,1.5c-.7,2.1.3,2.5,2.1,2.4s3.4,0,5-.1c1.1,0,2.1-.2,1.8-1.8-.2-1.1.3-1.5,1.4-1.5,3.3,0,6.6-.1,10-.1,1,0,1.3.5,1.3,1.4,0,4-.1,8,0,12,0,1-.4,1.3-1.3,1.3-13.5.2-27,.9-40.5.3-1.9-.1-2.8-.7-2.7-2.7.1-2.2,0-4.3-.1-6.5a2.26,2.26,0,0,1,2.2-2.7c1.3-.1,1.7-.7,1.7-2-.1-6-.2-11.9-.1-17.9,0-1.5-.5-2.1-1.9-2s-1.8-.6-1.8-1.9q.15-3.9,0-7.8c-.1-1.5.5-1.7,1.8-1.7Zm-14.7,19c.1.1.3.1.4.2.1-.2-.1-.3-.2-.3-.1-.2-.2-.3-.3-.5-.4-.9-.7-1.8-1.1-2.7-.2-.5-.4-.7-.9-.5s-.4.6-.3,1a4.74,4.74,0,0,0,2,2.6C295.8,216.5,295.9,216.5,296.1,216.6Zm26.2,20.9c0-.1,0-.1-.1-.2h-.1l.2.2c0,.2,0,.4.3.5a2.19,2.19,0,0,0,.3.5c.3.6.5,1.2.8,1.7s.2,1.5,1.1,1-.2-.9-.3-1.3-.8-.7-.2-1.2c1,.3,1.3,1.4,2,1.9a4.27,4.27,0,0,0,4.3.5c1.1-.5-.9-1.3-.6-2.3a.1.1,0,0,1,.1-.1c1,.4,1.3-.3,1.6-1.1.1-.5.4-1.1-.3-1.4a3.41,3.41,0,0,0-3.1.3c.2.9,1.3,1,1.4,1.8-2.3-.8-4.7-1.5-7-2.3-.2,0-.3-.1-.5-.1a.52.52,0,0,1,.2.4c.4.9,1.7,1.3,1.8,2.4-.7.6-.8-.4-1.3-.4l-.4-.4C322.6,237.8,322.4,237.7,322.3,237.5Zm-18.7-24.9a2.19,2.19,0,0,0-.3-.5c-.3-.9-1.8-1-1.5-2.3.3.1.7.2,1,.3a5.92,5.92,0,0,1,.6.4c.3-.3,0-.6-.2-.8-2.8-4.6-6.1-8.6-11.6-10.1-.5-.1-1-.5-1.4-.1s0,1,.3,1.5a6.7,6.7,0,0,0,.9,1.4c1.7,2.3,4.3,3.2,6.6,4.6.7.4,1.8.3,1.8,1.6-.6.2-1-.3-1.5-.5-.3-.1-.6-.4-.8,0a.69.69,0,0,0,.3.9,6.71,6.71,0,0,1,1.5.6c.7.5,2.1.4,1.8,1.9-1.2-.2-1.9-1.5-3.3-1.3.6,2.2,2.4,3.4,5.1,3.6,0-.7-.9-.8-1-1.5.4-.8.8.1,1.2.1.2.1.3.3.5.4a1.44,1.44,0,0,1,.2.3C303.8,212.9,303.7,212.8,303.6,212.6Zm-3.6,1.8q.15-.45-.3-.3c.2.2.3.2.3.3.8,1.7,2.4,1.8,4,1.8C302.7,215.5,301.7,214.2,300,214.4Zm-9.2,25.2c2.9-3,3.2-3.4,1.4-4.6a5.92,5.92,0,0,0-1.4,4.6.27.27,0,0,0-.3.3c0,.1.1.1.2.2A1.09,1.09,0,0,1,290.8,239.6Zm18.9-38.2c.9.8-.9,1.3-.1,2.2a16.17,16.17,0,0,1,1.9-1.8c.7-.6,1.2-1.6,2.4-1.2,0,.6-.8.6-.9,1.2a.52.52,0,0,0-.2.4h.5c3.6-2.2,7.6-2.9,11.7-3.2a17,17,0,0,0-11.1,1.7c-.7-.3.2-.9-.2-1.2-.9.1-1.4.8-2.1,1.2-.6.1-.9,1.3-1.9.7.2-1.2-.6-1.9-1.5-2.5-.4-.3-.7.3-1,.6-1.1,1.5.8,2.2.8,3.5C308.9,202.6,308.8,201.5,309.7,201.4Zm-13.9,27.3c1.8.4,2.1-.7,2.1-2.1,1.9-.1.5-1.1.2-1.4-1.7-2.2-3.5-4.3-4.3-7-.1-.4-.3-.8-.9-.5-.4,3.2,1.1,5.6,3.4,7.7-1,.6-1.8-1-2.9-.2.1,1,.8,1.5,1.5,2.1.4.3,1.4.4.9,1.4a6.47,6.47,0,0,1-1.3-.4c-1-.5-1.5-.2-1.3.9.1.7.1,1.7,1,1.5A1.65,1.65,0,0,0,295.8,228.7Zm14.7-5.5c2.9.1,5.5-.3,7.6-2.6a9.94,9.94,0,0,0-5.1,1c-.8.4-1.4,1.4-2.5.9,1.2-1.6,3.1-2,4.7-2.9a10,10,0,0,0,2.4-1.6,1.09,1.09,0,0,0,.4-1.3c-.2-.5-.7-.4-1.1-.4a10,10,0,0,0-9.7,8.9c1.2-.9,1.7-2.5,3.3-2.8.5.3.1.5,0,.8Zm-4.1,9.4c3.9-1.6,4.7-3.1,3.3-6.9-2.4,1.6-2.8,4.2-3.6,6.6-.1.2-.3.4,0,.5C306.2,232.8,306.3,232.6,306.4,232.6Zm-2.7-12.2c.1.1.3.1.4.2,0-.2-.1-.3-.1-.5-2.8-3.5-7-6.1-7.9-11.3a6.83,6.83,0,0,0,2.2,8.3C300.1,218.4,301.9,219.3,303.7,220.4Zm-.1,13.2c2.3-3,3.1-6.3,1.6-9.8a7.15,7.15,0,0,0-5.8-4.1c3.5,3.9,5.5,8.2,3.9,13.6-.3.1-.4.4-.2.6S303.5,233.7,303.6,233.6Zm-1.9.1c.6-.2.6-.7.8-1.1,2.3-5.8-2.8-12.9-7.6-15.1a6.51,6.51,0,0,0,2,4.5,17.77,17.77,0,0,1,4.8,11.7c-.1.1-.2.3-.3.4l.2.2C301.6,234.1,301.7,233.9,301.7,233.7Zm19.2,6.9c.1.2.3.2.5,0a1.44,1.44,0,0,0-.2-.3,43.71,43.71,0,0,0-2.5-4.8c-2-3.3-6-4.4-10-2.6a6,6,0,0,1,4.4,2.9C314.7,239.2,317.5,240.4,320.9,240.6Zm10-40.9c-6.2.3-12.4-.5-17.4,3.7a16.32,16.32,0,0,1,4.4-.3c2.4.1,4.9.3,7.3.4C327.9,203.7,329.5,202.3,330.9,199.7Zm-20.2,7.7c2-.2,4-.5,6-.6s4,.3,5.2,2.1c2.2,3,5.2,2.8,8.3,2.3.4-.1,1,0,1-.8s-2-3-2.9-2.9c-3.3.3-6.5-.5-9.7-1.3A9.31,9.31,0,0,0,310.7,207.4Zm1.8-2.3c2.9-.7,5.5.2,8.3.9,2,.5,4,1.2,6.2.9a4.69,4.69,0,0,0,4.5-4C325.2,206.1,318.6,202,312.5,205.1Zm-6.9,6.6c3.5-5.6,2-8.9-1.4-13C302,203.3,304.5,207.3,305.6,211.7Zm16.5,22.7c6.2,3.1,9.7,1.2,9.6-5.2C327.8,229.6,326.1,234.2,322.1,234.4Zm-9.9,4.6c-5.2-4.3-7.9-4.8-10.9-1.9,2.5.2,4.7.7,6.5,2.3S310.8,240.6,312.2,239Zm-13.8-.2c3,2.9,6.4,3.5,10.3,2.5A9.27,9.27,0,0,0,298.4,238.8Zm10.8-28.9a8,8,0,0,0-1.5,9.4C310.1,216.5,309.8,213.3,309.2,209.9Zm-15-1.5a1.31,1.31,0,0,0,1.6-.7c.4-.8-.3-1-.8-1.2-1.3-.7-2.4-1.6-4-1.8-1.4-.2-1.3.4-.9,1.3C290.9,207.7,292.5,208.1,294.2,208.4Zm-3.5,23.2a10.68,10.68,0,0,1,3.8,6.4c1.6-1.8,1.2-3.5.2-5.2C293.8,231.4,292.4,231.3,290.7,231.6Zm5.4-32.7a18.59,18.59,0,0,0,4.8,5.9C300.5,201.9,299.6,199.6,296.1,198.9Zm2.6,29.9c-.8.6-1.6,1.1-2.4,1.7-.5.4-1.6.4-1.1,1.4.3.7.7,1.7,1.3,1.8s1.2-.8,1.6-1.4A4.65,4.65,0,0,0,298.7,228.8Zm14.7,9.6c-1.4-3.2-3.3-4.6-5.9-4.3C309.7,235.2,310.8,237.6,313.4,238.4Zm7.7-5.1c3.1.2,4.6-1.4,6.2-3,.4-.4.9-.9.4-1.4s-1.1.1-1.4.4A11.49,11.49,0,0,1,321.1,233.3Zm-18.5-28v-5c0-.5.2-1.2-.4-1.2s-.7.7-.8,1.2A5.46,5.46,0,0,0,302.6,205.3Zm13.2,36.4a1.89,1.89,0,0,0-2.9-1.8c-.3.2-.9.3-.7.9a1.81,1.81,0,0,0,1.9,1C314.7,241.8,315.3,241.7,315.8,241.7ZM297.5,238a5,5,0,0,0,1.5-5.9C298.4,234.2,298,236,297.5,238Zm23.6-5.8c1.6-.6,2.7-.9,2.9-2.2,0-.2-.8-.9-1-.9C321.7,229.5,322.1,230.9,321.1,232.2Zm-25.5,8.2c1.7.3,2.8,1.5,4.4,1C298.8,240.5,297.9,238.9,295.6,240.4Zm19-16.8a5.21,5.21,0,0,0,2.6.5c.4,0,.9.2,1-.3a1.31,1.31,0,0,0-.3-1c-.3-.5-.7-.1-1.1.1C316.2,223.1,315.6,223.3,314.6,223.6Zm-14.8,5.6c.2,1.5.3,3,.5,4.9C301.4,232,300.4,230.6,299.8,229.2Zm-2.5,5.4c-1.5.7-.8,1.7-1.1,2.9C297.3,236.6,297.2,235.8,297.3,234.6Zm6-20.3c-.1-.1-.2-.2-.2-.3l-.2.2.3.3A.35.35,0,0,0,303.3,214.3Z"/><path class="cls-1" d="M206.9,197.7h21.2c1.6,0,2.2.4,2.1,2.1-.2,5-.2,10.1-.2,15.1,0,1.5-.4,2.2-2,2.1a54.21,54.21,0,0,0-5.7.1c-1.3.1-1.8-.4-1.7-1.7,0-1.7-.1-3.4-.1-5s-1.1-1.2-1.9-1.1-2.3-.8-2.3,1.2c0,6.4.1,12.7.1,19.1,0,1.4.8,1.6,1.9,1.5,1.5-.2,1.9.5,1.9,1.9-.1,2.7-.1,5.5-.1,8.2,0,1.4-.5,1.8-1.9,1.8H194.9c-1.1,0-1.5-.4-1.5-1.4V233c0-1.7,1-1.8,2.2-1.6,1.5.2,2-.3,2-1.9-.2-6-.1-12-.2-18.1,0-1.7-2.2-2.8-3.7-2-.5.3-.4.8-.4,1.3-.1,1.6-.1,3.2-.1,4.8,0,1.2-.5,1.6-1.6,1.6-2.2-.1-4.5-.1-6.7-.1-.9,0-1.3-.3-1.3-1.2-.4-5.7-.3-11.3-.3-17,0-1.4,1.1-1,1.9-1.1,4.8-.1,9.7-.1,14.5-.1,2.3,0,4.8,0,7.2.1Zm-4.8,39.8c-.1,0-.4-.1-.2.2.1,0,.1-.1.2-.2a.46.46,0,0,0,.4-.5,4.73,4.73,0,0,0,2.2-2c4.4-4.8,4.6-11.9.2-14.7.1.8.2,1.4.3,2.1.3,4.1,1.4,8.3-.9,12.3-.5.8-1.6,1.3-1.9,2.3A.46.46,0,0,0,202.1,237.5Zm-1.2.9c-.1,0-.4-.1-.2.2l.2-.2c0-.1.5,0,.1-.3C201,238.2,200.9,238.3,200.9,238.4Zm-.2-24.3.4.4c.2-.3.2-.5-.2-.6-.2-1.1-.3-2.2-1.5-2.7A3.35,3.35,0,0,0,200.7,214.1Zm-1.9,23.8c1.8-1.1,1.7-2.9,1.7-4.6,1.2.2.7,1.4,1.1,2.1,1-1.8.2-3.6.2-5.4,2.1.9.7,3,1.6,4.7a14,14,0,0,0,0-8.1c-.2-.9-1.3-1.5-.8-2.5,1.3.4,1.1,1.9,2,2.7.4-6.4-.5-7.9-5-8.3.4,2.2,2.3,3.6,3,5.6-1.4.3-1.4-1.9-3-1.5a24.9,24.9,0,0,1,2.1,7.4c-.7,0-.7-1-1.5-.8-.3,1.4.3,2.8.2,4.2-.4.4-.6-.1-.8-.3-.4-.3-.4-1.2-1.2-.7a1.13,1.13,0,0,0-.4,1.5c1,1.2.7,2.7.8,4a.19.19,0,0,0-.3,0v.2C198.6,238.1,198.7,238,198.8,237.9Zm8.4-3.3c2.1-.4,4.2-.8,6.3-1.3.8-.2,1.9-.7,1.7-1.5s-1.5-1.1-2.3-.8c-2.1.9-4.3,1.6-5.7,3.6-.2,0-.3,0-.4.1l.2.2C207.1,234.8,207.1,234.7,207.2,234.6Zm-8.4-30.2c-.7.5-.8-.3-1.1-.5a11.59,11.59,0,0,0-6.6-2.4c1.3,4.6,6.1,5,8.9,7.7.4-1.9-1.4-3.1-1.2-4.8.9-.7.3-1.4-.1-2-1.4-2.2-3.6-2.7-6-3.4.1,1.5,1,2,2.2,2.4C196.5,201.9,198.2,202.4,198.8,204.4Zm4.5,11.3c.1.1.1.4.3.2a2.27,2.27,0,0,1-.1-.4,13.27,13.27,0,0,1-.6-5.6c.1-2.1,1-3.9,1.5-5.9a3.63,3.63,0,0,0-1.2-3.8,25.92,25.92,0,0,0-2,9.3C201.1,211.7,201.3,214.2,203.3,215.7Zm5.2,16.4c5.3-1.9,7.3-4.7,6.4-9.3-3.3,2.3-5.2,5.5-6.6,9.2-.1.1-.1.2-.2.3l.1.1Zm9.6,2.1c-5.3.1-10.5.4-15.1,4a63.36,63.36,0,0,0,7.6-.1c2.9-.3,5.7-1.3,7.5-3.9,0-.1.1-.2.2-.3h-.2Zm-8.2-9.9c4.2-2,5.8-4.7,4.7-8.5-.9,2.2-1.5,4.3-3.6,5.4.6-1.6,2-2.9,2.3-4.6a16.62,16.62,0,0,0,.9-5.2c-3.5,3.4-7.2,6.4-5.8,11.8,1.2-.1,1.1-1.7,2.3-1.6,0,1.1-1.1,1.5-1.1,2.5a.4.4,0,0,0-.2.6C209.6,224.5,209.8,224.4,209.9,224.3ZM208,209c.4-1.7,1.9-2.7,2.9-4s1.9-2.6,1.7-4.4a15.57,15.57,0,0,0-6.4,10c.9-.4.9-1.5,1.8-1.6.6.7-.1,1.1-.3,1.6a10.69,10.69,0,0,0-.5,9.4c0-4,2.7-6.4,4.9-9.2,2.4-2.9,3.6-6.5,4.5-10.7-2.8,3.1-5.1,5.7-7.4,8.3C208.9,208.6,208.8,209.4,208,209Zm9.7-2.3c3.2.4,4,.6,6.7,2.3a4.59,4.59,0,0,0,3,.5c.6,0,.9-.2.7-.9a5,5,0,0,0-4.9-3.9A7.4,7.4,0,0,0,217.7,206.7Zm3.7,1.6a14.21,14.21,0,0,0,1.2,4.1c1.1,2.1,2.8,3.2,4.8,3,.5,0,1.1.1,1-.7-.3-1.3-.3-3-1.7-3.6C225,210.2,223.5,209.2,221.4,208.3ZM204.7,215a30,30,0,0,1,.9-6,24.42,24.42,0,0,1,2.6-5.7,2.4,2.4,0,0,0-.1-2.9C204.3,203.7,202.6,211,204.7,215Zm-12.9-5.9c-1.6.9-2.9,1.7-4.2,2.3a3.47,3.47,0,0,0-1.9,3c-.1.9.2,1.2,1.1,1.3a3.22,3.22,0,0,0,3.5-1.8A9.41,9.41,0,0,0,191.8,209.1Zm10.3,30.1c4.3,2.4,12.6,1.4,15.9-1.5.3-.2.7-.4.4-.8a1,1,0,0,0-.9-.3,10.66,10.66,0,0,0-1.9.7,14.56,14.56,0,0,1-7.6,1.9Zm20.2-39.9c-4.2.8-5.8,3.8-6.9,7.6C218.6,204.9,221.7,203.4,222.3,199.3Zm-27.2,7.8c-2.8-1.3-6.7-.8-8.4.9-.8.8-1.5,1.9-.9,2.8s1.7-.1,2.4-.5C190.3,209,192.2,207.6,195.1,207.1Zm32.9-7.8c-2.3-.2-4.1.1-5.3,2.2-.6,1.1-.7,1.7.9,1.7C225.9,203.1,226.9,202.3,228,199.3Zm-35.3,6.2c-2.2-3.1-3.5-3.3-6.9-1.2C187.7,206.3,190.1,205.7,192.7,205.5Zm8.3-.9c.5-1.9,1.3-3.4-.3-4.8-.4-.4-.9-.8-1.4-.3s-.9.9-.4,1.6C199.5,202.1,200.2,203.2,201,204.6Zm8.4,36.9a31.37,31.37,0,0,0,7.5.1c.5,0,1.3.1,1-.8-.2-.6-.5-1.5-1.5-.9C214.3,241.2,211.8,241.3,209.4,241.5Zm-13-7.6c.2,2.3-.7,4-1,6.1C198.3,237.6,198.6,235.9,196.4,233.9ZM189.7,202a3.76,3.76,0,0,0-3.1-1.9c-1-.1-1.1.3-.7,1.1C186.8,203.1,188.3,202.4,189.7,202Zm35.4,1.9c1.3.9,2.3,1.2,3.3.4.5-.4.4-.9-.1-1.3C226.9,201.9,226.5,203.8,225.1,203.9Zm-23,13.6a4.05,4.05,0,0,0-.5-.9c-.4-.6-.7-1.4-1.6-1.4-.3,0-.5.1-.5.5a2.58,2.58,0,0,0,1.5,2A.8.8,0,0,0,202.1,217.5Z"/><path class="cls-1" d="M252.2,243H237.6c-1.6,0-2.3-.3-2.2-2.1a64.22,64.22,0,0,0,0-7.6c-.1-1.5.4-2.3,2-2s2.2-.5,2.2-2.2c-.2-6.1-.2-12.2-.2-18.3,0-1.4-.4-2.1-1.9-1.9s-2.2-.5-2.2-2.1c.1-2.6,0-5.2-.1-7.8,0-1.2.4-1.6,1.6-1.6h24.4c1.2,0,1.6.4,1.6,1.6,0,2.7,0,5.3.1,8,0,1.4-.6,2.1-2,2-2.1-.2-2.6.9-2.5,2.8.2,5.9.3,11.8.4,17.6,0,1.4.5,2,2,2,2-.1,3.9,0,5.9,0,1.3,0,1.7-.6,1.7-1.8s.1-2.7.2-4c0-1,.5-1.5,1.6-1.5,2.9.1,5.7.1,8.6.1,1.2,0,1.7.6,1.7,1.8,0,5,0,9.9.1,14.9,0,1.5-.7,1.6-1.9,1.7C270.8,243.1,262.8,242.5,252.2,243Zm2-28.2a3.34,3.34,0,0,0,2.5-1.2,1,1,0,0,0,.2-1.5c-.4-.5-.9.1-1.2.3a3.47,3.47,0,0,0-1.5,2.4.1.1,0,0,1-.1.1v.1A.35.35,0,0,0,254.2,214.8Zm3.9-6.6a6.89,6.89,0,0,0,3.3-3c.3-.6.8-1.5.1-1.9s-1.1.5-1.5,1c-.6.8-.5,2.1-2,2.1.4-1.5,1.7-2.7,1.5-4.5a5.2,5.2,0,0,1,1-3.1c.1-.1.1-.2.2-.2h-.2v.3c-3-.4-4.8,1.6-6.3,3.7-2,2.7-2.9,9.9-1.7,13.6.2-.6.5-1.2.7-1.8a23.61,23.61,0,0,1,4.8-7.9c.6.6-.2,1-.2,1.5,0,.2-.1.3-.1.5C257.8,208.3,257.9,208.2,258.1,208.2Zm-17.3,25.2c2.8-4,2.9-7.3.2-8.5.2,2.8.6,5.6-.4,8.2,0,.1-.1.3-.1.4A.37.37,0,0,0,240.8,233.4Zm15.5,3.7c0-.1-.1-.2-.1-.3l-.2.2c.1,0,.2.1.3.1,0,1.3,1.9,1.5,1.7,3-1.3-.2-1.9-1.4-2.6-2.2-3.4-3.6-7.3-4.3-11.9-1.7,2.3-.2,4.1.9,6,1.7,2.4,1,4.4,3,7,3.6.8.2,1.9,1,2.3-.6.7-.6,1.1.2,1.6.4,1.3.7,2.6.5,4.5.5-1.6-.9-2.6-1.6-3.6-2.1C259.6,238.9,258.3,237.4,256.3,237.1Zm-4.6-36.5c-.6-.5.5-1.6-.5-1.9-.6-.1-.9.6-1.1,1.1a1,1,0,0,0,.3,1.1c.6.6.6-1.2,1.3-.3-.4,1.7-1.4,3.4,0,5.3.8-2,1.5-3.9,3-5.3a.94.94,0,0,0,.1-1.5c-.5-.5-.9.1-1.3.2C252.8,199.6,252.5,200.4,251.7,200.6Zm-12.1,40.7c3.7-2.3,7.4-3.2,11,.2.3.3,1,.8,1.4.2s-.1-1.1-.4-1.5a10.7,10.7,0,0,0-3.7-2.2c-3.9-1.8-6.5-.9-8.5,3.1-.1.2-.2.3,0,.5C239.3,241.6,239.5,241.4,239.6,241.3Zm4.5-23.5c.7-.5,1,.3,1.2.6a9.33,9.33,0,0,1,2.4,6.5c3.7-3.5,1.9-8-1-10.6-1.4-1.2-2.4-.2-3.3.5s.3,1.2.5,1.8c.2.4.9.7.2,1.2-1.5-.6-1.4-2.6-2.9-3.2-.2,2.7.4,4.9,2.7,6.4,1.4.9,2,2.6,2.6,4.3a4.6,4.6,0,0,0-.1-3.3A24,24,0,0,0,244.1,217.8Zm10.1,10.9a13.72,13.72,0,0,0,2.8-10.2,17,17,0,0,1-5.2,5.7c-1.8,1.4-3.6,2.7-5.3,4.1a18.76,18.76,0,0,0-6.1,8.8c2.1-1.4,3.9-3.2,6.2-4.3l6.9-3.3c0,1.8-2,1.4-2.8,2.6a10.15,10.15,0,0,0,5.7-2.1c.6-.5,1-1.4.6-2s-1,.3-1.5.5S254.7,229.4,254.2,228.7Zm-5.5-24.3a8,8,0,0,1-3-2.1,8.66,8.66,0,0,0-5.9-2.2c-.5,0-1.2-.4-1.5.3s.2,1.1.5,1.5a3.18,3.18,0,0,0,1,1,73.87,73.87,0,0,1,11.1,7.4,20.12,20.12,0,0,1-.5-2.3,8,8,0,0,0-1.3-2.4c-1.3-1.8,1.2-.2,1-1.1v-.2c-.2-1.7-.3-3.5-1.9-4.7-.6-.4-1.2-1.3-1.9-.4a1.76,1.76,0,0,0,.2,2.5A11,11,0,0,1,248.7,204.4Zm9.2,31.8c4.6,3.6,9.3,6.5,15.4,5.6a32.61,32.61,0,0,1,5.4-.3c1.1,0,.7-.7.7-1.1-.1-1.7-2-2.7-4.2-2.2a22.26,22.26,0,0,1-12-.6A45.8,45.8,0,0,0,257.9,236.2Zm2.9-1.7c.7.7,1.4.5,2,.7,4.8,1.6,9.4.5,13.5-2,2.7-1.6,2.9-3.3,1.5-6.2C274.1,233.9,267.9,235,260.8,234.5Zm18-.8c-5.3,2.1-10.5,4-16.3,2.6C270,239.1,277.1,238.1,278.8,233.7Zm-40.4-28.4c3,2.6,6.3,4.8,10.7,4.7-.7-.5-1.2-1.1-1.8-1.5-1.6-1.1-3.3-2.1-4.9-3.2A3.3,3.3,0,0,0,238.4,205.3Zm18.2,10c-2.9.8-5.5,4.5-5.9,8.1C254.4,221.9,255.1,218.5,256.6,215.3Zm5.2,18.2v.2c1.3,0,2.6.1,4,0,3.7-.4,7.1-1.4,9.5-4.5.7-.9.8-1.8-.1-2.3s-1.1.6-1.3,1.1a8.22,8.22,0,0,1-6.9,4.8C265.2,233,263.5,233.3,261.8,233.5Zm-17.5-4.7c1.3-2.1,1.6-3.9.5-5.8-.6-1.1-1.4-2.3-3.3-1.8a6.43,6.43,0,0,1,2,3.3C243.9,225.9,244,227.2,244.3,228.8Zm2.5-15.6a13.52,13.52,0,0,1,3.9,5.5c.4-1.9,1.3-3.4.1-4.8C249.9,212.9,248.6,212.6,246.8,213.2Zm3-1c-1.5-1.3-4.6-1.6-5.9-.7-.7.5-1.2,1.3-.9,1.9.4.8,1.2.1,1.7-.2C246.3,212.2,248,212.2,249.8,212.2Zm20,19a10.24,10.24,0,0,0,2.6-2.4c.4-.6.6-1.1.1-1.7a2.84,2.84,0,0,0-2.2-1c-.9.1-.4,1-.5,1.6C269.7,228.7,269.8,229.7,269.8,231.2Zm-11.9.4c-3.4.1-6.2,1.4-9.1,1.9C252,234.1,254.9,233.9,257.9,231.6Zm-20.3,2c-.1,2.2-1.3,4.5,0,6.7C237.5,238.1,238.9,235.8,237.6,233.6Z"/><path class="cls-1" d="M349.6,240.4c.5,2.4-.7,2.7-2.5,2.6q-3.45-.15-6.9,0c-1.1,0-1.7-.3-1.7-1.5V229.7c0-1.2.6-1.5,1.7-1.5,2.7.1,5.3.1,8,0a1.62,1.62,0,0,1,1.9,1.4c.9,3,5.2,5.2,8.2,4.1a1.76,1.76,0,0,0,1.2-2.6,7.23,7.23,0,0,0-3.8-3.7c-3.2-1.6-6.8-2.6-9.8-4.6-6.3-4.2-9.3-9.7-6.7-17.2,1.3-3.9,7.1-7.9,11.2-8,3.9-.1,7.8,0,11.4,2,.4.2,1.2.5,1.2-.2.1-1.8,1.4-1.4,2.4-1.5,2.2-.1,4.5-.1,6.7-.2,1.1-.1,1.7.2,1.7,1.5,0,3.6.1,7.1.2,10.7,0,1.1-.5,1.5-1.5,1.5-2.7,0-5.5,0-8.2.1-1.2.1-1.4-.8-1.9-1.6a6.62,6.62,0,0,0-5.6-3.9,2.6,2.6,0,0,0-3,1.8c-.3,1.3.7,2.1,1.8,2.7,4.3,2.3,8.5,4.9,12.9,7,5.5,2.6,8,9.1,6.7,15.1a12.43,12.43,0,0,1-3.1,5.6C365.4,245.6,355.9,244.2,349.6,240.4Zm18.9-3.7c3.6-.2,5.8-2.3,5.9-5.7,0-.4.3-1.1-.4-1.2-.4-.1-.7.3-.8.8a11.82,11.82,0,0,1-4.7,6.1l-.1.1v.1A.35.35,0,0,1,368.5,236.7Zm-3.7-36.2c-2.2,1-4.7,1.6-6.7,3-.6-.9.5-1.1.7-1.7s.4-1,.1-1.4-.9,0-1.3.1c-2.6.6-3.2,2.9-4.3,5.4,1.1-.7,1.8-1.1,2.5-1.5s1.2-1.6,2.4-1c-.2.4-.5.7-.8,1.2,1.2,0,2.3.1,3.4,0a5,5,0,0,0,4.3-4.4c-.1,0-.1.1-.2.1s.1.1.1.2l.1-.1C365,200.4,365,200.3,364.8,200.5Zm-15.6,15.2c.1.1.2.2.2.3a.33.33,0,0,0,0-.5c-2.1-3.7-1.8-8.6-5.1-12.1a5.51,5.51,0,0,0,.3,3.2C345.6,209.9,346.1,213.5,349.2,215.7Zm1.3-13.5c.1-.3,0-.6.2-.8a1.3,1.3,0,0,0-.2-1.9c-.7-.6-1.1.3-1.5.6-2.3,1.9-2.3,3.9-.2,6.8.2-1.7-.1-3.6,1.7-4.7.3,1.1-.5,2-.6,3.1a4.69,4.69,0,0,0,3.5,5.3c-2.8-4.1,1-7.4,1.1-11.3C352.6,200,352.2,202,350.5,202.2ZM345,218.6c.6-.6,1.1.1,1.7.2,1.7.4,3.3,1.4,5.2,1-.5-.8-1.4-.6-2-.9-2.3-1-4.6-2-5.7-4.4,1-.4,1.2.6,1.7,1,.9.7,1.7,1.8,3.6,1.9-3.2-2.6-4.2-5.8-5.3-9-.4-1.3-1.4-2.1-3.1-2.7.8,2.4,1.2,4.5,2.3,6.5.4.7,1.3,1.2.8,2.3-1.5-.9-1.8-2.6-2.6-4.1-.3-.5-.4-1.1-1.1-1-.9.1-.5.8-.5,1.3-.2,2,.8,3.4,2.1,4.8.6.6,1.6.9,1.8,1.9-.7.6-1.2-.6-1.9-.1,1.6,3.1,3.5,3.9,7.3,3.3C347.8,219.8,346,220,345,218.6Zm-3.8,19.8c.8-.2.9.6,1.3,1a7.36,7.36,0,0,0,2.7,1.9,1.65,1.65,0,0,0,1.2,0c.5-.3.1-.7-.1-1.1-.4-1.3-.9-2.6-1.3-3.9,1.1-.4.9.8,1.3,1.1.6.5.7,2.3,1.6,1.6s-.3-1.6-1-2.3c-.1-.1,0-.2,0-.6,2.7,1.1,4.1,4,7,4.4a38.38,38.38,0,0,0,8.3,0c.4-.7-.9-.9-.4-1.7.5-.1.8.2,1.1.5.5.5,1.2,1,1,1.7-.2.9-1.2.4-1.8.5a18.37,18.37,0,0,0-5.1.5c5.3,1.1,9.3,0,11.3-3.1a11.61,11.61,0,0,1-5.3-.8c-.7-.3-1.2-.2-1.1.8-.2.3-.5.1-.7,0-2.7-1.9-5.8-2.6-8.9-3.4a31,31,0,0,1-6.6-1.9,2,2,0,0,1-.5-.1c-.2.2.1.3.2.3.9,1-.3,1.6-.3,2.5-1.9-1.3-2.4-3.8-4.4-5.2-.2,2.6.4,4.9.5,7.3-.7,0-.5-1-1.2-1.1.4,1.5.6,3,1.9,4.1C342.6,240,340.8,239.4,341.2,238.4Zm20.3-4.1c5.2-2.6,5-9.8,1.8-14.6-1.6,2.3-1.7,4.9-1.2,7.6.4,2.3.4,4.6-1.1,6.6-.1.2-.6.3-.3.6S361.3,234.5,361.5,234.3ZM358,215.7c1.2-.3,1.4.8,1.8,1.5.7,1.2,1.2,2.5,1.8,3.8,1.3-3.8-1.5-7.8-6.1-8.8.4,1.2,1.8,1.6,2.2,2.7-.7.5-1.1-.2-1.5-.5-2.3-2.1-5.3-3.1-7.7-5.4.2,5.5,5.4,11.2,12.1,13.7C360.7,219.9,359.3,217.8,358,215.7Zm8.5,18.2c-1.1,1.8-3.1,2-4.9,2.6a8.44,8.44,0,0,0,10.3-5.2,19.06,19.06,0,0,0,1-3.4c.1-.5.8-1.3,0-1.6s-1.3.4-1.6,1c-.6,1.1-1.1,2.3-1.7,3.4a3.87,3.87,0,0,1-2.4,2.3,25.43,25.43,0,0,0,4.3-9.5c-2,1.4-4.6,2.2-4.9,4.4a10.59,10.59,0,0,1-5.2,7.8C363.7,235.4,365,234.3,366.5,233.9Zm-5.8-1.4c1.4-2.5.9-4.9,0-7.3-1.2-3.1-3.9-3.3-6.7-3.5a5.57,5.57,0,0,0,2.7,4.3C358.9,227.5,361,229.3,360.7,232.5Zm11.1-23.7c-3.3-1.6-6.3-3.7-10.3-2.7C364.5,209.3,368.9,210.4,371.8,208.8Zm-5.5,17.1c2.5-2.6,2.5-4.8.2-8.1C363.9,220.5,366.4,223.1,366.3,225.9Zm-24.7,4.2c1.8,1.8,3.6,2.5,5.8,1.5.5-.2,1.1-.5,1.1-1.1s-.7-.9-1.2-1C345.5,228.7,343.7,229.2,341.6,230.1Zm6.7-7.5a24.7,24.7,0,0,0,6.1,3C352.5,221.7,352.2,221.6,348.3,222.6Zm16.1-18c2.6.3,4.9,3.2,8.2,1.1A14.05,14.05,0,0,0,364.4,204.6Zm8.1-2.5c-2.3-1-5.5-.3-6.6,1.4C368.2,203,370.7,204.6,372.5,202.1Zm-6.5-.4a33.69,33.69,0,0,1,5.3-1.2c.4,0,.6-.3.7-.7a.68.68,0,0,0-.3-.5C370.1,198.4,366.5,199.8,366,201.7Zm-19.2,31.4c2.3.7,4.4,1.6,7.1,1.4C351.4,233.3,349.5,232,346.8,233.1Zm22.2-9.4c2.1-.5,1.7-1.9,1.4-3.2-.1-.3-.1-.9-.7-.8a.88.88,0,0,0-.7,1.1A7.06,7.06,0,0,1,369,223.7Zm-22.7-19.9c0-1.2.8-2.2.3-3.4,0-.1-.5-.2-.5-.1a3.43,3.43,0,0,0-.1,3.4A.77.77,0,0,1,346.3,203.8Zm3,13.6a.1.1,0,0,1-.1.1h.3a.1.1,0,0,0-.1-.1Z"/><path class="cls-1" d="M389.5,240.4c.5,2.4-.7,2.7-2.5,2.6q-3.45-.15-6.9,0c-1.1,0-1.7-.3-1.7-1.5V229.7c0-1.2.6-1.5,1.7-1.5,2.7.1,5.3.1,8,0a1.62,1.62,0,0,1,1.9,1.4c.9,3,5.2,5.2,8.2,4.1a1.76,1.76,0,0,0,1.2-2.6,7.23,7.23,0,0,0-3.8-3.7c-3.2-1.6-6.8-2.5-9.8-4.6-4.1-2.8-7.3-6.2-7.6-11.6-.3-6.1,2.9-9.9,7.8-12.3s10.2-1.6,15.2.5c1,.4,1.8,1.1,1.9-.7,0-.7.7-.6,1.2-.6l8-.3c.9,0,1.4.2,1.4,1.3,0,3.6.1,7.3.2,10.9,0,1.1-.5,1.5-1.5,1.5-2.7,0-5.5,0-8.2.1-1.1,0-1.4-.6-1.8-1.4a6.94,6.94,0,0,0-5.4-4.1c-1.4-.2-2.9.3-3.2,1.8-.3,1.2.7,2.1,1.9,2.7,4.3,2.3,8.5,4.9,12.9,7,5.4,2.6,8,9.1,6.7,15.1a9.76,9.76,0,0,1-3.3,5.7C405,244.5,397.7,245.2,389.5,240.4Zm18.9-3.7c3.6-.2,5.8-2.3,5.9-5.7,0-.4.3-1.1-.4-1.2-.4-.1-.7.3-.8.8a11.33,11.33,0,0,1-4.7,6.1l-.1.1v.1A.35.35,0,0,1,408.4,236.7Zm-3.7-36.2c-2.2,1-4.7,1.6-6.7,3-.6-.9.5-1.1.7-1.7s.4-1,.1-1.4-.9,0-1.3.1c-2.6.6-3.2,2.9-4.3,5.4,1.1-.7,1.8-1.1,2.5-1.5s1.2-1.6,2.4-1c-.2.4-.5.7-.8,1.2,1.2,0,2.3.1,3.4,0a5,5,0,0,0,4.3-4.4c-.1,0-.1.1-.2.1s.1.1.1.2l.1-.1C404.9,200.4,404.9,200.3,404.7,200.5Zm-15.6,15.2c.1.1.2.2.2.3a.33.33,0,0,0,0-.5c-2.2-3.7-1.8-8.6-5.1-12.1a5.51,5.51,0,0,0,.3,3.2C385.5,209.9,386,213.5,389.1,215.7Zm1.3-13.5c.1-.3,0-.6.2-.8a1.3,1.3,0,0,0-.2-1.9c-.7-.6-1.1.3-1.5.6-2.3,1.9-2.3,3.9-.2,6.8.2-1.7-.1-3.6,1.7-4.7.3,1.1-.5,2-.6,3.1a4.69,4.69,0,0,0,3.5,5.3c-2.8-4.1,1-7.4,1.1-11.3C392.5,200,392.1,202,390.4,202.2Zm-6.7,15.2c-.7.6-1.2-.6-1.9-.1,1.6,3.1,3.5,3.9,7.3,3.3-1.4-.7-3.2-.6-4.2-2,.6-.6,1.1.1,1.7.2,1.7.4,3.3,1.4,5.2,1-.5-.8-1.4-.6-2-.9-2.3-1-4.6-2-5.7-4.4,1-.4,1.2.6,1.7,1,.9.7,1.7,1.8,3.6,1.9-3.2-2.6-4.2-5.8-5.3-9-.4-1.3-1.4-2.1-3.1-2.7.8,2.4,1.2,4.5,2.3,6.5.4.7,1.3,1.2.8,2.3-1.5-.9-1.8-2.6-2.6-4.1-.3-.5-.4-1.1-1.1-1-.9.1-.5.8-.5,1.3-.2,2,.8,3.4,2.1,4.8C382.5,216.1,383.5,216.3,383.7,217.4Zm-2.6,21c.8-.2.9.6,1.3,1a7.36,7.36,0,0,0,2.7,1.9,1.65,1.65,0,0,0,1.2,0c.5-.3.1-.7-.1-1.1-.4-1.3-.9-2.6-1.3-3.9,1.1-.4.9.8,1.3,1.1.6.5.7,2.3,1.6,1.6s-.3-1.6-1-2.3c-.1-.1,0-.2,0-.6,2.7,1.1,4.1,4,7,4.4a38.38,38.38,0,0,0,8.3,0c.4-.7-.9-.9-.4-1.7.5-.1.8.2,1.1.5.5.5,1.2,1,1,1.7-.2.9-1.2.4-1.8.5a18.37,18.37,0,0,0-5.1.5c5.3,1.1,9.3,0,11.3-3.1a11.61,11.61,0,0,1-5.3-.8c-.7-.3-1.2-.2-1.1.8-.2.3-.5.1-.7,0-2.7-1.9-5.8-2.6-8.9-3.4a31,31,0,0,1-6.6-1.9,2,2,0,0,1-.5-.1c-.2.2.1.3.2.3.9,1-.3,1.6-.3,2.5-1.9-1.3-2.4-3.8-4.4-5.2-.2,2.6.4,4.9.5,7.3-.7,0-.5-1-1.2-1.1.4,1.5.6,3,1.9,4.1C382.5,240,380.8,239.4,381.1,238.4Zm20.3-4.1c5.2-2.6,5-9.8,1.8-14.6-1.6,2.3-1.7,4.9-1.2,7.6.4,2.3.4,4.6-1.1,6.6-.1.2-.6.3-.3.6A.6.6,0,0,0,401.4,234.3Zm-3.8-19.5c-.7.5-1.1-.2-1.5-.5-2.3-2.1-5.3-3.1-7.7-5.4.2,5.5,5.4,11.2,12.1,13.7.2-2.7-1.3-4.7-2.5-6.9,1.2-.3,1.4.8,1.8,1.5.7,1.2,1.2,2.5,1.8,3.8,1.3-3.8-1.5-7.8-6.1-8.8C395.7,213.3,397.2,213.7,397.6,214.8Zm8.9,19c-1.1,1.8-3.1,2.1-5,2.7,4,1.4,8.9-1.1,10.3-5.3a19.06,19.06,0,0,0,1-3.4c.1-.5.8-1.3,0-1.6s-1.3.4-1.6,1c-.6,1.1-1.1,2.3-1.7,3.4-.4.8-.8,1.7-2,1.9a26.51,26.51,0,0,0,4-9.2c-2.2,1.4-4.7,2.2-5,4.2a10.85,10.85,0,0,1-5.1,7.8C403.6,235.5,404.9,234.3,406.5,233.8Zm-12.6-12.1a5.92,5.92,0,0,0,2.7,4.3c2.3,1.6,4.4,3.3,4.1,6.5,1.4-2.3,1-4.6.2-6.8C399.8,222.5,397.1,221.7,393.9,221.7Zm17.8-12.9c-3.3-1.6-6.3-3.8-10.3-2.7C404.3,209.2,408.7,210.4,411.7,208.8Zm-5.5,17.1c2.5-2.6,2.5-4.8.2-8.1C403.9,220.5,406.3,223.1,406.2,225.9Zm-24.6,4.2c1.6,1.5,3.2,2.4,5.3,1.6.7-.3,1.7-.4,1.5-1.3-.1-.7-1-1.1-1.8-1.2A8.39,8.39,0,0,0,381.6,230.1Zm22.7-25.5c2.6.3,4.8,3.1,8.3,1A15.06,15.06,0,0,0,404.3,204.6Zm-16.1,18a21.44,21.44,0,0,0,6.1,2.9C392.4,221.7,392.1,221.6,388.2,222.6Zm17.6-19.7c0,.2.1.4.1.6h4.7c.9,0,1.6-.5,1.6-1.3s-1-.7-1.5-.6A9.47,9.47,0,0,0,405.8,202.9Zm.1-1.2a29.11,29.11,0,0,1,5.1-1.2.88.88,0,0,0,.9-.8c0-.1-.1-.4-.3-.4C410,198.4,406.4,199.8,405.9,201.7Zm-19,31.4c2.2.6,4.2,1.5,6.6,1.4C390.6,232.6,389,232.3,386.9,233.1Zm22.1-9.5c1.8-.4,1.7-1.5,1.5-2.7-.1-.5-.1-1.3-.8-1.2s-.7.7-.7,1.3Zm-22.9-19.9c.2-1.1,1-2.1.4-3.3,0-.1-.5-.1-.5-.1A3,3,0,0,0,386.1,203.7Zm3.3,13.8-.1-.1c-.2.1-.2.2,0,.2a.1.1,0,0,0,.1-.1Z"/><path class="cls-2" d="M118.5,291c3.2-10.1,5.4-20.2,7.7-30.3.4-1.7-.2-4,1.2-4.9,1.2-.8,3.3-.2,4.9-.2,4.2.1,8.4-.4,12.6.3,10.5,1.8,15.6,10.6,12,20.6-3.2,8.5-9.9,12.5-18.4,13.9C131.9,291.5,125.3,290.6,118.5,291Zm13.1-2.7h0a12.19,12.19,0,0,0,2.7,0c9.6-.5,14.7-4.8,16.7-14a23.48,23.48,0,0,0,.5-3.7c.4-6.4-3.3-10.9-9.5-12a28.1,28.1,0,0,0-5-.4c-4.2,0-4.7.4-5.7,4.4-1.9,7.6-3.7,15.2-5.5,22.8-.6,2.3-.3,2.7,2.1,2.9C129.1,288.4,130.4,288.3,131.6,288.3Z"/><path class="cls-2" d="M233.6,272.2c1.6-1.4,2.9-2.5,4.2-3.6a7.82,7.82,0,0,1,6.1-1.6c1,.2,1.3.6.7,1.5a6.47,6.47,0,0,0-.9,1.6c-.5,1-1,1.5-2.2.9a4.79,4.79,0,0,0-5.3,1,12.06,12.06,0,0,0-4.3,6.7c-.8,3.5-1.7,7-2.2,10.7-.1,1.1-.5,1.5-1.7,1.4-1.4-.1-2.9,0-4.6,0a135.44,135.44,0,0,0,4.6-17.1,50.67,50.67,0,0,0,.9-5.4c.1-.9.4-1.3,1.3-1.1a2.13,2.13,0,0,0,.8,0c3.5.1,3.5.1,2.7,3.6A5.31,5.31,0,0,0,233.6,272.2Z"/><path class="cls-2" d="M245.8,290.8a136.89,136.89,0,0,0,5.2-20.5c.6-3.3.6-3.2,4-3.3h.8c1.5-.2,1.8.2,1.3,1.7a128.36,128.36,0,0,0-4.8,19.2,7.85,7.85,0,0,0-.2,1.4c0,1.3-.5,1.7-1.8,1.5S247.4,290.8,245.8,290.8Z"/><path class="cls-2" d="M173.6,267a125.89,125.89,0,0,0-4.4,16.5c-.4,2-.8,4-1.1,6-.1,1.2-.6,1.5-1.7,1.4-1.5-.1-2.9,0-4.6,0a134,134,0,0,0,4.3-15.9c.5-2.2.8-4.4,1.2-6.6.1-.7.1-1.4,1.2-1.3C170.1,267,171.8,267,173.6,267Z"/><path class="cls-2" d="M171.8,261.1a2.21,2.21,0,0,1-2.2-2.2c-.1-1.6,1.9-3.2,3.8-3.3,1.5,0,2.6.7,2.7,2.3S174,261.1,171.8,261.1Z"/><path class="cls-2" d="M255.9,261.1a2.22,2.22,0,0,1-2.3-2.2c-.1-1.5,1.8-3.3,3.7-3.3,1.5,0,2.6.6,2.7,2.3C260.2,259.4,258.1,261.1,255.9,261.1Z"/><path class="cls-1" d="M222.6,183.9c.1-.4.1-.8.5-1C223.3,183.4,222.9,183.6,222.6,183.9Z"/><path class="cls-2" d="M168.1,58.9c-.1.1-.1.2-.2.3-.2-.3,0-.3.2-.3Z"/><path class="cls-3" d="M56.3,220.7c.1-4.4,2.7-7.6,5.6-10.5.9-.9,2-1.6,2.5-2.9-2,.9-3.2,2.7-4.8,4-.1-.1-.2-.3-.4-.4a22.63,22.63,0,0,0,2.6-7.7c.4-2.8,3.5-4.8,6.4-4.4.9.1.7.7.6,1.2a8.18,8.18,0,0,1-2.4,4.8c-.6.6-1.5,1-1.8,2.2,1.4,0,2.9-.9,4.3.8-1.6.2-2.2,2.7-4.3,1.4-.3-.2-.6.2-.6.4-.3,3.2-3.2,4.8-4.7,7.2a36.81,36.81,0,0,1-3,3.9Z"/><path class="cls-3" d="M62.2,222.4c-.3-.5-.6-.2-.8.1-2.9,3.5-4.6,7.6-2.3,12.6.3.6.8,1.2.4,2-2.6-1.5-4.8-6.8-4.3-10.1a11.2,11.2,0,0,1,2.3-5.5c1.3-1.6,2.7-3.2,4.1-4.8a23.35,23.35,0,0,0,3.2-5.4c1.7,3.9,0,6.6-1.9,9.3-.4.5-1.2.9-.7,1.8Z"/><path class="cls-3" d="M32.6,211.6c2.7,7,3.1,13.9-.4,20.7-.5-.4-.3-1.3-.6-2-.7-1.8-1.1-3.6-1.8-5.3C27.6,219.8,29.3,215.6,32.6,211.6Z"/><path class="cls-3" d="M53.2,220.2a63.63,63.63,0,0,1-1.5-8.7,9.16,9.16,0,0,1,1.5-6.2,12.78,12.78,0,0,0,2.2-5.8,12.8,12.8,0,0,1,1,11.1C55.2,213.6,53.6,216.4,53.2,220.2Z"/><path class="cls-3" d="M2,239.7c0-2.2,1.3-3.4,2.4-4.7,1.6-1.8,3.3-3.6,4.8-5.5a19.62,19.62,0,0,0,3.7-8.3c2.2,3.8.9,8.1-1.4,11.2C9.1,235.7,5.4,237.3,2,239.7Z"/><path class="cls-3" d="M9.7,204.2c-1.9-.4-3.4-3.8-2.6-5.3.5-.8,1-.2,1.4,0,1.3.9,1.7,2.3,1.2,4.7.7.2.9-.4,1.3-.7a2.28,2.28,0,0,1,1.7-.8c-2.8,5.4-3.1,11.1-1.9,17a14.66,14.66,0,0,1-3.7-7.2A8.88,8.88,0,0,1,9.7,204.2Z"/><path class="cls-3" d="M24,223.3c4.5.5,8,8.3,7.8,14.6C27.8,233.6,24.7,229.1,24,223.3Z"/><path class="cls-3" d="M34,232.5c-.1-4.6,2.8-9,6.7-10.3,1.6-.5,1.9,0,1.5,1.4a8.18,8.18,0,0,1-2.3,4.4,43.73,43.73,0,0,1-5.9,4.5Z"/><path class="cls-3" d="M29.9,203.1c3,5.2-1,9.2-2,13.9C25.6,213.5,26.7,206.6,29.9,203.1Z"/><path class="cls-3" d="M64.9,225.4c2.3,5.1-1.5,10,.1,14.9-2.9-.7-3.4-3.5-3-6C62.4,231.2,64.4,228.7,64.9,225.4Z"/><path class="cls-3" d="M58.8,237.9a23.44,23.44,0,0,1-8.9-1.1,3.61,3.61,0,0,1-2.7-3.8C51.9,232.6,55.2,235.1,58.8,237.9Z"/><path class="cls-3" d="M2.5,199.7c5.5,2.6,6,3.5,3.1,10.6-1.2-3.6-2.6-7-3.1-10.6Z"/><path class="cls-3" d="M41.3,203.1c3.8,4.1,1.4,7.5-.8,10.9C37.2,210.2,40.8,206.8,41.3,203.1Z"/><path class="cls-3" d="M57,211.4a14.56,14.56,0,0,0,.6-9,3.73,3.73,0,0,1,2.6-3.4c1-.2.7.6.7,1.1a17.46,17.46,0,0,1-3.5,11.7C57.3,211.6,57.1,211.5,57,211.4Z"/><path class="cls-3" d="M19.1,202.7c-.6,1.1.7,2.8-1.5,3-.1,0-.3.4-.3.5.9,2.2-1.1,2.5-2.2,3.3a10,10,0,0,0-3.8,4.1C11.6,208.7,13.4,206.2,19.1,202.7Z"/><path class="cls-3" d="M15.5,234.6c.9.2,1.3-.7,2.2-.8a2.78,2.78,0,0,1-1.4,3.3,14.66,14.66,0,0,1-5.4,1.6c-2.1.3-4.3.6-6.7,1a3.24,3.24,0,0,1,2.4-1.4c3.1-1,6.2-1.9,8.9-3.7Z"/><path class="cls-3" d="M50.7,209.5c-1.6-3.3-2.3-6.2-.6-9.3.6-1,1-1.2,1.8-.3,1.2,1.5,1.9,3,.6,4.9A9.11,9.11,0,0,0,50.7,209.5Z"/><path class="cls-3" d="M20.5,215.7c5,.9,6.6,4.9,8.2,9C24.4,223,22.1,219.7,20.5,215.7Z"/><path class="cls-3" d="M48.6,207.7c-4.8-1.2-6.1-3.1-5.3-7.3.2-1.2.5-1.2,1.4-.5C47.1,201.8,47.3,204.8,48.6,207.7Z"/><path class="cls-3" d="M35.9,222.9c0-3.8-2.1-8,1.6-11.3C40.1,215.7,37.9,219.3,35.9,222.9Z"/><path class="cls-3" d="M25.5,213.2c-2.3-4.2-1.5-10.8,1.7-14.5C27.9,203.8,25.1,208.3,25.5,213.2Z"/><path class="cls-3" d="M6.5,216.1c4,2.4,5.4,7.5,2.9,10.8C8.6,223.3,6,220.2,6.5,216.1Z"/><path class="cls-3" d="M59.8,239.3c-3.3.8-6.5,1.6-9.9.7a8.65,8.65,0,0,1-1.7-.7c-.5-.2-1.1-.6-.9-1.2s.8-.6,1.3-.5C52.2,238.6,56.1,238.3,59.8,239.3Z"/><path class="cls-3" d="M54.4,230.7c-2.5-2.6-4.5-4.7-4.4-7.9,0-.7.1-1.7.6-1.9.7-.2,1.3.6,1.9,1.1a2.72,2.72,0,0,1,.6,1.7C53.5,225.9,53.9,228,54.4,230.7Z"/><path class="cls-3" d="M38.6,230.7a10.61,10.61,0,0,1-5.1,8.8C33.4,235.6,35.2,232.9,38.6,230.7Z"/><path class="cls-3" d="M38.2,221.1a9.44,9.44,0,0,1,2.8-4.7,49.24,49.24,0,0,1,3.9-3.3,8.85,8.85,0,0,1-6.7,8Z"/><path class="cls-3" d="M62.2,222.4c1.3-.4,1.5-1.8,2.4-2.5.3-.3.7-.6,1.1-.2a1.1,1.1,0,0,1,0,.8c-1.9,3.3-3.4,6.8-6.7,9.2a12.92,12.92,0,0,1,2.7-6.1c.2-.3.6-.6.5-1.2Z"/><path class="cls-3" d="M20.4,198.5c-1.4,1.6-2.4,3-3.6,4.2s-2.9,1.8-4.1,3.3C12.5,202.9,16.7,198.8,20.4,198.5Z"/><path class="cls-3" d="M23.9,214.8c-4.1-1-5.6-3-5.1-7.2,2.6,1.9,4.6,4,5.1,7.2Z"/><path class="cls-3" d="M11.8,221.1c-.3-3,.4-5.4.8-7.8a2.41,2.41,0,0,1,1.2-1.6,1.72,1.72,0,0,1,1.8-.2c.7.4.2,1.1,0,1.7C14.8,215.9,12.7,217.9,11.8,221.1Z"/><path class="cls-3" d="M23.4,210.2c-2.5-4.5-2.8-8-1-10.3C24.6,203.2,23,206.8,23.4,210.2Z"/><path class="cls-3" d="M7.8,240.1c2.3-.4,4.6-.9,6.9-1.3a3.17,3.17,0,0,1,1.6.4,2,2,0,0,1,1.3,2c-.2,1.1-1.3.6-1.9.5C13,241.3,10.6,240.1,7.8,240.1Z"/><path class="cls-3" d="M68.6,241.3a5.08,5.08,0,0,1-.2-7.2c.2-.2.4-.7.8-.6s.6.6.6,1c0,1.4.3,2.9-.5,4.3A5.31,5.31,0,0,0,68.6,241.3Z"/><path class="cls-3" d="M4.3,233.4c1.2-2.4.7-4.9.6-7.6A3.63,3.63,0,0,1,7.3,229C7.6,231.3,5.5,232.1,4.3,233.4Z"/><path class="cls-3" d="M15.5,234.6c-2.3-.3-4,1.5-6.1,1.9l-.3-.3c1-1,2-2.1,3-3.1,1.1-1.2,2.4-.4,3.5-.6.6.8-.8,1.3-.1,2.1Z"/><path class="cls-3" d="M8.2,226.3c-1.6-1.4-3.8-2.6-3-5.7C7.1,222.2,7.6,224.2,8.2,226.3Z"/><path class="cls-3" d="M50.4,229.4c2.2.9,4,1.6,4.3,4.3C52.8,232.5,50.8,232,50.4,229.4Z"/><path class="cls-3" d="M48.1,202.5a2.38,2.38,0,0,1-1.2-1.7c-.3-.9.7-1.1,1.1-1.5.2-.1.4-.5.7-.2.5.5.3,1,.1,1.5A10.66,10.66,0,0,0,48.1,202.5Z"/><path class="cls-3" d="M12.5,198.6c.7-.2.9.1.8.6a2.85,2.85,0,0,1-2,2.1c-.6.2-.7-.7-.7-1C10.6,199,11.9,199.1,12.5,198.6Z"/><path class="cls-3" d="M3.4,207c.2.7.1,1.2-.4,1a3.18,3.18,0,0,1-1.5-2.5c-.1-.4-.1-1,.5-.9C3.4,204.8,3.1,206.2,3.4,207Z"/><path class="cls-3" d="M5.8,214c-1.5-.6-1.6-1.7-1.1-3.3.5,1.2,1,2.1,1.4,3.1C6,213.9,5.9,213.9,5.8,214Z"/><path class="cls-3" d="M1.4,235.6v-3C2.5,233.5,2.3,234.4,1.4,235.6Z"/><path class="cls-3" d="M13.4,201.6c-.2.1-.4.3-.6.4,0-.2-.2-.4-.1-.5a1.61,1.61,0,0,1,.7-.4Z"/><path class="cls-3" d="M56.6,212.8c0,.1-.1.2-.1.3-.2-.1-.3-.2-.5-.2.1-.1.2-.2.3-.2S56.5,212.7,56.6,212.8Z"/><path class="cls-3" d="M57.4,211.8c-.2.2-.2.7-.6.4s0-.6.2-.8C57.1,211.5,57.3,211.6,57.4,211.8Z"/><path class="cls-3" d="M58.8,211.9a.66.66,0,0,1,.3-.9c.1.1.2.3.4.4a.79.79,0,0,1-.7.5Z"/><path class="cls-3" d="M38.2,221.1c0,.2-.1.3-.1.5l-.2-.2q.15,0,.3-.3Z"/><path class="cls-3" d="M6.1,213.8c.1.2.1.4.2.6h0a1.76,1.76,0,0,1-.5-.4C5.9,213.9,6,213.9,6.1,213.8Z"/><path class="cls-3" d="M6.3,214.4c.1.1.2.1.3.2H6.5c-.2-.1-.2-.1-.2-.2Z"/><path class="cls-3" d="M58.8,211.9c-.1.1-.1.2-.2.3a.35.35,0,0,0-.1-.2.37.37,0,0,1,.3-.1Z"/><path class="cls-3" d="M56.3,220.7l-.2.2c0-.1.1-.1.2-.2Z"/><path class="cls-3" d="M3.8,234.2a.52.52,0,0,1-.4.2c.1-.1.1-.3.2-.4Z"/><path class="cls-3" d="M2.5,199.7c-.1,0-.1-.1-.2-.1h.1a.1.1,0,0,1,.1.1Z"/><path class="cls-3" d="M34,232.5c0,.1,0,.1-.1.2h-.1l.2-.2Z"/><path class="cls-3" d="M3.6,234c.1-.2.2-.5.5-.2a1.87,1.87,0,0,0-.3.4Z"/><path class="cls-3" d="M23.9,214.8h.2c-.1.1-.1,0-.2,0Z"/><path class="cls-3" d="M9.4,236.5c-.2,0-.3.1-.5.1.1-.1.1-.3.2-.4Z"/><path class="cls-3" d="M140.2,221.3c2.4,4.6,2.8,8.8,1,13.1a9.6,9.6,0,0,1-8.4,6C138.5,235.3,139,228.5,140.2,221.3Z"/><path class="cls-3" d="M164.1,229c-3.6-2.6-7.6-3.1-11.9-3-2.6.1-5.1.1-7.5,1.6a5.78,5.78,0,0,1,3.7-3.9c6.4-2.1,10.2-1.9,14.7,3.6.4.5.8.9,1.2,1.4A1.24,1.24,0,0,0,164.1,229Z"/><path class="cls-3" d="M171.8,230.8c-.6,1.3,1.4,1.6,1.2,2.7-4.4-1.7-7.3-5-7.4-8.6-.2-4.1,1.3-6.9,4.6-8.5-.4,1.9-.8,3.6-1.1,5.4-.4,2.8-.4,5.6,1.3,8,.4.5.5,1.5,1.4,1Z"/><path class="cls-3" d="M176.4,239.4c-4,0-7.8,1.2-11.8,1.7a11.85,11.85,0,0,1-4.2,0,3.63,3.63,0,0,1-1.7-.7,2.4,2.4,0,0,1-.7-3c.4-.9,1.3,0,1.9.3,3.1,1.3,6.2.2,9.3.2A19.31,19.31,0,0,1,176.4,239.4Z"/><path class="cls-3" d="M152.9,202.2c1,.4,1.2-.6,1.7-1,1.1-.7,1.9-1.8,3.5-1.9a4.18,4.18,0,0,1-1.3,3.4l-10.2,10.5-.2-.2c.6-3,2.6-5.3,4.5-7.6.9-.9,2.4-1.6,2-3.2Z"/><path class="cls-3" d="M153.6,211.4c.9,3.5,1.2,6.7,3.1,9.7l-6.8.3C151.3,218.2,151.5,214.8,153.6,211.4Z"/><path class="cls-3" d="M171.5,200.1c-3.6,5-9.3,5.1-14.6,6.2A27.31,27.31,0,0,1,171.5,200.1Z"/><path class="cls-3" d="M174.6,237.4c-3-.8-6-1.2-9-1.8a5.86,5.86,0,0,1-3.9-2.6c-.6-.9-.2-1.3.7-1.2C167.2,232.3,171.4,233.8,174.6,237.4Z"/><path class="cls-3" d="M153,202.2c-3.7,3.4-6.8,7.2-8.3,12.2.4-5.4,1.5-10.5,6.5-13.6.7-.4,1.3-1.5,2.1-.9,1.1.7-.4,1.5-.3,2.3Z"/><path class="cls-3" d="M177.7,235c-.6,1,1,1.4.6,2.5-2.5-2.1-4-4.9-6.5-6.8h0c-.4-1.3-1.4-2.4-1.8-3.7-.8-3-.7-3.7,2.2-5.8a29.94,29.94,0,0,1,0,3c-.3,4.5,2.2,7.6,4.8,10.8.3.2.5.3.7,0Z"/><path class="cls-3" d="M144.6,203.1c1.3-.9,1.5-2.8,3.1-3.5.5-.2.9-1,1.4-.4s.9,1.2.3,1.9c-1.6,1.8-3.5,3.2-4,5.7-.5,2.2-1.1,4.4-1.8,7-.6-3.9.2-7.4,1-10.7Z"/><path class="cls-3" d="M155.2,209.6c3.3-1.8,11.7,1.2,14.2,4.9-2.2.5-3.8-.6-5.4-1.7C160.7,210.5,159.1,209.9,155.2,209.6Z"/><path class="cls-3" d="M140.6,237.8c-.6,1,0,.9.6.6a6.37,6.37,0,0,1,4.1-.5,4,4,0,0,1,2,1.1c.4.5.9,1,.6,1.7s-1,.2-1.5.2a18.94,18.94,0,0,0-7.5.1c-.4.1-.6-.2-1-.6a3.33,3.33,0,0,0,2.4-2.8C140.4,237.6,140.5,237.7,140.6,237.8Z"/><path class="cls-3" d="M162.2,224.5c-3.9-2.8-3.8-6.9-4-11.2,1.2.3,2.2.6,2.2,1.7,0,3.3,1.2,6.3,1.8,9.5Z"/><path class="cls-3" d="M146.6,214c1.4.1,1.6-1.4,2.5-2,.7-.5,1.3-1.2,2-1.7.1.1.2.3.3.4a53.2,53.2,0,0,0-6,11.3c-.2.4-.2,1-.8,1.2h0c-.4-2.7.8-5,1.6-7.4.2-.6,1-1,.4-1.8Z"/><path class="cls-3" d="M168,237c-2.7.2-4.9.7-7,.2a3.71,3.71,0,0,1-2.9-2.5c-.1-.3-.2-.8.3-.8a4,4,0,0,1,3.6.8C163.5,236.1,165.5,236.3,168,237Z"/><path class="cls-3" d="M140.3,237.5a6.71,6.71,0,0,1,4.6-3.9,3,3,0,0,1,3.9,2.1,19.16,19.16,0,0,0-8.2,2.1Z"/><path class="cls-3" d="M156.6,204.8c2.3-3.5,5.9-4.9,9.8-5.9.4-.1.9-.4,1.1.1s-.1.8-.5,1C163.3,201,160.1,203,156.6,204.8Z"/><path class="cls-3" d="M177.8,235c-.8-1.9-2.5-3.3-3.3-5.2a7,7,0,0,1-.8-4c2.6,3.1,6.4,10,6.5,11.9-1.1-.7-1.2-2.3-2.4-2.7Z"/><path class="cls-3" d="M164.8,215.6c1.5,1.3,2,2.6.8,4.2a5.71,5.71,0,0,0-.9,3.2v3.5C162.9,223.3,163,219.6,164.8,215.6Z"/><path class="cls-3" d="M170.3,208.3c-3.7,1.3-7.2,1.6-10.7,0C161.2,207.6,168.9,207.5,170.3,208.3Z"/><path class="cls-3" d="M171.6,204.4c-3,3.6-6.8,2.1-10.1,2.4C164.7,205.6,167.7,204.1,171.6,204.4Z"/><path class="cls-3" d="M155,212.3c1.6.3,2.2,1.1,2.3,2.8a46.19,46.19,0,0,0,1.1,6.1h0c-2.1-1.2-2.5-3.3-3-5.4a10.48,10.48,0,0,1-.4-3.5Z"/><path class="cls-3" d="M138.2,225.4a18.07,18.07,0,0,1-3.6,11.2C135.4,232.8,137,229.2,138.2,225.4Z"/><path class="cls-3" d="M144.6,203c-1.6,1-1.3,2.8-2.1,4.5v-6.7c0-.5-.2-1.4.5-1.4a4,4,0,0,1,2.1.7c.6.4-.1.8-.2,1.2-.2.7-.9,1.1-.3,1.7Z"/><path class="cls-3" d="M141.4,215.9a17,17,0,0,1,1.4,8.7C140.9,222,141.1,219.3,141.4,215.9Z"/><path class="cls-3" d="M162.4,221c-.9-2.1-.8-4.4-1.1-6.6C163.6,216.4,163.7,216.9,162.4,221Z"/><path class="cls-3" d="M141,206.1a10.77,10.77,0,0,1-1-5.6c0-.4.2-.7.7-.6a1,1,0,0,1,1,1.1v5C141.4,206,141.2,206.1,141,206.1Z"/><path class="cls-3" d="M142.9,232.8c.6-2.9.7-3,2.7-3.9A6.13,6.13,0,0,1,142.9,232.8Z"/><path class="cls-3" d="M132.9,236.8a33.87,33.87,0,0,0-.4-3.5C134.4,233.9,134.5,234.5,132.9,236.8Z"/><path class="cls-3" d="M149.6,219.4a5.5,5.5,0,0,1-2.4,2.6l-.3-.3c.5-1.1,1.1-2.4,2.7-2.3Z"/><path class="cls-3" d="M146.7,213.2c0,.3-.1.5-.1.8h0c-.5-.3-.5-.6-.2-1C146.5,213.1,146.6,213.1,146.7,213.2Z"/><path class="cls-3" d="M147.1,222a.52.52,0,0,1-.8.2c.2-.2.3-.4.5-.5Z"/><path class="cls-3" d="M144.5,223.2c0,.1-.1.3-.1.4-.2-.2.1-.3.1-.4Z"/><path class="cls-3" d="M151.9,209.5c.2-.1.5-.1.7-.2h0c0,.3-.1.4-.4.5Z"/><path class="cls-3" d="M152.6,209.4c.1-.1.1-.2.2-.2v.1c-.2,0-.2,0-.2.1Z"/><path class="cls-3" d="M152.2,209.8l-.4.4-.3-.3c.2-.1.3-.3.5-.4C152,209.6,152.1,209.7,152.2,209.8Z"/><path class="cls-3" d="M151.7,210.3l-.4.4c-.1-.1-.2-.3-.3-.4a1.38,1.38,0,0,1,.4-.3Z"/><path class="cls-3" d="M155.1,212.3a.37.37,0,0,1-.3-.1V212l.3.3Z"/><path class="cls-3" d="M149.6,219.5c0-.1.1-.2.1-.3.3.3,0,.2-.1.3Z"/><path class="cls-3" d="M158.4,221.1c.1.1.2.1.3.2-.3.2-.3,0-.3-.2Z"/><path class="cls-3" d="M162.2,224.5h.3v.2a.77.77,0,0,1-.3-.2Z"/><path class="cls-3" d="M164.4,228.6a.76.76,0,0,1,.2.4c-.2,0-.3-.1-.5-.1Z"/><path class="cls-3" d="M134.4,237.3l-.1.1c0-.1-.1-.1-.1-.2a.1.1,0,0,1,.1-.1C134.3,237.2,134.3,237.2,134.4,237.3Z"/><path class="cls-3" d="M122.4,199.7c-1.4,2.8-3.2,4-6,3.8-3.8-.2-7.6-1-11.5-.1C110.1,199.2,116.2,200,122.4,199.7Z"/><path class="cls-3" d="M112.5,240.6c-3.4-.3-6.2-1.4-7.8-4.7-.8-1.6-2.5-2.3-4.2-3a7.4,7.4,0,0,1,9.7,2.7c.9,1.5,1.7,3.2,2.5,4.8C112.6,240.5,112.5,240.5,112.5,240.6Z"/><path class="cls-3" d="M91.2,208.5c0-1.2-1.1-1.1-1.8-1.6-2.3-1.4-4.9-2.4-6.6-4.6-.3-.4-.6-.9-.9-1.4s-.7-1-.3-1.5.9,0,1.4.1c5.5,1.5,8.8,5.5,11.6,10.1l-.4.4c-.3-.1-.7-.2-1-.3h0a.37.37,0,0,0-.4-.4h0c-.3-.5-.8-1.1-1.6-.8Z"/><path class="cls-3" d="M102.2,207.4a8.83,8.83,0,0,1,8-1.2c3.2.8,6.3,1.7,9.7,1.3.9-.1,2.8,2,2.9,2.9s-.6.7-1,.8c-3.1.5-6.2.7-8.3-2.3-1.3-1.8-3.2-2.1-5.2-2.1S104.2,207.2,102.2,207.4Z"/><path class="cls-3" d="M93.3,233.7A18.07,18.07,0,0,0,88.5,222a6.71,6.71,0,0,1-2-4.5c4.7,2.2,9.8,9.2,7.6,15.1-.2.4-.2,1-.8,1.1Z"/><path class="cls-3" d="M122.9,203.3c-1.1,3.1-4.1,4.3-7.6,3.4-1.8-.4-3.6-.9-5.5-1.4a10.39,10.39,0,0,0-5.8-.1C110.2,201.9,116.8,206.2,122.9,203.3Z"/><path class="cls-3" d="M97.1,211.8c-.9-4.5-3.7-8.5-1.2-13.2C99.1,202.7,100.6,206.8,97.1,211.8Z"/><path class="cls-3" d="M123.6,229.2c-.8,2.2.2,4.6-2.2,5.8-2.7,1.3-5.2.9-7.8-.6C117.7,234.2,119.3,229.6,123.6,229.2Z"/><path class="cls-3" d="M102.1,222.4c-1.6.3-2.1,1.9-3.3,2.8a10,10,0,0,1,9.7-8.9c.4,0,.9-.1,1.1.4a1.09,1.09,0,0,1-.4,1.3,12.54,12.54,0,0,1-2.4,1.6c-1.6.8-3.5,1.2-4.7,2.8Z"/><path class="cls-3" d="M94.9,233.3c1.6-5.4-.4-9.7-3.9-13.6a6.65,6.65,0,0,1,5.8,4.1c1.4,3.5.7,6.8-1.6,9.8Z"/><path class="cls-3" d="M92.8,237.1c3.1-2.9,5.7-2.4,10.9,1.9-1.3,1.6-2.7,1.9-4.4.4S95.3,237.3,92.8,237.1Z"/><path class="cls-3" d="M90,238.8c4.1-1.3,7.4-.5,10.3,2.5C96.4,242.3,93.1,241.8,90,238.8Z"/><path class="cls-3" d="M95.3,220.4a58.41,58.41,0,0,1-5.3-3.3,6.59,6.59,0,0,1-2.2-8.3c1,5.2,5.1,7.8,7.9,11.3A1.38,1.38,0,0,0,95.3,220.4Z"/><path class="cls-3" d="M121.8,238.8l-.1.1c-.3.9,1.7,1.8.6,2.3a4,4,0,0,1-4.3-.5c-.8-.6-1-1.6-2-1.9h0c-.1-1.2-1.4-1.5-1.8-2.4l.3-.3c2.3.8,4.7,1.5,7,2.3h0v.5a.37.37,0,0,1,.3-.1Z"/><path class="cls-3" d="M100.8,209.9c.5,3.4.8,6.6-1.5,9.5C97.6,216.4,98.2,212.8,100.8,209.9Z"/><path class="cls-3" d="M87.8,225.3c-2.2-2.1-3.8-4.5-3.4-7.7.6-.3.8.2.9.5a22.78,22.78,0,0,0,4.3,7c.2.3,1.7,1.3-.2,1.4h0a1.74,1.74,0,0,0-1.6-1.2Z"/><path class="cls-3" d="M97.7,232.3c.8-2.4,1.3-5,3.6-6.6,1.3,3.9.6,5.3-3.3,6.9Z"/><path class="cls-3" d="M82.8,204.7c1.5-.1,2.8,1.1,4.2,2.1,1,.7.2,1.4-.5,1.6-1.5.5-4.3-1.1-4.8-2.6C81.3,204.7,81.4,204.5,82.8,204.7Z"/><path class="cls-3" d="M82.4,231.6a3.14,3.14,0,0,1,3.8,1.1,3.87,3.87,0,0,1-.1,5.3A10.74,10.74,0,0,0,82.4,231.6Z"/><path class="cls-3" d="M104.5,201.7c.1-.5.9-.6.9-1.2h0a17,17,0,0,1,11.1-1.7,26.24,26.24,0,0,0-11.7,3.2C104.7,201.9,104.7,201.8,104.5,201.7Z"/><path class="cls-3" d="M102.1,223.2c.1-.3.5-.5,0-.8h0c1.1.5,1.7-.5,2.5-.9a9.94,9.94,0,0,1,5.1-1c-2.1,2.3-4.8,2.8-7.6,2.7Z"/><path class="cls-3" d="M92.4,204.9a18.06,18.06,0,0,1-4.7-5.9C91.3,199.5,92.1,201.9,92.4,204.9Z"/><path class="cls-3" d="M90.3,228.8a5.06,5.06,0,0,1-.6,3.5c-.4.6-.9,1.6-1.6,1.4s-1-1.1-1.3-1.8c-.4-1,.7-1,1.1-1.4A16.59,16.59,0,0,1,90.3,228.8Z"/><path class="cls-3" d="M89.5,226.6c0,1.4-.3,2.6-2.1,2.1h0c.5-1-.5-1.1-.9-1.5-.7-.6-1.4-1.1-1.5-2.1,1-.8,1.9.8,2.9.2h0a1.2,1.2,0,0,0,1.6,1.3Z"/><path class="cls-3" d="M93.3,212.3c.1.7,1,.8,1,1.5q-4.2-.3-5.1-3.6c1.4-.3,2.2,1.1,3.3,1.3h0c0,.5.3.7.8.8Z"/><path class="cls-3" d="M99.2,233.9c2.9,0,4.6,1.7,5.9,4.4C102.3,237.7,101.3,235.1,99.2,233.9Z"/><path class="cls-3" d="M113.3,233.2c2-.8,3.2-2.3,4.5-3.8.3-.4.9-1,1.4-.5s0,1.1-.4,1.6C117.3,231.9,115.8,233.4,113.3,233.2Z"/><path class="cls-3" d="M92.4,211.5c.3-1.4-1.1-1.3-1.8-1.9a6.71,6.71,0,0,0-1.5-.6.69.69,0,0,1-.3-.9c.2-.5.6-.1.8,0,.5.2.9.7,1.5.5h0c.4.6.7,1.5,1.7.8h0v.5h.5c-.3,1.3,1.2,1.4,1.5,2.3l-.3.3c-.4,0-.8-.8-1.2-.1h0c.3-1,0-1.2-.9-.9Z"/><path class="cls-3" d="M101.3,201.4c-.9.1-.8,1.2-1.7,1.6,0-1.3-2-2-.8-3.5.2-.3.5-.8,1-.6.8.6,1.7,1.2,1.5,2.5Z"/><path class="cls-3" d="M121.5,238.4c-.1-.8-1.2-.9-1.4-1.8a3.41,3.41,0,0,1,3.1-.3c.7.3.4.9.3,1.4-.2.8-.5,1.4-1.6,1.1h0c0-.3-.2-.5-.4-.4Z"/><path class="cls-3" d="M82.4,239.6a6,6,0,0,1,1.3-4.6c1.9,1.2,1.5,1.6-1.3,4.6Z"/><path class="cls-3" d="M93.9,205a5.1,5.1,0,0,1,0-6Z"/><path class="cls-3" d="M106.2,241.8c-1-.1-2.2,0-2.3-1.2-.1-.7,1-.9,1.6-1a1.69,1.69,0,0,1,1.8,1.6C107.5,242.1,106.6,241.6,106.2,241.8Z"/><path class="cls-3" d="M105.5,200.5c-1.2-.4-1.7.6-2.4,1.2a16.18,16.18,0,0,0-1.9,1.8c-.8-.9,1-1.4.1-2.2h0c1.1.6,1.3-.6,1.9-.9s1.2-1.1,2.1-1.2c.4.5-.5,1,.2,1.3Z"/><path class="cls-3" d="M89.1,237.9c.5-1.9.9-3.7,1.5-6A5.27,5.27,0,0,1,89.1,237.9Z"/><path class="cls-3" d="M87.4,228.7a1.7,1.7,0,0,1-1.6,2c-.9.2-.9-.9-1-1.5-.2-1.1.2-1.4,1.3-.9.4.1.9.3,1.3.4Z"/><path class="cls-3" d="M112.7,231.9c1.1-.9.3-2.7,2.1-2.7.4,0,1.1.6.9,1A3,3,0,0,1,112.7,231.9Z"/><path class="cls-3" d="M92.1,241.6c-2.1.1-3.3-.9-4.8-1.4C89.4,238.9,90.4,240.3,92.1,241.6Z"/><path class="cls-3" d="M105.8,223.8c1.4-.5,2.2-.8,3-1.1s.8.3.9.7c.2.6-.2.7-.7.7C108.2,224,107.3,224,105.8,223.8Z"/><path class="cls-3" d="M87.2,216.4a4.74,4.74,0,0,1-2-2.6c-.2-.4-.3-.8.3-1a.63.63,0,0,1,.9.5c.3.9.7,1.8,1.1,2.7A1.38,1.38,0,0,0,87.2,216.4Z"/><path class="cls-3" d="M91.3,228.9c1.3,2.4,1.4,3.1.5,5.1-.1-1.1-.1-1.9-.2-2.6S91.4,229.9,91.3,228.9Z"/><path class="cls-3" d="M91.6,214.4c1.7-.2,2.7,1.1,4,1.8-1.7,0-3.2-.1-4-1.8Z"/><path class="cls-3" d="M116,238.8c-.7.5.1.8.2,1.2s1.1.9.3,1.3-.9-.6-1.1-1-.5-1.1-.8-1.7c.1-.1.1-.2.2-.2.4,0,.5,1,1.2.4Z"/><path class="cls-3" d="M88.9,234.5c-.1,1.3,0,2.2-1,2.9C87.9,236.3,87.5,235.4,88.9,234.5Z"/><path class="cls-3" d="M93.3,233.7c0,.2-.1.4-.1.6l-.2-.2a1.38,1.38,0,0,0,.3-.4Z"/><path class="cls-3" d="M82.3,239.6a4.33,4.33,0,0,1-.1.5c-.1-.1-.2-.1-.2-.2a.27.27,0,0,1,.3-.3Z"/><path class="cls-3" d="M94.6,214c.1.1.2.2.2.3s-.1.3-.3.3-.2-.2-.2-.3S94.6,214.1,94.6,214Z"/><path class="cls-3" d="M94.6,209.7c.2.2.5.5.2.8a5.92,5.92,0,0,0-.6-.4C94.4,210,94.5,209.8,94.6,209.7Z"/><path class="cls-3" d="M95.2,233.6c-.2.1-.3.6-.5.3s0-.5.2-.6Z"/><path class="cls-3" d="M95.1,212.6c.2.1.3.3,0,.4a1.44,1.44,0,0,0-.2-.3A.35.35,0,0,0,95.1,212.6Z"/><path class="cls-3" d="M91.6,214.4c-.1-.1-.2-.1-.3-.2.3-.1.4-.1.3.2Z"/><path class="cls-3" d="M104.8,202h-.5a.52.52,0,0,0,.2-.4C104.7,201.8,104.7,201.9,104.8,202Z"/><path class="cls-3" d="M112.7,240.4c.1.1.2.2.2.3s-.3.1-.5,0C112.5,240.5,112.6,240.5,112.7,240.4Z"/><path class="cls-3" d="M94.8,212.1a2.19,2.19,0,0,0,.3.5c-.1,0-.1.1-.2.1s-.3-.3-.5-.4A.52.52,0,0,0,94.8,212.1Z"/><path class="cls-3" d="M95.6,220.1c0,.2.1.3.1.5-.1-.1-.3-.1-.4-.2Z"/><path class="cls-3" d="M102.1,223.2l-.1.1Z"/><path class="cls-3" d="M98,232.6a1.44,1.44,0,0,1-.3.2c-.3-.1-.1-.3,0-.5Z"/><path class="cls-3" d="M114.3,237.9l.4.4c-.1.1-.1.2-.2.2a2.19,2.19,0,0,0-.3-.5Z"/><path class="cls-3" d="M113.9,237.5l.4.4-.1.1c-.3,0-.4-.2-.3-.5Z"/><path class="cls-3" d="M113.9,237.5c-.1-.1-.2-.1-.2-.2h.1c0,.1,0,.2.1.2Z"/><path class="cls-3" d="M87.7,216.6c-.2-.1-.3-.2-.5-.3.1-.1.2-.3.3-.4.1.2.2.3.3.5A.35.35,0,0,1,87.7,216.6Z"/><path class="cls-3" d="M87.8,216.5c.2,0,.3.1.2.3-.1-.1-.3-.1-.4-.2A.35.35,0,0,0,87.8,216.5Z"/><path class="cls-3" d="M114.2,236.3a.52.52,0,0,1-.2-.4c.2,0,.3.1.5.1Q114.35,236.3,114.2,236.3Z"/><path class="cls-3" d="M330.9,199.7c-1.3,2.6-3,4-5.7,3.8-2.4-.2-4.9-.3-7.3-.4a16.32,16.32,0,0,0-4.4.3C318.5,199.2,324.6,200,330.9,199.7Z"/><path class="cls-3" d="M320.9,240.6c-3.4-.3-6.2-1.4-7.8-4.7a5.69,5.69,0,0,0-4.4-2.9c4-1.8,7.9-.7,10,2.6.9,1.5,1.7,3.2,2.5,4.8C321.1,240.5,321,240.5,320.9,240.6Z"/><path class="cls-3" d="M299.6,208.5c0-1.2-1.1-1.1-1.8-1.6-2.3-1.4-4.9-2.4-6.6-4.6-.3-.4-.6-.9-.9-1.4s-.7-1-.3-1.5.9,0,1.4.1c5.5,1.5,8.8,5.5,11.6,10.1l-.4.4c-.3-.1-.7-.2-1-.3h0a.37.37,0,0,0-.4-.4h0c-.3-.5-.7-1.1-1.6-.8Z"/><path class="cls-3" d="M310.7,207.4a8.83,8.83,0,0,1,8-1.2c3.2.8,6.3,1.7,9.7,1.3.9-.1,2.8,2,2.9,2.9s-.6.7-1,.8c-3.1.5-6.2.7-8.3-2.3-1.3-1.8-3.2-2.1-5.2-2.1C314.6,206.9,312.7,207.2,310.7,207.4Z"/><path class="cls-3" d="M301.7,233.7a18.07,18.07,0,0,0-4.8-11.7,6.92,6.92,0,0,1-2-4.5c4.8,2.2,9.9,9.3,7.6,15.1-.2.4-.2,1-.8,1.1Z"/><path class="cls-3" d="M312.5,205.1c6-3.1,12.7,1,18.9-2.2a4.69,4.69,0,0,1-4.5,4c-2.2.3-4.2-.4-6.2-.9C318.1,205.3,315.4,204.4,312.5,205.1Z"/><path class="cls-3" d="M305.6,211.7c-1.1-4.4-3.6-8.4-1.4-13C307.6,202.8,309.2,206.1,305.6,211.7Z"/><path class="cls-3" d="M322.1,234.4c4-.2,5.7-4.9,9.6-5.2C331.8,235.6,328.3,237.5,322.1,234.4Z"/><path class="cls-3" d="M310.5,222.4c-1.6.3-2.1,1.9-3.3,2.8a10,10,0,0,1,9.7-8.9c.4,0,.9-.1,1.1.4a1.09,1.09,0,0,1-.4,1.3,12.54,12.54,0,0,1-2.4,1.6c-1.6.8-3.5,1.2-4.7,2.8Z"/><path class="cls-3" d="M303.3,233.3c1.6-5.4-.4-9.7-3.9-13.6a6.65,6.65,0,0,1,5.8,4.1c1.4,3.5.7,6.8-1.6,9.8Z"/><path class="cls-3" d="M312.2,239c-1.3,1.6-2.6,2-4.4.4s-4-2.1-6.5-2.3C304.3,234.2,306.9,234.7,312.2,239Z"/><path class="cls-3" d="M298.4,238.8a9.31,9.31,0,0,1,10.3,2.5A10.16,10.16,0,0,1,298.4,238.8Z"/><path class="cls-3" d="M303.7,220.4a58.41,58.41,0,0,1-5.3-3.3,6.59,6.59,0,0,1-2.2-8.3c1,5.2,5.1,7.8,7.9,11.3A1.38,1.38,0,0,0,303.7,220.4Z"/><path class="cls-3" d="M330.3,238.8l-.1.1c-.3.9,1.7,1.8.6,2.3a4,4,0,0,1-4.3-.5c-.8-.6-1-1.6-2-1.9h0c-.1-1.2-1.4-1.5-1.8-2.4l.3-.3c2.3.8,4.7,1.5,7,2.3h0v.5c0-.1.2-.1.3-.1Z"/><path class="cls-3" d="M309.2,209.9c.6,3.4.9,6.6-1.5,9.4C306.1,216.4,306.7,212.7,309.2,209.9Z"/><path class="cls-3" d="M296.3,225.3c-2.2-2.1-3.8-4.5-3.4-7.7.6-.3.8.2.9.5a22.78,22.78,0,0,0,4.3,7c.2.3,1.7,1.3-.2,1.4h0a1.86,1.86,0,0,0-1.6-1.2Z"/><path class="cls-3" d="M306.1,232.3c.8-2.4,1.3-5,3.6-6.6,1.3,3.9.6,5.3-3.3,6.9Z"/><path class="cls-3" d="M294.2,208.4c-1.7-.3-3.3-.7-4.1-2.5-.3-.8-.5-1.4.9-1.3,1.6.2,2.7,1.1,4,1.8.5.3,1.1.5.8,1.2A1.41,1.41,0,0,1,294.2,208.4Z"/><path class="cls-3" d="M290.7,231.6c1.6-.2,3.1-.1,4,1.3a4.09,4.09,0,0,1-.2,5.2A10,10,0,0,0,290.7,231.6Z"/><path class="cls-3" d="M313,201.7c.1-.5.9-.6.9-1.2h0a17,17,0,0,1,11.1-1.7,26.24,26.24,0,0,0-11.7,3.2Z"/><path class="cls-3" d="M310.5,223.2c.1-.3.5-.5,0-.8h0c1.1.5,1.7-.5,2.5-.9a9.94,9.94,0,0,1,5.1-1c-2.1,2.3-4.7,2.8-7.6,2.7Z"/><path class="cls-3" d="M296.1,198.9c3.6.7,4.5,2.9,4.8,5.9A17.34,17.34,0,0,1,296.1,198.9Z"/><path class="cls-3" d="M298.7,228.8a4.65,4.65,0,0,1-.6,3.5c-.4.6-.9,1.6-1.6,1.4-.5-.1-1-1.1-1.3-1.8-.4-1,.7-1,1.1-1.4C297,229.9,297.9,229.4,298.7,228.8Z"/><path class="cls-3" d="M297.9,226.6c0,1.4-.3,2.6-2.1,2.1h0c.5-1-.5-1.1-.9-1.5-.7-.6-1.4-1.1-1.5-2.1,1-.8,1.9.8,2.9.2h0c.1,1,.6,1.5,1.6,1.3Z"/><path class="cls-3" d="M301.7,212.3c.1.7,1,.8,1,1.5q-4.2-.3-5.1-3.6c1.4-.3,2.2,1.1,3.3,1.3h0c0,.5.4.7.8.8Z"/><path class="cls-3" d="M313.4,238.4c-2.6-.8-3.7-3.2-5.9-4.3C310.2,233.8,312.1,235.1,313.4,238.4Z"/><path class="cls-3" d="M321.1,233.3c2.6-.9,3.8-2.5,5.2-4,.3-.3.8-1,1.4-.4s0,1-.4,1.4C325.7,231.9,324.2,233.5,321.1,233.3Z"/><path class="cls-3" d="M301.7,209.8c-.3,1.3,1.2,1.4,1.5,2.3l-.3.3c-.4,0-.8-.8-1.2-.1h0c.3-.9,0-1.1-.9-.9h0c.3-1.4-1.1-1.3-1.8-1.9a6.71,6.71,0,0,0-1.5-.6.69.69,0,0,1-.3-.9c.2-.5.6-.1.8,0,.5.2.9.7,1.5.5h0c.4.6.7,1.5,1.7.8h0v.5Z"/><path class="cls-3" d="M309.7,201.4c-.9.1-.8,1.2-1.7,1.6,0-1.2-2-2-.8-3.5.2-.3.5-.8,1-.6.9.6,1.7,1.2,1.5,2.5Z"/><path class="cls-3" d="M329.9,238.4c-.1-.8-1.2-.9-1.4-1.8a3.41,3.41,0,0,1,3.1-.3c.7.3.4.9.3,1.4-.2.8-.5,1.4-1.6,1.1h0c0-.3-.1-.5-.4-.4Z"/><path class="cls-3" d="M302.6,205.3a5.46,5.46,0,0,1-1.2-5c.1-.5.1-1.3.8-1.2s.4.7.4,1.2Z"/><path class="cls-3" d="M290.8,239.6a5.81,5.81,0,0,1,1.4-4.6c1.8,1.2,1.5,1.6-1.4,4.6Z"/><path class="cls-3" d="M315.8,241.7c-.5,0-1.1.1-1.6.1a1.81,1.81,0,0,1-1.9-1c-.2-.5.3-.7.7-.9a1.61,1.61,0,0,1,2.3.2A1.94,1.94,0,0,1,315.8,241.7Z"/><path class="cls-3" d="M309.7,201.4c1.1.6,1.3-.6,1.9-.9s1.2-1.1,2.1-1.2c.4.4-.5.9.2,1.2h0c-1.2-.4-1.7.6-2.4,1.2a16.18,16.18,0,0,0-1.9,1.8c-.8-.8,1-1.3.1-2.1Z"/><path class="cls-3" d="M297.5,238c.5-2,.9-3.8,1.5-5.9A5,5,0,0,1,297.5,238Z"/><path class="cls-3" d="M295.8,228.7a1.7,1.7,0,0,1-1.6,2c-.9.2-.9-.9-1-1.5-.2-1.1.2-1.4,1.3-.9.4.1.9.3,1.3.4Z"/><path class="cls-3" d="M321.1,232.2c.9-1.3.6-2.7,1.9-3.1.2-.1,1,.6,1,.9C323.8,231.3,322.8,231.7,321.1,232.2Z"/><path class="cls-3" d="M295.6,240.4c2.3-1.5,3.2.1,4.4,1C298.4,241.9,297.3,240.7,295.6,240.4Z"/><path class="cls-3" d="M314.6,223.6a19.92,19.92,0,0,0,2.3-.8c.4-.1.8-.5,1.1-.1a1.93,1.93,0,0,1,.3,1c-.1.6-.7.3-1,.3A4.39,4.39,0,0,1,314.6,223.6Z"/><path class="cls-3" d="M295.6,216.4a4.74,4.74,0,0,1-2-2.6c-.2-.4-.3-.8.3-1a.63.63,0,0,1,.9.5c.3.9.7,1.8,1.1,2.7A1.38,1.38,0,0,0,295.6,216.4Z"/><path class="cls-3" d="M300,214.4c1.7-.2,2.7,1.1,4,1.8-1.6,0-3.2-.1-4-1.8Z"/><path class="cls-3" d="M299.8,229.2c.6,1.5,1.6,2.9.5,4.9C300.1,232.2,300,230.7,299.8,229.2Z"/><path class="cls-3" d="M323.2,238.3c.5,0,.6,1.1,1.3.4h0c-.7.5.1.8.2,1.2s1.1.9.3,1.3-.9-.6-1.1-1-.5-1.1-.8-1.7C323,238.5,323.1,238.4,323.2,238.3Z"/><path class="cls-3" d="M297.3,234.6c-.1,1.1,0,1.9-1.1,2.9C296.5,236.3,295.8,235.3,297.3,234.6Z"/><path class="cls-3" d="M290.8,239.6a4.33,4.33,0,0,1-.1.5c-.1-.1-.2-.1-.2-.2s0-.3.3-.3Z"/><path class="cls-3" d="M301.7,233.7c0,.2-.1.4-.1.6l-.2-.2a1.38,1.38,0,0,0,.3-.4Z"/><path class="cls-3" d="M303.3,214.3c0,.1-.1.2-.1.3l-.3-.3s.1-.2.2-.2S303.2,214.2,303.3,214.3Z"/><path class="cls-3" d="M303.1,209.7c.2.2.5.5.2.8a5.93,5.93,0,0,0-.6-.4Z"/><path class="cls-3" d="M303.6,233.6c-.2.1-.3.6-.5.3s0-.5.2-.6Z"/><path class="cls-3" d="M303.6,212.6c.2.1.3.3,0,.4a1.44,1.44,0,0,0-.2-.3A.35.35,0,0,1,303.6,212.6Z"/><path class="cls-3" d="M300.1,214.4c-.1-.1-.2-.1-.3-.2.2-.1.3-.1.3.2Z"/><path class="cls-3" d="M322.7,237.9l.4.4c-.1.1-.1.2-.2.2a2.19,2.19,0,0,0-.3-.5Z"/><path class="cls-3" d="M321.1,240.4c.1.1.2.2.2.3s-.3.1-.5,0C321,240.5,321.1,240.5,321.1,240.4Z"/><path class="cls-3" d="M303.2,212.1a2.19,2.19,0,0,0,.3.5c-.1,0-.1.1-.2.1s-.3-.3-.5-.4A.52.52,0,0,0,303.2,212.1Z"/><path class="cls-3" d="M313.3,202h-.5a.52.52,0,0,0,.2-.4A1.38,1.38,0,0,0,313.3,202Z"/><path class="cls-3" d="M304.1,220.1c0,.2.1.3.1.5-.1-.1-.3-.1-.4-.2S303.9,220.2,304.1,220.1Z"/><path class="cls-3" d="M310.5,223.2v0Z"/><path class="cls-3" d="M306.4,232.6a1.44,1.44,0,0,1-.3.2c-.3-.1-.1-.3,0-.5Z"/><path class="cls-3" d="M322.6,238c-.3-.1-.4-.3-.3-.5h0l.4.4Z"/><path class="cls-3" d="M322.3,237.5c-.1-.1-.2-.1-.2-.2h.1a.31.31,0,0,1,.1.2Z"/><path class="cls-3" d="M295.9,216c.1.2.2.3.3.5-.1,0-.1.1-.2.1s-.3-.2-.5-.3A1.38,1.38,0,0,0,295.9,216Z"/><path class="cls-3" d="M322.6,236.3a.52.52,0,0,1-.2-.4c.2,0,.3.1.5.1Q322.75,236.3,322.6,236.3Z"/><path class="cls-3" d="M296.3,216.5c.2,0,.3.1.2.3-.1-.1-.3-.1-.4-.2C296.2,216.6,296.2,216.5,296.3,216.5Z"/><path class="cls-3" d="M208,209c.8.5.9-.4,1.2-.7,2.3-2.6,4.6-5.2,7.4-8.3-.9,4.3-2.1,7.8-4.5,10.7s-4.9,5.2-4.9,9.2a10.69,10.69,0,0,1,.5-9.4c.2-.4.9-.9.3-1.5Z"/><path class="cls-3" d="M209.6,224c.1-.9,1.1-1.4,1.1-2.5-1.2-.1-1.2,1.5-2.3,1.6-1.4-5.5,2.3-8.4,5.8-11.8.1,2-.6,3.6-.9,5.2s-1.7,2.9-2.3,4.6c2.1-1,2.7-3.2,3.6-5.4,1.2,3.8-.4,6.5-4.7,8.5C209.8,224.2,209.7,224.1,209.6,224Z"/><path class="cls-3" d="M218.1,234.2c-1.8,2.6-4.6,3.6-7.5,4a63.05,63.05,0,0,1-7.6.1c4.6-3.7,9.8-4,15.1-4.1Z"/><path class="cls-3" d="M217.7,206.7a7.75,7.75,0,0,1,5.4-2,4.94,4.94,0,0,1,4.9,3.9c.2.7-.1.9-.7.9a4.59,4.59,0,0,1-3-.5C221.7,207.2,221,207.1,217.7,206.7Z"/><path class="cls-3" d="M208.3,232c1.4-3.6,3.3-6.9,6.6-9.2.9,4.6-1.1,7.4-6.4,9.3Z"/><path class="cls-3" d="M203.3,215.7c-2-1.6-2.2-4-2.2-6.1a25.92,25.92,0,0,1,2-9.3,3.57,3.57,0,0,1,1.2,3.8,39.23,39.23,0,0,0-1.5,5.9,15.09,15.09,0,0,0,.6,5.6A.1.1,0,0,1,203.3,215.7Z"/><path class="cls-3" d="M198.8,204.3c-.1,1.7,1.6,3,1.2,4.8-2.8-2.7-7.6-3.1-8.9-7.7a11.59,11.59,0,0,1,6.6,2.4c.3.3.4,1,1.1.5Z"/><path class="cls-3" d="M221.4,208.3c2,1,3.6,2,5.3,2.7,1.3.6,1.4,2.3,1.7,3.6.2.8-.5.6-1,.7a4.76,4.76,0,0,1-4.8-3A12.63,12.63,0,0,1,221.4,208.3Z"/><path class="cls-3" d="M204.4,234.8c2.3-3.9,1.2-8.1.9-12.3l-.3-2.1c4.3,2.9,4.1,9.9-.2,14.7A1.38,1.38,0,0,1,204.4,234.8Z"/><path class="cls-3" d="M204.7,215c-2.2-4-.4-11.3,3.4-14.6a2.57,2.57,0,0,1,.1,2.9,24.42,24.42,0,0,0-2.6,5.7A31.09,31.09,0,0,0,204.7,215Z"/><path class="cls-3" d="M191.8,209.1a10.08,10.08,0,0,1-1.5,4.8c-.7,1.5-1.9,1.9-3.5,1.8-.9-.1-1.3-.3-1.1-1.3.2-1.3.5-2.4,1.9-3A35.53,35.53,0,0,0,191.8,209.1Z"/><path class="cls-3" d="M202.1,239.2c2.3,0,4.1-.1,5.8,0a14.56,14.56,0,0,0,7.6-1.9,7.31,7.31,0,0,1,1.9-.7,1,1,0,0,1,.9.3c.3.4-.2.6-.4.8C214.7,240.6,206.4,241.6,202.1,239.2Z"/><path class="cls-3" d="M222.3,199.3c-.6,4.1-3.7,5.6-6.9,7.6C216.5,203.1,218.1,200.2,222.3,199.3Z"/><path class="cls-3" d="M202.6,224.1c-.7-2-2.6-3.4-3-5.6,4.5.4,5.5,1.9,5,8.3-.9-.8-.8-2.4-2-2.7Z"/><path class="cls-3" d="M202.5,224.1c-.5,1.1.6,1.7.8,2.5a14,14,0,0,1,0,8.1c-1-1.7.5-3.8-1.6-4.7h0a24.9,24.9,0,0,0-2.1-7.4c1.5-.4,1.6,1.8,2.9,1.5Z"/><path class="cls-3" d="M195.1,207.1c-2.9.4-4.8,1.9-6.9,3.1-.7.4-1.8,1.3-2.4.5s.2-2,.9-2.8C188.4,206.4,192.3,205.9,195.1,207.1Z"/><path class="cls-3" d="M208,208.9c-.9.1-.9,1.3-1.9,1.7a15.09,15.09,0,0,1,6.4-10,5.33,5.33,0,0,1-1.7,4.4c-.9,1.3-2.4,2.2-2.8,3.9Z"/><path class="cls-3" d="M207.1,234.6c1.5-1.9,3.7-2.6,5.8-3.5.8-.3,2.1-.1,2.3.8s-.9,1.3-1.7,1.5c-2,.4-4.2.8-6.4,1.2Z"/><path class="cls-3" d="M228,199.3c-1.1,3-2.1,3.8-4.4,3.9-1.6,0-1.5-.6-.9-1.7C223.9,199.3,225.7,199,228,199.3Z"/><path class="cls-3" d="M192.7,205.5c-2.6.1-4.9.8-6.9-1.2C189.1,202.2,190.4,202.4,192.7,205.5Z"/><path class="cls-3" d="M198.8,204.4c-.6-1.9-2.3-2.5-4-3-1.2-.4-2-.8-2.2-2.4,2.4.6,4.6,1.2,6,3.4.5.6,1.1,1.2.2,2Z"/><path class="cls-3" d="M201,204.6c-.8-1.4-1.5-2.4-2.1-3.5a1.14,1.14,0,0,1,.4-1.6c.6-.5,1-.1,1.4.3C202.3,201.1,201.5,202.6,201,204.6Z"/><path class="cls-3" d="M200.4,233.3c0,1.7.2,3.5-1.7,4.6h0c-.1-1.4.3-2.9-.7-4.2a1,1,0,0,1,.4-1.5c.8-.5.8.5,1.2.7s.4.8.8.4Z"/><path class="cls-3" d="M200.4,233.3c0-1.4-.5-2.8-.2-4.2.8-.1.8.9,1.5.8h0c0,1.8.9,3.6-.2,5.4-.4-.6.2-1.8-1.1-2Z"/><path class="cls-3" d="M209.4,241.5c2.4-.2,4.9-.3,7-1.7.9-.6,1.2.3,1.5.9.3.9-.5.8-1,.8A26.91,26.91,0,0,1,209.4,241.5Z"/><path class="cls-3" d="M196.4,233.9c2.2,2,1.9,3.7-1,6.1C195.7,238,196.6,236.2,196.4,233.9Z"/><path class="cls-3" d="M189.7,202c-1.4.3-2.9,1.1-3.8-.8-.4-.7-.3-1.2.7-1.1C188,200.3,189.1,200.7,189.7,202Z"/><path class="cls-3" d="M225.1,203.9c1.4-.1,1.8-2,3.3-.9a.85.85,0,0,1,.1,1.3C227.4,205.1,226.4,204.7,225.1,203.9Z"/><path class="cls-3" d="M202.1,217.5a1,1,0,0,1-1,.2,2.58,2.58,0,0,1-1.5-2c-.1-.3.2-.5.5-.5.9.1,1.2.8,1.6,1.4A7.93,7.93,0,0,0,202.1,217.5Z"/><path class="cls-3" d="M200.7,214.1a3.89,3.89,0,0,1-1.3-2.8c1.2.5,1.4,1.6,1.5,2.7C200.8,214,200.8,214.1,200.7,214.1Z"/><path class="cls-3" d="M204.7,235.1a4.73,4.73,0,0,1-2.2,2h0c.2-1.1,1.3-1.5,1.9-2.3Z"/><path class="cls-3" d="M200.9,214c.3.1.4.3.2.6l-.4-.4C200.8,214.1,200.8,214,200.9,214Z"/><path class="cls-3" d="M209.9,224.3c-.2.1-.3.2-.5.3-.2-.3-.2-.5.2-.6Z"/><path class="cls-3" d="M200.9,238.4c-.1.1-.1.2-.2.3-.2-.4,0-.3.2-.3Z"/><path class="cls-3" d="M200.9,238.4c0-.1.1-.2.1-.3.4.3-.1.2-.1.3Z"/><path class="cls-3" d="M198.8,237.9c-.1.1-.2.2-.3.2v-.2a.19.19,0,0,1,.3,0Z"/><path class="cls-3" d="M207.2,234.6c-.1.1-.1.2-.2.3l-.2-.2c.1,0,.2-.1.4-.1Z"/><path class="cls-3" d="M208.5,232.1c-.1.1-.1.2-.2.3l-.1-.1c.1-.1.1-.2.2-.3C208.3,232,208.5,232.1,208.5,232.1Z"/><path class="cls-3" d="M218.1,234.2v-.3h.2c-.1.1-.1.2-.2.3Z"/><path class="cls-3" d="M202.1,237.5c-.1.1-.1.2-.2.3-.2-.3.1-.2.2-.3Z"/><path class="cls-3" d="M202.5,237.1a.37.37,0,0,1-.4.4h0c0-.3.1-.4.4-.4Z"/><path class="cls-3" d="M203.5,215.5c0,.2.2.4.1.4s-.3-.1-.3-.2S203.4,215.6,203.5,215.5Z"/><path class="cls-3" d="M253.4,229.5l-6.9,3.3c-2.3,1.1-4.1,2.8-6.2,4.3a20.3,20.3,0,0,1,6.1-8.8c1.7-1.4,3.6-2.7,5.3-4.1a17,17,0,0,0,5.2-5.7,13.72,13.72,0,0,1-2.8,10.2h0a.71.71,0,0,0-.7.8Z"/><path class="cls-3" d="M258,206.4a25.77,25.77,0,0,0-4.8,7.9c-.2.6-.5,1.2-.7,1.8-1.1-3.8-.3-10.9,1.7-13.6,1.6-2.1,3.3-4,6.3-3.7h0a5.2,5.2,0,0,0-1,3.1c.1,1.8-1.1,3-1.5,4.5Z"/><path class="cls-3" d="M248.7,204.4a7.94,7.94,0,0,0-2.3-2.7,1.76,1.76,0,0,1-.2-2.5c.7-1,1.4,0,1.9.4,1.6,1.1,1.7,2.9,1.9,4.7v.2c.2.8-2.3-.7-1,1.1a7,7,0,0,1,1.3,2.4,17,17,0,0,1,.5,2.3c-3.6-3.1-7.4-5.1-11.1-7.4-.4-.2-.7-.7-1-1s-.8-.9-.5-1.5,1-.3,1.5-.3a8.49,8.49,0,0,1,5.9,2.2A9.81,9.81,0,0,0,248.7,204.4Z"/><path class="cls-3" d="M257.9,236.2c1.8.5,3.6.8,5.3,1.4a22.21,22.21,0,0,0,12,.6c2.3-.5,4.1.5,4.2,2.2,0,.4.4,1.1-.7,1.1a48.87,48.87,0,0,0-5.4.3C267.2,242.7,262.4,239.8,257.9,236.2Z"/><path class="cls-3" d="M258.8,240.9c-.4,1.6-1.5.8-2.3.6-2.6-.6-4.6-2.6-7-3.6-1.9-.8-3.7-1.9-6-1.7,4.6-2.6,8.5-2,11.9,1.7.8.8,1.3,2,2.6,2.2h0c-.1.6.3.8.8.8Z"/><path class="cls-3" d="M260.8,234.5c7.1.5,13.4-.5,17-7.5,1.4,2.9,1.2,4.6-1.5,6.2-4.2,2.5-8.7,3.6-13.5,2C262.2,235,261.5,235.2,260.8,234.5Z"/><path class="cls-3" d="M244.2,217.8c.6-.5-.1-.8-.2-1.2-.2-.6-1.4-1.1-.5-1.8s1.9-1.7,3.3-.5c2.9,2.5,4.7,7.1,1,10.6a9.33,9.33,0,0,0-2.4-6.5c-.3-.4-.6-1.1-1.2-.6Z"/><path class="cls-3" d="M239.3,241.1c2-4,4.6-4.9,8.5-3.1a10.7,10.7,0,0,1,3.7,2.2c.4.4.8,1,.4,1.5-.5.7-1.1.1-1.4-.2-3.6-3.5-7.3-2.5-11-.2Z"/><path class="cls-3" d="M278.8,233.7c-1.7,4.4-8.7,5.5-16.3,2.6C268.3,237.6,273.5,235.8,278.8,233.7Z"/><path class="cls-3" d="M238.4,205.3a3.3,3.3,0,0,1,4,0c1.6,1.1,3.3,2.1,4.9,3.2.6.4,1.2,1,1.8,1.5C244.7,210.1,241.4,207.9,238.4,205.3Z"/><path class="cls-3" d="M256.6,215.3c-1.5,3.2-2.2,6.6-5.9,8.1C251.1,219.8,253.6,216.1,256.6,215.3Z"/><path class="cls-3" d="M244.1,217.8c.8,1.4,1.7,2.7,2.4,4.1a5.2,5.2,0,0,1,.1,3.3c-.6-1.7-1.1-3.3-2.6-4.3-2.4-1.5-3-3.7-2.7-6.4,1.5.6,1.4,2.7,2.8,3.3Z"/><path class="cls-3" d="M261.8,233.5c1.7-.2,3.4-.5,5.2-.7a8.5,8.5,0,0,0,6.9-4.8c.2-.5.4-1.6,1.3-1.1s.9,1.4.1,2.3c-2.5,3-5.9,4.1-9.5,4.5-1.3.1-2.6,0-4,0Z"/><path class="cls-3" d="M251.7,200.6c.8-.1,1.1-1,1.8-1.3.4-.2.8-.7,1.3-.2a1,1,0,0,1-.1,1.5c-1.6,1.4-2.2,3.3-3,5.3-1.4-2-.4-3.7,0-5.3Z"/><path class="cls-3" d="M258,240.1c.3-1.5-1.7-1.7-1.7-2.9h0c2,.3,3.2,1.8,4.9,2.6a39.86,39.86,0,0,1,3.6,2.1c-1.9,0-3.2.2-4.5-.5-.4-.2-.8-1-1.6-.4h0c.4-.9.1-1.2-.7-.9Z"/><path class="cls-3" d="M244.3,228.8a35.09,35.09,0,0,0-.8-4.2,6.43,6.43,0,0,0-2-3.3c1.9-.5,2.7.7,3.3,1.8C245.8,224.9,245.6,226.8,244.3,228.8Z"/><path class="cls-3" d="M240.6,233.1c1-2.7.6-5.4.4-8.2,2.8,1.2,2.6,4.4-.2,8.5C240.8,233.3,240.7,233.2,240.6,233.1Z"/><path class="cls-3" d="M246.8,213.2c1.7-.6,3.1-.4,4,.7,1.2,1.4.3,2.9-.1,4.8A13.52,13.52,0,0,0,246.8,213.2Z"/><path class="cls-3" d="M254.2,228.7c.5.7.8,0,1.2-.2s1-1.2,1.5-.5,0,1.5-.6,2a10.94,10.94,0,0,1-5.7,2.1c.8-1.2,2.8-.8,2.8-2.6h0c.8.3,1.1,0,.8-.8Z"/><path class="cls-3" d="M249.8,212.2c-1.8,0-3.5,0-5.1,1-.5.3-1.3,1.1-1.7.2-.3-.6.2-1.4.9-1.9C245.2,210.6,248.3,210.9,249.8,212.2Z"/><path class="cls-3" d="M269.8,231.2v-3.5c0-.6-.4-1.4.5-1.6a2.84,2.84,0,0,1,2.2,1c.5.6.3,1.1-.1,1.7A10.24,10.24,0,0,1,269.8,231.2Z"/><path class="cls-3" d="M257.9,231.6c-3,2.3-6,2.4-9.1,1.9C251.8,233,254.5,231.7,257.9,231.6Z"/><path class="cls-3" d="M257.8,207.9c0-.5.8-.9.2-1.5h0c1.4,0,1.4-1.3,2-2.1.4-.6.8-1.5,1.5-1s.2,1.3-.1,1.9a8.64,8.64,0,0,1-3.3,3Z"/><path class="cls-3" d="M237.6,233.6c1.3,2.2-.1,4.4,0,6.7C236.3,238.1,237.5,235.9,237.6,233.6Z"/><path class="cls-3" d="M254.2,214.8a3,3,0,0,1,1.5-2.4c.3-.2.8-.8,1.2-.3a1.08,1.08,0,0,1-.2,1.5c-.7.6-1.4,1.4-2.5,1.2Z"/><path class="cls-3" d="M251.7,200.5c-.7-.9-.7.9-1.3.3a1,1,0,0,1-.3-1.1c.2-.5.5-1.2,1.1-1.1,1,.3-.1,1.4.5,1.9Z"/><path class="cls-3" d="M239.6,241.3l-.2.2c-.2-.1-.1-.3,0-.5C239.4,241.2,239.5,241.3,239.6,241.3Z"/><path class="cls-3" d="M258.1,208.2c-.1.1-.2.1-.4.2,0-.2.1-.3.1-.5Z"/><path class="cls-3" d="M260.6,198.9v-.3h.2c-.1.1-.2.2-.2.3Z"/><path class="cls-3" d="M240.8,233.4c-.1.1-.2.1-.4.2a4.33,4.33,0,0,0,.1-.5Q240.8,233.25,240.8,233.4Z"/><path class="cls-3" d="M254.2,214.8a.35.35,0,0,1-.1.2v-.1a.1.1,0,0,0,.1-.1Z"/><path class="cls-3" d="M256.3,237.1c-.1,0-.2-.1-.3-.1l.2-.2a.37.37,0,0,1,.1.3Z"/><path class="cls-3" d="M366.5,233.9c-1.6.5-2.9,1.6-5.1,1.6a10.59,10.59,0,0,0,5.2-7.8c.4-2.2,2.9-2.9,4.9-4.4a24.74,24.74,0,0,1-4.3,9.5,3.87,3.87,0,0,0,2.4-2.3c.6-1.1,1.1-2.2,1.7-3.4.3-.7.9-1.3,1.6-1s.1,1.1,0,1.6c-.3,1.1-.6,2.3-1,3.4-1.5,4.1-6.3,6.6-10.3,5.2C363.5,235.9,365.4,235.7,366.5,233.9Z"/><path class="cls-3" d="M345,236.3c0-.8,1.2-1.5.3-2.5l.3-.3a38.24,38.24,0,0,0,6.6,1.9c3.1.8,6.2,1.5,8.9,3.4.2.2.5.3.7,0h0c-.5.7.8.9.4,1.7a38.38,38.38,0,0,1-8.3,0c-2.9-.4-4.4-3.3-7-4.4v.6c.7.7,1.8,1.8,1,2.3s-1-1.2-1.6-1.6-.2-1.6-1.3-1.1Z"/><path class="cls-3" d="M358,215.7c1.3,2.1,2.7,4.2,2.5,6.9-6.7-2.5-11.9-8.2-12.1-13.7,2.4,2.3,5.4,3.4,7.7,5.4.4.4.8,1,1.5.5h0c-.4.6,0,.8.4.9Z"/><path class="cls-3" d="M361.1,233.9c1.5-2,1.5-4.4,1.1-6.6-.5-2.7-.4-5.3,1.2-7.6,3.1,4.8,3.4,12-1.8,14.6A2.18,2.18,0,0,1,361.1,233.9Z"/><path class="cls-3" d="M360.7,232.5c.3-3.3-1.8-5-4.1-6.5a5.57,5.57,0,0,1-2.7-4.3c2.8.2,5.5.4,6.7,3.5C361.7,227.6,362.1,230,360.7,232.5Z"/><path class="cls-3" d="M341.2,238.4c-.2-2.4-.8-4.7-.6-7.3,2,1.3,2.5,3.8,4.4,5.2h0c.4,1.3.9,2.6,1.3,3.9.1.4.5.8.1,1.1a1.65,1.65,0,0,1-1.2,0,6.36,6.36,0,0,1-2.7-1.9c-.4-.4-.5-1.3-1.3-1Z"/><path class="cls-3" d="M343.8,217.4c-.2-1-1.2-1.2-1.8-1.9a6.29,6.29,0,0,1-2.1-4.8c0-.5-.3-1.2.5-1.3s.9.5,1.1,1c.7,1.4,1.1,3.1,2.6,4.1h0c1.1,2.5,3.4,3.5,5.7,4.4.7.3,1.5.1,2,.9-1.9.4-3.5-.6-5.2-1-.5-.1-1-.8-1.7-.2h0c.4-1.1-.5-1.1-1.1-1.2Z"/><path class="cls-3" d="M350.5,202.2c1.7-.2,2.1-2.2,4-2.9,0,3.8-3.8,7.1-1.1,11.3-2.7-.9-3.8-2.7-3.5-5.3.1-1,.9-1.9.6-3.1Z"/><path class="cls-3" d="M344.2,214.4c.5-1-.5-1.6-.8-2.3-1.1-2-1.5-4.1-2.3-6.5a4.29,4.29,0,0,1,3.1,2.7c1.1,3.2,2.1,6.5,5.3,9a6.16,6.16,0,0,1-3.6-1.9c-.6-.3-.8-1.3-1.7-1Z"/><path class="cls-3" d="M371.8,208.8c-2.9,1.7-7.2.5-10.3-2.7C365.4,205,368.4,207.1,371.8,208.8Z"/><path class="cls-3" d="M361.8,238.8c-.2-1,.4-1.1,1.1-.8a12,12,0,0,0,5.3.8c-1.9,3.1-6,4.2-11.3,3.1,1.8-.5,3.4-.3,5.1-.5.6-.1,1.6.4,1.8-.5.2-.7-.6-1.2-1-1.7-.2-.2-.5-.6-1-.4Z"/><path class="cls-3" d="M349.2,215.7c-3.1-2.3-3.6-5.8-4.5-9.1a5.51,5.51,0,0,1-.3-3.2c3.3,3.5,3,8.3,5.1,12.1C349.3,215.5,349.2,215.6,349.2,215.7Z"/><path class="cls-3" d="M357.6,214.8c-.4-1.2-1.8-1.5-2.2-2.7,4.6,1,7.4,5,6.1,8.8-.6-1.3-1.1-2.6-1.8-3.8-.4-.6-.6-1.7-1.8-1.5h0c.6-.5.1-.6-.3-.8Z"/><path class="cls-3" d="M366.3,225.9c.1-2.9-2.4-5.4.2-8.1C368.8,221.1,368.8,223.3,366.3,225.9Z"/><path class="cls-3" d="M341.6,230.1c2-.9,3.9-1.4,5.8-.6.5.2,1.2.4,1.2,1s-.6.9-1.1,1.1C345.3,232.5,343.5,231.8,341.6,230.1Z"/><path class="cls-3" d="M358,203.5c2.1-1.4,4.5-1.9,6.7-3a4.49,4.49,0,0,1-4.1,4.1c-1.1.1-2.2,0-3.4,0a3.83,3.83,0,0,0,.8-1.1Z"/><path class="cls-3" d="M350.5,202.2c-1.8,1.1-1.5,3-1.7,4.8-2.1-2.9-2.1-4.9.2-6.8.4-.3.8-1.2,1.5-.6a1.28,1.28,0,0,1,.2,1.9,1,1,0,0,0-.2.7Z"/><path class="cls-3" d="M358,203.5c-1.2-.5-1.6.7-2.4,1a20.26,20.26,0,0,0-2.5,1.5c1.1-2.5,1.6-4.8,4.3-5.4.4-.1.9-.6,1.3-.1s0,.9-.1,1.4-1.1.7-.6,1.6Z"/><path class="cls-3" d="M368.6,236.7a11.63,11.63,0,0,0,4.6-6.1c.1-.5.4-.8.8-.8.7.1.4.8.4,1.2-.1,3.3-2.3,5.4-5.8,5.7Z"/><path class="cls-3" d="M348.3,222.6c4-1,4.2-.9,6.1,3A24.75,24.75,0,0,1,348.3,222.6Z"/><path class="cls-3" d="M364.4,204.6a14.05,14.05,0,0,1,8.2,1.1C369.3,207.8,367,204.9,364.4,204.6Z"/><path class="cls-3" d="M372.5,202.1c-1.8,2.5-4.4.9-6.6,1.4C367,201.8,370.2,201.1,372.5,202.1Z"/><path class="cls-3" d="M345,218.6c1,1.4,2.8,1.2,4.2,2-3.8.6-5.7-.3-7.3-3.3.7-.4,1.2.8,1.9.1h0c-.2.9.5,1.1,1.2,1.2Z"/><path class="cls-3" d="M366,201.7c.6-1.9,4.1-3.3,5.7-2.4a.85.85,0,0,1,.3.5c-.1.4-.3.7-.7.7A33.69,33.69,0,0,0,366,201.7Z"/><path class="cls-3" d="M346.8,233.1c2.7-1.1,4.6.2,7.1,1.4C351.2,234.7,349.2,233.8,346.8,233.1Z"/><path class="cls-3" d="M369,223.7a14,14,0,0,0,0-2.9.88.88,0,0,1,.7-1.1c.6-.1.6.5.7.8C370.7,221.8,371.1,223.2,369,223.7Z"/><path class="cls-3" d="M346.3,203.8a.77.77,0,0,0-.3-.1,3.44,3.44,0,0,1,.1-3.4s.5,0,.5.1C347.2,201.6,346.4,202.6,346.3,203.8Z"/><path class="cls-3" d="M341.2,238.4c-.4,1.1,1.4,1.6.6,2.9-1.3-1.1-1.4-2.6-1.9-4.1.8.2.6,1.2,1.3,1.2Z"/><path class="cls-3" d="M361.5,234.3c-.2.2-.5.4-.7.2s.2-.4.3-.6Z"/><path class="cls-3" d="M364.9,200.3c0,.1.1.1.1.2l-.1.1c0-.1-.1-.1-.1-.2A.1.1,0,0,1,364.9,200.3Z"/><path class="cls-3" d="M349.3,217.4h0c.1,0,.1.1.2.1h-.3C349.3,217.5,349.3,217.5,349.3,217.4Z"/><path class="cls-3" d="M345.4,233.8c-.1-.1-.4-.1-.2-.3,0-.1.3,0,.5.1C345.5,233.6,345.4,233.7,345.4,233.8Z"/><path class="cls-3" d="M368.5,236.7l-.2.2v-.1a.31.31,0,0,1,.2-.1Z"/><path class="cls-3" d="M349.4,215.5c.1.2.2.4,0,.5-.1-.1-.2-.2-.2-.3A.22.22,0,0,1,349.4,215.5Z"/><path class="cls-3" d="M406.5,233.8c-1.6.4-2.9,1.7-5,1.6a10.85,10.85,0,0,0,5.1-7.8c.4-2,2.8-2.9,5-4.2a27.36,27.36,0,0,1-4,9.2c1.2-.2,1.6-1.1,2-1.9.6-1.1,1.1-2.2,1.7-3.4.3-.7.9-1.3,1.6-1s.2,1.1,0,1.6a33.73,33.73,0,0,1-1,3.4,8.54,8.54,0,0,1-10.3,5.3C403.4,235.9,405.4,235.6,406.5,233.8Z"/><path class="cls-3" d="M401.7,238.8c-.5.7.8.9.4,1.7a38.38,38.38,0,0,1-8.3,0c-2.9-.4-4.4-3.3-7-4.4v.6c.7.7,1.8,1.8,1,2.3s-1-1.2-1.6-1.6-.2-1.6-1.3-1.1h0c0-.8,1.2-1.5.3-2.5l.3-.3a38.24,38.24,0,0,0,6.6,1.9c3.1.8,6.2,1.5,8.9,3.4.2.1.5.3.7,0Z"/><path class="cls-3" d="M397.9,215.7c1.3,2.1,2.7,4.2,2.5,6.9-6.7-2.5-11.9-8.2-12.1-13.7,2.4,2.3,5.4,3.4,7.7,5.4.4.4.8,1,1.5.5h0c-.4.6,0,.8.4.9Z"/><path class="cls-3" d="M401,233.9c1.5-2,1.5-4.4,1.1-6.6-.5-2.7-.4-5.3,1.2-7.6,3.1,4.8,3.4,12-1.8,14.6C401.3,234.2,401.2,234,401,233.9Z"/><path class="cls-3" d="M393.9,221.7c3.3,0,5.9.8,7,4,.7,2.2,1.2,4.5-.2,6.8.3-3.3-1.8-5-4.1-6.5A5.64,5.64,0,0,1,393.9,221.7Z"/><path class="cls-3" d="M384.9,236.3c.4,1.3.9,2.6,1.3,3.9.1.4.5.8.1,1.1a1.65,1.65,0,0,1-1.2,0,6.36,6.36,0,0,1-2.7-1.9c-.4-.4-.5-1.2-1.3-1h0c-.2-2.4-.8-4.7-.6-7.3,2,1.3,2.6,3.9,4.4,5.2Z"/><path class="cls-3" d="M384.1,214.4c1.1,2.5,3.4,3.5,5.7,4.4.7.3,1.5.1,2,.9-1.9.4-3.5-.6-5.2-1-.5-.1-1-.8-1.7-.2h0c.2-1.1-.6-1.1-1.3-1.3h0c-.2-1-1.2-1.2-1.8-1.9a6.29,6.29,0,0,1-2.1-4.8c0-.5-.3-1.2.5-1.3s.9.5,1.1,1c.9,1.6,1.3,3.3,2.8,4.2Z"/><path class="cls-3" d="M390.4,202.2c1.7-.2,2.1-2.2,4-2.9,0,3.8-3.8,7.1-1.1,11.3-2.7-.9-3.8-2.7-3.5-5.3.1-1,.9-1.9.6-3.1Z"/><path class="cls-3" d="M384.1,214.4c.5-1-.5-1.6-.8-2.3-1.1-2-1.5-4.1-2.3-6.5a4.29,4.29,0,0,1,3.1,2.7c1.1,3.2,2.1,6.5,5.3,9a6.16,6.16,0,0,1-3.6-1.9c-.6-.3-.7-1.3-1.7-1Z"/><path class="cls-3" d="M411.7,208.8c-2.9,1.7-7.4.5-10.3-2.7C405.4,205,408.4,207.1,411.7,208.8Z"/><path class="cls-3" d="M401.7,238.8c-.2-1,.4-1.1,1.1-.8a12,12,0,0,0,5.3.8c-1.9,3.1-6,4.2-11.3,3.1,1.8-.5,3.4-.3,5.1-.5.6-.1,1.6.4,1.8-.5.2-.7-.6-1.2-1-1.7-.2-.2-.5-.6-1-.4Z"/><path class="cls-3" d="M389.1,215.7c-3.1-2.3-3.6-5.8-4.5-9.1a5.51,5.51,0,0,1-.3-3.2c3.3,3.5,2.9,8.3,5.1,12.1C389.3,215.5,389.2,215.6,389.1,215.7Z"/><path class="cls-3" d="M397.6,214.8c-.4-1.2-1.8-1.5-2.2-2.7,4.6,1,7.4,5,6.1,8.8-.6-1.3-1.1-2.6-1.8-3.8-.4-.6-.6-1.7-1.8-1.5h0c.5-.5,0-.6-.3-.8Z"/><path class="cls-3" d="M406.2,225.9c.1-2.8-2.3-5.4.2-8.1C408.7,221.1,408.7,223.3,406.2,225.9Z"/><path class="cls-3" d="M381.6,230.1a7.88,7.88,0,0,1,5.1-.9c.8.1,1.7.5,1.8,1.2.2.9-.9,1.1-1.5,1.3C384.8,232.5,383.2,231.6,381.6,230.1Z"/><path class="cls-3" d="M404.7,200.5a4.49,4.49,0,0,1-4.1,4.1c-1.1.1-2.2,0-3.4,0a6.22,6.22,0,0,1,.8-1.2h0C400,202.1,402.5,201.6,404.7,200.5Z"/><path class="cls-3" d="M390.4,202.2c-1.8,1.1-1.5,3-1.7,4.8-2.1-2.9-2.1-4.9.2-6.8.4-.3.8-1.2,1.5-.6a1.28,1.28,0,0,1,.2,1.9,1,1,0,0,0-.2.7Z"/><path class="cls-3" d="M398,203.5c-1.2-.5-1.6.7-2.4,1a20.26,20.26,0,0,0-2.5,1.5c1.1-2.5,1.6-4.8,4.3-5.4.4-.1.9-.6,1.3-.1s0,.9-.1,1.4-1.2.7-.6,1.6Z"/><path class="cls-3" d="M408.5,236.7a11.63,11.63,0,0,0,4.6-6.1c.1-.5.4-.8.8-.8.7.1.4.8.4,1.2-.1,3.3-2.3,5.4-5.8,5.7Z"/><path class="cls-3" d="M404.3,204.6a15.27,15.27,0,0,1,8.3,1C409.1,207.8,406.9,204.9,404.3,204.6Z"/><path class="cls-3" d="M388.2,222.6c3.9-1,4.2-.9,6.1,2.9A24.51,24.51,0,0,1,388.2,222.6Z"/><path class="cls-3" d="M405.8,202.9a9.94,9.94,0,0,1,4.8-1.4c.6,0,1.5-.1,1.5.6s-.7,1.3-1.6,1.3h-4.7A.45.45,0,0,0,405.8,202.9Z"/><path class="cls-3" d="M384.9,218.6c1,1.4,2.8,1.2,4.2,2-3.8.6-5.7-.3-7.3-3.3.7-.4,1.2.8,1.9.1h0c-.2.9.5,1.1,1.2,1.2Z"/><path class="cls-3" d="M405.9,201.7c.5-1.9,4-3.3,5.6-2.4.1.1.3.3.3.4a1.08,1.08,0,0,1-.9.8A36,36,0,0,0,405.9,201.7Z"/><path class="cls-3" d="M386.9,233.1c2.1-.9,3.7-.5,6.6,1.4C391.1,234.7,389.1,233.8,386.9,233.1Z"/><path class="cls-3" d="M409,223.6a22.48,22.48,0,0,0,0-2.6c-.1-.6,0-1.2.7-1.3s.7.7.8,1.2C410.7,222.1,410.8,223.3,409,223.6Z"/><path class="cls-3" d="M386.1,203.7a3,3,0,0,1-.1-3.4c0-.1.5,0,.5.1C387.1,201.6,386.3,202.6,386.1,203.7Z"/><path class="cls-3" d="M381.1,238.4c-.4,1.1,1.4,1.6.6,2.9-1.3-1.1-1.4-2.6-1.9-4.1.9.2.6,1.2,1.3,1.2Z"/><path class="cls-3" d="M401.4,234.3c-.2.2-.5.4-.7.2s.2-.4.3-.6C401.2,234,401.3,234.2,401.4,234.3Z"/><path class="cls-3" d="M404.9,200.3c0,.1.1.1.1.2l-.1.1c0-.1-.1-.1-.1-.2S404.8,200.3,404.9,200.3Z"/><path class="cls-3" d="M389.4,217.5v.1l-.1.1c-.2-.1-.2-.2.1-.2C389.3,217.4,389.3,217.5,389.4,217.5Z"/><path class="cls-3" d="M385.3,233.8c-.1-.1-.4-.1-.2-.3,0-.1.3,0,.5.1C385.5,233.6,385.4,233.7,385.3,233.8Z"/><path class="cls-3" d="M408.4,236.7l-.2.2v-.1l.2-.1Z"/><path class="cls-3" d="M389.3,215.5c.1.2.2.4,0,.5-.1-.1-.2-.2-.2-.3Z"/><path class="cls-1" d="M92.9,209.4c-1,.6-1.3-.2-1.7-.8C92,208.2,92.5,208.8,92.9,209.4Z"/><path class="cls-1" d="M93.3,209.8h-.5v-.5C93.1,209.4,93.3,209.5,93.3,209.8Z"/><path class="cls-1" d="M121.4,238.3c.3,0,.5.1.4.4h-.5C121.4,238.7,121.4,238.5,121.4,238.3Z"/><path class="cls-1" d="M89.5,226.6a1.3,1.3,0,0,1-1.7-1.3A1.94,1.94,0,0,1,89.5,226.6Z"/><path class="cls-1" d="M92.4,211.5c.8-.3,1.2,0,.9.9C92.8,212.2,92.5,212,92.4,211.5Z"/><path class="cls-1" d="M301.3,209.4c-1,.6-1.3-.2-1.7-.8C300.5,208.2,300.9,208.8,301.3,209.4Z"/><path class="cls-1" d="M301.7,209.8h-.5v-.5C301.6,209.4,301.8,209.5,301.7,209.8Z"/><path class="cls-1" d="M329.9,238.3c.3,0,.5.1.4.4h-.5A1,1,0,0,0,329.9,238.3Z"/><path class="cls-1" d="M297.9,226.6a1.3,1.3,0,0,1-1.7-1.3A1.83,1.83,0,0,1,297.9,226.6Z"/><path class="cls-1" d="M300.9,211.5c.8-.3,1.2,0,.9.9C301.3,212.2,300.9,212,300.9,211.5Z"/><path class="cls-1" d="M254.2,228.7q.45,1.2-.9.9Q253.45,228.7,254.2,228.7Z"/><path class="cls-1" d="M258,240c.8-.2,1.1,0,.9.9C258.3,240.9,257.9,240.7,258,240Z"/><path class="cls-1" d="M357.6,214.8c.4.2.9.3.4.9C357.6,215.6,357.2,215.4,357.6,214.8Z"/><path class="cls-1" d="M345,218.6c-.7-.1-1.4-.3-1.3-1.3C344.4,217.5,345.3,217.5,345,218.6Z"/><path class="cls-1" d="M397.5,214.8c.4.2.9.3.4.9C397.5,215.6,397.1,215.4,397.5,214.8Z"/><path class="cls-1" d="M384.9,218.6c-.7-.1-1.4-.3-1.3-1.3C384.3,217.5,385.2,217.5,384.9,218.6Z"/></g></g></g></g></svg>