<?xml version="1.0" encoding="utf-8"?>
<!-- Generator: Adobe Illustrator 19.0.1, SVG Export Plug-In . SVG Version: 6.00 Build 0)  -->
<svg version="1.1" xmlns="http://www.w3.org/2000/svg" xmlns:xlink="http://www.w3.org/1999/xlink" x="0px" y="0px"
	 viewBox="0 0 960 560" style="enable-background:new 0 0 960 560;" xml:space="preserve">
<style type="text/css">
	.st0{fill:#D8168F;}
	.st1{fill:#00A552;}
	.st2{font-family:'Leaffy-Regular';}
	.st3{font-size:69.4845px;}
	.st4{font-family:'LinBiolinumSlanted';}
</style>
<g id="Layer_1">
</g>
<g id="Layer_2">
</g>
<g id="Layer_3">
	<g>
		<g id="pDhczF.tif_3_">
			<g>
				<path class="st0" d="M594.3,96.9c-2.4,4.8-4.8,9.6-7.3,14.4c-2.5,4.8-5.3,9.4-7.7,14.2c-3.5,7-6.8,14.2-10.1,21.3
					c-0.6,1.3-0.8,2.9-1.2,4.3c0.3,0.2,0.6,0.3,0.9,0.5c1.2-1.2,2.6-2.4,3.5-3.8c5-7.6,10-15.3,14.9-23c4.6-7.2,9.2-14.5,13.8-21.7
					c0.4-0.6,1-1.1,1.5-1.7c0.2,0.1,0.4,0.2,0.5,0.2c-0.3,1-0.5,2.1-1,3.1c-3,5.9-6.2,11.8-9.2,17.7c-4.6,9-9.2,18-13.7,27
					c-1,2.1-1.4,4.4-2.1,6.7c0.2,0.2,0.5,0.4,0.7,0.6c1-0.7,2.2-1.2,2.9-2.1c3.2-4.4,6.4-8.9,9.3-13.5c6.1-9.8,11.9-19.7,17.9-29.6
					c1.1-1.8,2.3-3.5,3.4-5.2c0.2,0.1,0.5,0.2,0.7,0.3c-0.8,2.2-1.5,4.4-2.5,6.4c-3.4,6.8-7,13.6-10.5,20.4
					c-3.6,7.2-7.3,14.4-10.7,21.7c-0.9,1.9-1.2,4.1-1.8,6.1c0.2,0.1,0.4,0.3,0.6,0.4c0.6-0.4,1.3-0.6,1.7-1.1
					c2.9-3.9,5.9-7.7,8.4-11.8c6.6-10.6,12.9-21.3,19.4-32c1.1-1.9,2.5-3.6,3.7-5.4c0.2,0.1,0.5,0.2,0.7,0.3c-1.1,3-2.1,6-3.3,8.9
					c-3.9,9.1-7.7,18.4-12,27.3c-4.6,9.5-9.7,18.7-14.6,28c-3.4,6.4-8,11.8-14.6,15.1c-2.4,1.2-5,2.1-7.6,3.1
					c-4.4,1.6-7.7,4.4-9.9,8.7c-4.5,8.7-9.2,17.3-13.6,26c-3.5,7-6.7,14.2-10,21.4c-3.1,6.8-6.2,13.7-9.2,20.6
					c-2.5,5.9-4.8,11.8-7.3,17.7c-4.5,10.5-9,21.1-15.3,30.7c-2.6,3.9-5.5,7.6-8.6,11.1c-4.6,5.2-14.3,5.2-18-1.3
					c-1.7-3-2-6.1-1.2-9.3c2.1-8.3,5.5-16,9.8-23.3c4.1-6.9,8.7-13.6,13.2-20.2c4-5.9,8.4-11.7,12.5-17.6
					c4.2-6.1,8.3-12.3,12.3-18.5c5.1-8,10.2-16,15.1-24.2c4.2-7.1,8.2-14.4,12-21.8c2-4,1.1-8.4,0.3-12.5c-1.4-6.8-2.6-13.6,0.8-20
					c4.2-8.2,8.7-16.2,13.4-24.2c4.1-7,8.3-13.9,12.8-20.6c4.3-6.4,9-12.5,13.5-18.7c0.5-0.7,1.4-1.2,2.1-1.8
					C593.9,96.6,594.1,96.7,594.3,96.9z"/>
			</g>
		</g>
		<g id="pDhczF.tif_2_">
			<g>
				<path class="st1" d="M409.8,176c-2,1.1-5.2,2.9-9.7,3.6c-14.4,2.5-26-7.6-26.7-6.5c-0.9,1.4,17.6,14.3,22.9,18
					c0.1,0.1,0.3,0.3,0.7,0.4c1.1,0.6,2.4,1,6.9,2.6c4.4,1.6,7.7,4.4,9.9,8.7c4.5,8.7,9.2,17.3,13.6,26c3.5,7,6.7,14.2,10,21.4
					c3.1,6.8,6.2,13.7,9.2,20.6c2.5,5.9,4.8,11.8,7.3,17.7c4.5,10.5,9,21.1,15.3,30.7c2.6,3.9,5.5,7.6,8.6,11.1
					c4.6,5.2,14.3,5.2,18-1.3c1.7-3,2-6.1,1.2-9.3c-2.1-8.3-5.5-16-9.8-23.3c-4.1-6.9-8.7-13.6-13.2-20.2c-4-5.9-8.4-11.7-12.5-17.6
					c-4.2-6.1-8.3-12.3-12.3-18.5c-5.1-8-10.2-16-15.1-24.2c-4.2-7.1-8.2-14.4-12-21.8c-0.7-1.4-1-2.6-1.1-3.6
					c-0.2-4.2,0.3-7.5,0.8-8.9c0.4-1.2,10.5-32.2,9.7-32.6C430.9,148.8,425.4,167.4,409.8,176z"/>
			</g>
		</g>
		<path class="st1" d="M418.8,165.2c1,0.2,2.6-2.3,5.8-7.2c4.9-7.3,6.6-12.2,7.6-11.9c1.2,0.3,0.4,6.6,0.4,7.2
			c-0.5,4.2-2,10.7-6.7,18.4c17.3-10.4,27.9-27.7,26.7-45.2c-0.7-10.1-5.1-17.8-8.2-22.3c-4.6,1.9-13,6.3-19.5,15.2
			C411,138.3,415.2,164.4,418.8,165.2z"/>
		<path class="st1" d="M400.4,177.2c-1.7,2.6-11.8-0.4-16.5-1.8c-7.6-2.2-11.9-5.1-12.6-4.1c-0.9,1.3,5.1,7.3,8.2,10.2
			c4.6,4.2,8.9,7.1,11.9,8.9c-20.8,0.3-39.4-9.1-47.7-25c-4.7-8.9-5.1-17.7-4.8-23.2c6-0.5,14.8-0.5,24.6,2.5
			C386.8,152.2,403,173.2,400.4,177.2z"/>
	</g>
	<text transform="matrix(1.0352 0 0 1 208.4283 404.4912)" class="st0 st2 st3">Meatless</text>
	<text transform="matrix(1.1323 0 0 1 356.5004 465.4878)" class="st1 st4 st3">District</text>
</g>
</svg>
