<svg id="Layer_1" data-name="Layer 1" xmlns="http://www.w3.org/2000/svg" viewBox="0 0 960 560"><defs><style>.cls-1{fill:#d92395;}.cls-2{fill:#02a453;}.cls-3{fill:#fefefe;}</style></defs><title>Artboard 1</title><g id="Layer_3" data-name="Layer 3"><g id="lpug6k.tif"><path class="cls-1" d="M487.6,291.1c9.7-15.7,21.2-30.1,30.9-45.7,6.4-10.3,12.7-20.6,18.5-31.2a16.57,16.57,0,0,0,1.6-12.3,38.67,38.67,0,0,1-1.2-8.3,18,18,0,0,1,2-8.5c8.9-16.9,18.6-33.3,30.3-48.5a15.84,15.84,0,0,1,2.2-2.3h.4c.2.9-.4,1.6-.8,2.3-6,12.2-13,24-18.4,36.5-1,2.3-1.1,2.6-.9,4.5a8.57,8.57,0,0,0,3.6-3.7c7.1-11,14.1-22,21.2-33,.6-.9,1-2,2.3-2.5.1,1.6-.7,2.7-1.3,3.9-5.6,11-11.3,22-16.9,33a16,16,0,0,0-1.9,6.3,4.76,4.76,0,0,0,3.3-2.5c7.5-10.2,13.6-21.4,20.2-32.1a26.75,26.75,0,0,1,3.5-4.8,16.28,16.28,0,0,1-2.1,6.2c-5.3,10.5-10.6,21-15.8,31.5a13,13,0,0,0-1.6,5.6c1.4,0,1.8-1.1,2.5-1.9,6.2-8,11-16.9,16.3-25.4,2.1-3.4,4.3-6.9,6.4-10.3a3.12,3.12,0,0,1,1.5-1.5,3.16,3.16,0,0,1-.5,2.2,329,329,0,0,1-19.7,42.6c-1.3,2.5-2.6,4.9-4,7.4-3.1,5.6-7.6,9.8-13.7,11.7s-9.6,5.7-12.5,11.2c-12.3,22.8-22.5,46.5-32.6,70.4-3.6,8.5-7.8,16.8-13.7,24-.4.5-.6,1.3-1.5,1.3,1.2-3.2.6-6.3-.3-9.4A73,73,0,0,0,487.6,291.1Z"/><path class="cls-1" d="M272.3,331.9c9.1-.5,18.2-.3,27.3-.4a2.48,2.48,0,0,1,2.6,1.9c1.8,4.4,3.6,8.7,5.6,13.4,2.1-3.6,3.2-7.3,4.7-10.8,1.7-4,1.7-4,6-4.1,7.2,0,14.4,0,21.6-.2,2.1,0,3.1.4,2.9,2.7-.1,1.5.1,3.1.1,4.6,0,1.9.6,4.2-2.5,4.3-.8,0-1.2.8-1.2,1.7,0,6.4.1,12.7,0,19.1,0,1.6.9,1.4,1.8,1.2,1.6-.4,2.1.3,2.1,1.9-.1,2.9,0,5.7.1,8.6,0,1.1-.3,1.5-1.4,1.5-7.5,0-15-.1-22.5,0-1.2,0-1.4-.5-1.4-1.5,0-2.7.1-5.5,0-8.2-.1-1.6.3-2.4,2.1-2.1.9.1,1.6,0,1.6-1.2,0-6.8,0-13.6-.4-20.4-.4,1.7-.5,3.5-1.3,5-4.4,8.3-7,17.3-10.6,26-.7,1.7-1.6,2.6-3.5,2.5-6.2-.2-4.4,1.2-6.8-4.8-3.1-7.9-6.2-15.9-9.3-23.8a3.78,3.78,0,0,0-.7-1.1c-.7,1.8-1.4,3.2-1.4,4.9.1,3.7.1,7.4.1,11.1,0,1.3.3,1.9,1.6,1.7,1.6-.2,2.1.6,2,2.1,0,2.7-.1,5.5-.1,8.2,0,.8-.3,1.5-1.3,1.5-5.9,0-11.9.5-17.8-.3V365.6a4.53,4.53,0,0,1,1.6-.3c2,.3,2.2-.7,2.2-2.4-.2-5.9-.3-11.7-.3-17.6,0-1.6-.5-2.3-2.1-2.1a7.08,7.08,0,0,1-1.4.1Q272.3,337.6,272.3,331.9Zm3.6,36.4c-.1.1-.1.3-.2.4a.52.52,0,0,1,.4-.2c.1-.1.3-.3.3-.4C276.1,367.8,276.1,368.2,275.9,368.3Zm2.7-19.6c0,.1,0,.1.1.2h.1c-.1-.1-.2-.1-.2-.2s-.1-.4-.2-.6c-.4-1-.9-1.9-1.4-3.1-.5,1.6-.4,2.7,1.1,3.3A1.76,1.76,0,0,0,278.6,348.7Zm52.5-2.5c.4,0,.5-.3.7-.5,1.6-1.3,2.8-3.1,4.8-4a9.89,9.89,0,0,1-2.5,2.9c-2.9,2.9-5.5,6.1-5.6,10.5-.1.1-.1.2-.2.2l.2-.2a36.8,36.8,0,0,0,3-3.9c1.5-2.5,4.4-4,4.7-7.2,0-.2.3-.6.6-.4,2.2,1.3,2.8-1.2,4.3-1.4-1.4-1.6-2.9-.7-4.3-.8.3-1.1,1.2-1.5,1.8-2.2a8.8,8.8,0,0,0,2.4-4.8c.1-.5.3-1.1-.6-1.2a5.84,5.84,0,0,0-6.4,4.4,23.39,23.39,0,0,1-2.6,7.7.66.66,0,0,0-.3.9h-.3a.35.35,0,0,0,.1.2A.22.22,0,0,0,331.1,346.2Zm-49.4,24.6c2.1-.4,3.8-2.2,6.1-1.9-2.7,1.9-5.9,2.7-8.9,3.7a4,4,0,0,0-2.4,1.4c2.4-.4,4.6-.7,6.7-1a14.66,14.66,0,0,0,5.4-1.6,2.78,2.78,0,0,0,1.4-3.3c-.9.1-1.3,1-2.2.8-.7-.8.7-1.3.1-2.2-1.1.2-2.4-.5-3.5.6s-2,2.1-3,3.1c-.1.1-.1.3-.2.4Zm14.5-21.7.1.1-.1-.1c-.5-3.2-2.5-5.3-5.1-7.2C290.7,346.1,292.1,348.1,296.2,349.1Zm14.3,6.3a9,9,0,0,0,6.7-8.1,49.24,49.24,0,0,0-3.9,3.3,11.09,11.09,0,0,0-2.8,4.8,1.38,1.38,0,0,0-.3.4l.2.2A1.27,1.27,0,0,0,310.5,355.4Zm19.2-9.3a17.09,17.09,0,0,0,3.5-11.7c0-.5.3-1.2-.7-1.1-1.2.2-2.8,2.2-2.6,3.4a16.18,16.18,0,0,1-.6,9c-.2.2-.5.6-.2.8S329.5,346.3,329.7,346.1ZM274.8,334c0-.1,0-.1-.1-.2h-.1c.1.1.2.1.2.2a70.7,70.7,0,0,0,3.1,10.6C280.8,337.5,280.3,336.6,274.8,334Zm31.5,32.8a43.72,43.72,0,0,0,5.9-4.5,7.84,7.84,0,0,0,2.3-4.4c.4-1.5,0-1.9-1.5-1.4-3.9,1.3-6.8,5.7-6.7,10.3,0,.1-.1.1-.2.2h.1A.31.31,0,0,0,306.3,366.8Zm28.2-10.1c.2.6-.3.9-.6,1.2a12.5,12.5,0,0,0-2.7,6.1c3.3-2.4,4.8-5.9,6.7-9.2.1-.2.2-.6,0-.8-.4-.4-.7-.1-1.1.2-.9.7-1.1,2.1-2.3,2.5-.5-.9.3-1.3.7-1.8,2-2.7,3.6-5.5,1.9-9.3a23.35,23.35,0,0,1-3.2,5.4c-1.4,1.6-2.7,3.2-4.1,4.8a11.2,11.2,0,0,0-2.3,5.5c-.6,3.3,1.6,8.5,4.3,10.1.3-.8-.2-1.4-.4-2-2.3-5-.6-9.1,2.3-12.6C333.9,356.5,334.2,356.2,334.5,356.7Zm-29.6-10.8c-3.3,4-4.9,8.2-2.8,13.3.7,1.7,1.1,3.6,1.8,5.3.3.7.1,1.6.6,2C308,359.7,307.6,352.8,304.9,345.9Zm20.6,8.6c.4-3.8,1.9-6.6,3.1-9.6a12.8,12.8,0,0,0-1-11.1,11.18,11.18,0,0,1-2.2,5.8,9,9,0,0,0-1.5,6.2A86,86,0,0,0,325.5,354.5ZM274.3,374c3.4-2.4,7.1-4,9.5-7.3s3.6-7.5,1.4-11.2a17.45,17.45,0,0,1-3.7,8.3c-1.5,1.9-3.2,3.7-4.8,5.5C275.6,370.5,274.4,371.8,274.3,374Zm7.7-35.5a8.88,8.88,0,0,0-2.6,7.7,14.25,14.25,0,0,0,3.7,7.2c-1.3-5.9-1-11.6,1.9-17-.9-.1-1.2.5-1.7.8s-.7.9-1.3.7c.5-2.3.1-3.8-1.2-4.7-.4-.3-.9-.8-1.4,0C278.6,334.6,280.1,338.1,282,338.5Zm14.3,19.1c.7,5.8,3.8,10.3,7.8,14.6C304.3,365.9,300.8,358.2,296.3,357.6Zm5.9-20.2c-3.2,3.5-4.3,10.4-2,13.9C301.2,346.7,305.1,342.6,302.2,337.4Zm35,22.3c-.4,3.3-2.5,5.8-2.9,8.9-.4,2.6.1,5.3,3,6C335.6,369.7,339.5,364.9,337.2,359.7Zm-6.1,12.5c-3.7-2.8-7-5.3-11.5-4.9a3.61,3.61,0,0,0,2.7,3.8A24.74,24.74,0,0,0,331.1,372.2Zm-17.5-34.8c-.5,3.7-4.1,7.1-.8,10.9C315,344.9,317.3,341.4,313.6,337.4Zm-22.2-.4c-5.7,3.5-7.5,5.9-7.8,10.9a10,10,0,0,1,3.8-4.1c1.1-.8,3.1-1.1,2.2-3.3,0-.1.2-.5.3-.5C292.1,339.8,290.9,338.2,291.4,337Zm31.6,6.8a10.52,10.52,0,0,1,1.8-4.7c1.3-1.9.6-3.4-.6-4.9-.8-1-1.3-.7-1.8.3C320.7,337.5,321.4,340.4,323,343.8ZM292.8,350c1.5,4,3.9,7.3,8.2,9C299.4,354.9,297.8,351,292.8,350Zm28.1-8c-1.2-2.9-1.5-5.9-3.9-7.8-.9-.7-1.2-.7-1.4.5C314.8,338.9,316,340.8,320.9,342Zm-12.7,15.2c2-3.6,4.2-7.1,1.6-11.3C306.1,349.2,308.1,353.3,308.2,357.2Zm-10.4-9.7c-.4-4.9,2.4-9.4,1.7-14.5A14.12,14.12,0,0,0,297.8,347.5Zm-19,2.9c-.5,4.1,2.2,7.2,2.9,10.8C284.1,357.9,282.7,352.8,278.8,350.4Zm53.3,23.2c-3.7-1.1-7.6-.7-11.3-1.8a1.14,1.14,0,0,0-1.3.5c-.2.6.4,1,.9,1.2a12.2,12.2,0,0,0,1.7.7C325.5,375.3,328.8,374.4,332.1,373.6Zm-5.4-8.6c-.5-2.7-.9-4.8-1.3-6.9-.1-.6-.1-1.3-.6-1.7s-1.2-1.3-1.9-1.1-.6,1.1-.6,1.9C322.2,360.3,324.2,362.4,326.7,365Zm-15.8,0c-3.4,2.2-5.2,4.9-5.1,8.8A10.38,10.38,0,0,0,310.9,365Zm-18.2-32.2c-3.7.3-7.8,4.4-7.8,7.5,1.2-1.4,2.9-2.1,4.1-3.3A55.06,55.06,0,0,0,292.7,332.8Zm-8.6,22.6c.9-3.2,3-5.3,3.9-7.9.2-.6.6-1.3,0-1.7a1.72,1.72,0,0,0-1.8.2,2.41,2.41,0,0,0-1.2,1.6C284.5,350,283.8,352.4,284.1,355.4Zm11.6-10.9c-.4-3.4,1.2-7-1-10.3C292.9,336.5,293.2,340,295.7,344.5Zm-15.6,29.9c2.8-.1,5.3,1.1,7.8,1.6.6.1,1.7.6,1.9-.5a1.87,1.87,0,0,0-1.3-2,3.17,3.17,0,0,0-1.6-.4C284.6,373.5,282.4,374,280.1,374.4Zm60.8,1.2a9.05,9.05,0,0,1,.6-2.6c.8-1.4.5-2.8.5-4.3,0-.4-.1-.9-.6-1s-.6.3-.8.6C338.7,370.4,338.8,373.3,340.9,375.6Zm-64.3-7.9c1.2-1.4,3.3-2.1,3-4.4a3.58,3.58,0,0,0-2.4-3.2C277.3,362.8,277.8,365.3,276.6,367.7Zm3.9-7.1c-.6-2.1-1.1-4.2-3-5.7C276.8,358,278.9,359.2,280.5,360.6Zm42.2,3.1c.4,2.6,2.5,3.1,4.3,4.3C326.7,365.3,324.8,364.6,322.7,363.7Zm-2.3-26.9a7.51,7.51,0,0,1,.7-1.8c.2-.5.5-1-.1-1.5-.3-.3-.5,0-.7.2-.5.4-1.4.6-1.1,1.5A2,2,0,0,0,320.4,336.8Zm-35.6-3.9c-.6.5-1.9.4-1.9,1.7,0,.3.1,1.2.7,1,.9-.4,1.9-.9,2-2.1C285.7,333,285.5,332.7,284.8,332.9Zm-9.1,8.4c-.3-.8-.1-2.1-1.5-2.5-.5-.1-.6.5-.5.9a3,3,0,0,0,1.5,2.5C275.9,342.5,275.9,341.9,275.7,341.3Zm-2,28.6c.9-1.2,1.1-2.1,0-3Zm12-34c0-.2,0-.3-.1-.4a2.51,2.51,0,0,0-.7.4c-.1,0,.1.3.1.5A5,5,0,0,1,285.7,335.9Zm43.2,11.2c-.1,0-.2-.1-.3-.1s-.2.1-.3.2c.2.1.3.2.5.2C328.8,347.3,328.9,347.2,328.9,347.1Z"/><path class="cls-2" d="M452.1,425.6c-1-.9-2.4-.7-3.6-1.2-.9-.3-1.4-.7-.7-1.6.1-.1.1-.3.2-.4,1.5-3.4,1.5-3.4,4.2-1.1a7.72,7.72,0,0,0,10-.2c2.3-2.3,1.9-4.6-1.1-5.8-1.4-.5-2.9-.9-4.4-1.4-5-1.7-5.9-6.4-1.8-9.8,3.2-2.7,7-3.2,11-2.8a22.11,22.11,0,0,1,2.5.5c3.6,1,3.6,1.1,1.8,4.2-.8,1.4-1.3,1.5-2.4.2-2.3-2.6-4.7-3.3-7.7-2.1-1.6.6-2.9,1.6-2.8,3.5,0,1.7,1.4,2.3,2.8,2.8,1.8.6,3.8,1,5.6,1.8,3.4,1.5,4.3,4,2.6,7.3a10,10,0,0,1-6,5.2c-.7.2-1.5.1-2,.8C457.5,425.6,454.8,425.6,452.1,425.6Z"/><path class="cls-2" d="M478.6,425.6c-2.3-1.7-2.4-4-1.7-6.6,1.3-4.4,2.2-8.8,3.5-13.2.5-1.7-.1-1.9-1.5-1.8a20.78,20.78,0,0,1-2.5,0c.7-1.6,1.4-2.8,3.3-2.4,1.4.3,2-.4,2.2-1.7a9.36,9.36,0,0,0,.4-1.6c-.1-3.6,2.6-4.2,5.2-5,1-.3,1,.2.8,1-.5,1.9-.9,3.8-1.5,5.7-.5,1.6.1,1.8,1.4,1.7,1.8-.1,3.6,0,5.5,0-.4,1.7-1.1,2.6-3,2.5-5-.2-5-.1-6.2,4.6-.8,3.2-1.7,6.3-2.5,9.5-.9,3.8-.2,4.7,3.7,4.3a5,5,0,0,0,1.2-.2c.5-.1,1-.3,1.2.4s-.2.9-.7,1.1c-1.3.5-2.6,1.1-4,1.7Z"/><path class="cls-2" d="M564.4,425.6c-2.3-1.7-2.4-4-1.7-6.6,1.3-4.4,2.2-8.8,3.5-13.2.5-1.7-.1-1.9-1.5-1.8a20.78,20.78,0,0,1-2.5,0c.7-1.6,1.4-2.8,3.3-2.4,1.4.3,2-.4,2.2-1.7a9.37,9.37,0,0,0,.4-1.6c-.1-3.6,2.6-4.2,5.2-5,1-.3,1,.2.8,1-.5,1.9-.9,3.8-1.5,5.7-.5,1.6.1,1.8,1.4,1.7,1.8-.1,3.6,0,5.5,0-.4,1.7-1.1,2.6-3,2.5-5-.2-5-.1-6.2,4.6-.8,3.2-1.7,6.3-2.5,9.5-.9,3.8-.2,4.7,3.7,4.3a5,5,0,0,0,1.2-.2c.5-.1,1-.3,1.2.4s-.2.9-.7,1.1c-1.3.5-2.6,1.1-4,1.7Z"/><path class="cls-2" d="M540.4,425.6c0-.1,0-.2-.1-.2-6.5-3.4-8.2-8.1-5.1-14.7,3.6-7.7,14-11.7,21.8-8.4,1.3.5,1.7,1.1.7,2.2-.1.1-.1.2-.2.4-1.7,3-1.7,3-3.8.6a5.2,5.2,0,0,0-5.4-1.5c-5.9,1.3-10.4,9.3-8.6,15a5.7,5.7,0,0,0,5.3,4.1,13.38,13.38,0,0,0,6.8-1.6c.6-.3,1.1-.7,1.6.1s-.4,1-.8,1.3c-1.7,1.4-4,1.9-6,2.7Z"/><path class="cls-3" d="M272.3,343.2a6.15,6.15,0,0,0,1.4-.1c1.6-.2,2.1.5,2.1,2.1,0,5.9.1,11.7.3,17.6.1,1.7-.2,2.7-2.2,2.4a4.53,4.53,0,0,0-1.6.3C272.3,358.1,272.3,350.7,272.3,343.2Z"/><path class="cls-2" d="M487.6,291.1a78.64,78.64,0,0,1,7.6,16.7c1,3.1,1.5,6.2.3,9.4h0a1,1,0,0,0-.5,1c-4.5,5.1-10.5,4.9-15-.1-6.9-7.8-11.6-16.9-15.6-26.4-7.2-17.2-14.5-34.4-22.7-51.1-3.7-7.5-7.7-14.9-11.6-22.3a12.28,12.28,0,0,0-7.2-6.4c-4.9-1.5-9-4.4-13.1-7.3-3.9-2.8-7.7-5.7-11.4-8.8h0q-.15-1.2.9-.6c1.5.8,3,1.6,4.5,2.3,11.1,5.1,20.9,3.4,29.6-5.1a46.47,46.47,0,0,0,8.7-12.3,32.36,32.36,0,0,1,2-3.6c-.8,4.3-2.3,8.5-3.5,12.7-1.5,5.2-3.8,10.2-4.6,15.7a13.37,13.37,0,0,0,1.4,8.1,514,514,0,0,0,36.9,58.5C478.9,277.8,483.2,284.5,487.6,291.1Z"/><path class="cls-2" d="M398.4,195.7c-.7,1,.3,1.3.7,1.7a65.51,65.51,0,0,0,6,5.8,57.61,57.61,0,0,0,7.3,5.2,49.18,49.18,0,0,1-8.9-.6c-10.3-1.8-19.2-6.1-25.7-14.4a32.81,32.81,0,0,1-6.8-21.6c0-1.1.3-1.4,1.4-1.5,18.9-.9,33.7,7,45.2,21.6a12,12,0,0,1,2,3.9c.6,1.9.1,2.8-2,3a19.82,19.82,0,0,1-6.4-.9,78.74,78.74,0,0,1-12.7-4.2c-.5-.2-1.3-.9-1.8,0-.3.8.7,1.8,1.7,2Z"/><path class="cls-2" d="M440.4,193.2c-.2-.7.4-1.2.6-1.7a34.48,34.48,0,0,0,4.2-15v-.4c-.1-.8.2-2-.6-2.2s-1.1.9-1.4,1.6c-2.2,3.9-4.5,7.7-7.1,11.4-.5.7-.9,1.8-2,1.7s-1.3-1.4-1.6-2.3a35.14,35.14,0,0,1-1-13.3c1.4-14.1,7.9-24.9,20.7-31.4,1.5-.8,2.3-.7,3.3.9,8.3,13.2,6.9,28.9-3.9,41.4a37.64,37.64,0,0,1-11.2,9.3Z"/><path class="cls-1" d="M428.1,331.8h15.1c1.4,0,2,.3,2,1.8-.1,2.4-.1,4.9,0,7.3,0,1.4-.5,2.3-1.9,2.5s-1.5,1-1,2.1c2.1,5.6,4.1,11.1,6.2,16.7.7,1.8,1.2,3.9,4,3.3.7-.1,1,.7,1,1.3.1,3.1.1,6.2.2,9.2,0,.9-.4,1.2-1.3,1.2H430.1c-1,0-1.3-.4-1.4-1.4,0-2.5,0-5-.2-7.6-.1-1.4,1-1.3,1.8-1.5s2,.2,1.6-1.2c-.4-1.2.4-3.4-1.7-3.5a78.47,78.47,0,0,0-9.7,0c-2,.1-1.6,2.3-1.9,3.5-.4,1.4,1.1.7,1.7.9a1.2,1.2,0,0,1,1.2,1.1,39.35,39.35,0,0,1,.2,8.4,1.1,1.1,0,0,1-1.2,1.2c-5.7,0-11.3,0-17-.1-.8,0-1-.4-1-1.2,0-2.9.1-5.9,0-8.8,0-1.3.7-1.4,1.6-1.2,1.5.2,2.1-.5,2.6-1.8,2.3-6.2,4.6-12.3,6.9-18.4.5-1.3.5-2.2-1.2-2.2-.9,0-1.4-.3-1.4-1.4-.1-2.7-.2-5.3-.4-8-.1-1.7.6-2.2,2.2-2.2ZM424,344.6l.4-.4c.2-.1.4-.2.4-.5.1,0,.1,0,.2-.1v-.1c-.1.1-.1.2-.2.2s-.5.1-.7.2-.3.3-.5.4a1.38,1.38,0,0,1-.4.3,15.08,15.08,0,0,1-2,1.7c-.9.6-1.1,2-2.5,2,0-.3.1-.5.1-.8L429,337a4.18,4.18,0,0,0,1.3-3.4c-1.5.1-2.4,1.2-3.5,1.9-.6.4-.8,1.3-1.7,1,0-.8,1.4-1.6.4-2.4-.8-.6-1.5.5-2.1.9-4.9,3.2-6,8.2-6.5,13.6,1.5-5,4.6-8.8,8.3-12.2.3,1.6-1.2,2.3-2,3.2-2,2.3-3.9,4.5-4.5,7.6-.3.4-.3.7.2,1,.6.8-.2,1.2-.4,1.8-.9,2.4-2,4.7-1.6,7.4-.1.1-.4.1-.1.4,0-.1.1-.3.1-.4.5-.2.6-.7.8-1.2a53.2,53.2,0,0,1,6-11.3C423.8,344.9,423.9,344.7,424,344.6Zm-2.1,9.2c-1.6-.1-2.2,1.1-2.8,2.2-.2.2-.3.4-.5.5a.54.54,0,0,0,.8-.2,5.5,5.5,0,0,0,2.5-2.5c0-.1.4,0,.1-.3C422,353.6,421.9,353.7,421.9,353.8Zm5.4-7.2c-.1-.1-.1-.2-.2-.2v.2h.2a7.78,7.78,0,0,0,.4,3.4c.5,2.1.9,4.2,3,5.4,0,.2-.1.4.2.2-.1-.1-.2-.1-.3-.2a41,41,0,0,1-1.1-6.1A2.35,2.35,0,0,0,427.3,346.6Zm7.2,12.2c.1.1.1.2.2.2v-.2h-.2c-.6-3.1-1.8-6.2-1.8-9.5,0-1.1-1-1.5-2.2-1.7C430.7,351.8,430.6,356,434.5,358.8Zm-21.9,13a3.2,3.2,0,0,1-2.4,2.8c.3.4.6.7,1,.6a23.59,23.59,0,0,1,7.5-.1c.5.1,1.2.4,1.5-.2s-.2-1.2-.6-1.7a3.6,3.6,0,0,0-2-1.1,6.45,6.45,0,0,0-4.1.5c-.6.3-1.2.4-.7-.6a19.16,19.16,0,0,1,8.2-2.1c-.8-2-2-2.5-3.9-2.1A7.16,7.16,0,0,0,412.6,371.8Zm4.3-34.4c-.5-.7.1-1.1.3-1.6s.8-.9.2-1.2a3.32,3.32,0,0,0-2.1-.7c-.6,0-.5.9-.5,1.4V342c.8-1.9.5-3.7,2.1-4.6-.7,3.4-1.5,6.8-1,10.7.7-2.6,1.3-4.8,1.8-7,.5-2.5,2.5-4,4-5.7.6-.7,0-1.4-.3-1.9-.5-.7-.9.2-1.4.4C418.3,334.5,418.2,336.5,416.9,337.4Zm33.2,31.9c-.2.3-.5.2-.7,0-2.6-3.1-5.1-6.3-4.8-10.8a29.94,29.94,0,0,0,0-3c-2.9,2.1-3,2.9-2.2,5.8.4,1.4,1.4,2.4,1.8,3.7-1,.5-1.1-.5-1.4-1-1.7-2.5-1.8-5.2-1.3-8,.3-1.8.7-3.5,1.1-5.4-3.3,1.6-4.8,4.4-4.6,8.5.2,3.6,3,6.9,7.4,8.6.2-1.2-1.8-1.4-1.2-2.7,2.5,1.8,4.1,4.7,6.5,6.8.3-1.1-1.3-1.5-.6-2.5,1.3.4,1.3,2,2.4,2.7-.1-1.8-3.9-8.8-6.5-11.9a7,7,0,0,0,.8,4C447.6,366,449.3,367.4,450.1,369.3Zm-13.7-6c.2,0,.3.1.5.1a.76.76,0,0,1-.2-.4c-.4-.5-.8-.9-1.2-1.4-4.5-5.4-8.3-5.7-14.7-3.6a5.78,5.78,0,0,0-3.7,3.9c2.4-1.5,5-1.5,7.5-1.6C428.8,360.1,432.8,360.6,436.4,363.3Zm-23.9-7.7c-1.2,7.2-1.7,14-7.4,19a9.6,9.6,0,0,0,8.4-6C415.3,364.4,414.9,360.2,412.5,355.6Zm36.2,18.1a19.21,19.21,0,0,0-7.1-1.5c-3.1,0-6.2,1.1-9.3-.2-.6-.2-1.5-1.2-1.9-.3a2.38,2.38,0,0,0,.7,3,5.09,5.09,0,0,0,1.7.7,14.78,14.78,0,0,0,4.2,0C440.9,374.9,444.7,373.7,448.7,373.7Zm-22.8-28c-2.2,3.3-2.3,6.7-3.7,10l6.8-.3C427.1,352.4,426.8,349.2,425.9,345.7Zm17.9-11.3a27.31,27.31,0,0,0-14.6,6.2C434.5,339.5,440.2,339.3,443.8,334.4Zm3.1,37.3c-3.3-3.6-7.5-5.1-12.1-5.6-1-.1-1.3.2-.7,1.2a5.35,5.35,0,0,0,3.9,2.6C440.9,370.5,443.9,370.9,446.9,371.7Zm-19.4-27.8a15.5,15.5,0,0,1,8.8,3.2c1.6,1.1,3.2,2.1,5.4,1.7C439.2,345,430.8,342,427.5,343.9Zm12.8,27.4c-2.5-.7-4.6-.9-6.1-2.4a3.9,3.9,0,0,0-3.6-.8c-.5.1-.4.5-.3.8a4.09,4.09,0,0,0,2.9,2.5C435.5,371.9,437.6,371.5,440.3,371.3Zm-11.4-32.2c3.5-1.8,6.7-3.8,10.4-4.9a.67.67,0,0,0,.5-1c-.3-.4-.8-.2-1.1-.1C434.9,334.1,431.3,335.6,428.9,339.1Zm8.2,10.8c-1.8,4-1.9,7.6-.1,10.8v-3.5a5.71,5.71,0,0,1,.9-3.2C439.1,352.5,438.6,351.3,437.1,349.9Zm5.5-7.3c-1.4-.8-9.1-.7-10.7,0C435.4,344.2,438.9,343.9,442.6,342.6Zm1.3-3.9c-4-.2-7,1.2-10.1,2.4C437.2,340.7,440.9,342.3,443.9,338.7Zm-33.4,21c-1.2,3.7-2.8,7.4-3.6,11.2A18.07,18.07,0,0,0,410.5,359.7Zm3.2-9.5c-.3,3.4-.4,6.1,1.4,8.7A17,17,0,0,0,413.7,350.2Zm21,5.1c1.3-4.1,1.3-4.7-1.1-6.6C433.8,350.9,433.7,353.2,434.7,355.3Zm-21.4-14.9c.2,0,.4-.1.7-.1v-5a1,1,0,0,0-1-1.1c-.4-.1-.6.2-.7.6A9.71,9.71,0,0,0,413.3,340.4Zm1.9,26.7a6.13,6.13,0,0,0,2.7-3.9C415.9,364.1,415.8,364.2,415.2,367.1Zm-10,4c1.6-2.3,1.5-2.9-.4-3.5A33.87,33.87,0,0,1,405.2,371.1Zm1.5.5c0-.1-.1-.1-.1-.2l-.1.1a.35.35,0,0,1,.1.2A.1.1,0,0,1,406.7,371.6Z"/><path class="cls-1" d="M374.7,331.9c6.7,0,13.4.1,20.2,0,1.6,0,2.1.5,2.1,2v11.8c0,1.2-.5,1.5-1.6,1.5-3-.1-6,0-9,0-1.4,0-2.3-.3-2.2-2s-.8-2.2-2.4-1.8a24.75,24.75,0,0,1-6.1.3c-1,0-1.3.3-1.3,1.3,0,4.3-.1,4.3,4.2,4.3,5.1,0,5.2,0,5.1,5.1,0,1.7.6,3.9-.4,4.8-.8.7-3-.1-4.5-.3h-1c-2.9-.1-3,0-2.5,2.9a2.55,2.55,0,0,1,.1,1.2c-.8,2.6.6,2.7,2.6,2.6,1.7-.1,3.4-.1,5-.1,1,0,1.6-.4,1.4-1.5-.3-1.5.6-1.8,1.8-1.8,3.1,0,6.2,0,9.3-.1,1,0,1.5.3,1.5,1.4q-.15,6,0,12c0,1-.4,1.3-1.4,1.3-13.5.2-27,.9-40.5.3-1.9-.1-2.8-.7-2.6-2.7.1-2.2,0-4.3-.1-6.5-.1-1.6.5-2.5,2-2.6,1.8-.1,1.9-1,1.9-2.5-.1-5.7-.2-11.3-.1-17,0-1.6-.3-2.6-2.1-2.5-1.3.1-1.5-.6-1.5-1.7,0-2.8.1-5.6,0-8.4,0-1.5,1-1.3,1.8-1.3Zm-14.7,19c.1.1.3.1.4.2.1-.2-.1-.3-.2-.3-.1-.2-.2-.3-.3-.5-.4-.9-.7-1.8-1.1-2.7-.2-.5-.4-.7-.9-.5s-.4.6-.3,1a4.74,4.74,0,0,0,2,2.6C359.6,350.8,359.8,350.8,360,350.9Zm26.2,20.9c0-.1,0-.1-.1-.2H386c0,.1.1.1.2.2s0,.4.3.5a2.19,2.19,0,0,0,.3.5c.3.6.5,1.2.8,1.7s.2,1.5,1.1,1-.2-.9-.3-1.3-.8-.7-.2-1.2c1,.3,1.3,1.4,2,1.9a4.27,4.27,0,0,0,4.3.5c1.1-.5-.9-1.3-.6-2.3a.1.1,0,0,1,.1-.1c1,.4,1.3-.3,1.6-1.1.1-.5.4-1.1-.3-1.4a3.41,3.41,0,0,0-3.1.3c.2.9,1.3,1,1.4,1.8-2.3-.8-4.7-1.5-7-2.3-.2,0-.3-.1-.5-.1a.52.52,0,0,1,.2.4c.4.9,1.7,1.3,1.8,2.4-.7.6-.8-.4-1.3-.4l-.4-.4C386.4,372.1,386.3,372,386.2,371.8Zm-18.8-24.9a2.19,2.19,0,0,0-.3-.5c-.3-.9-1.8-1-1.5-2.3.3.1.7.2,1,.3a5.92,5.92,0,0,1,.6.4c.3-.3,0-.6-.2-.8-2.8-4.6-6.1-8.6-11.6-10.1-.5-.1-1-.5-1.4-.1s0,1,.3,1.5a6.71,6.71,0,0,0,.9,1.4c1.7,2.3,4.3,3.2,6.6,4.6.7.4,1.8.3,1.8,1.6-.6.2-1-.3-1.5-.5-.3-.1-.6-.4-.8,0a.69.69,0,0,0,.3.9,6.71,6.71,0,0,1,1.5.6c.7.5,2.1.4,1.8,1.9-1.2-.2-1.9-1.5-3.3-1.3.6,2.2,2.4,3.4,5.1,3.6,0-.7-.9-.8-1-1.5.4-.8.8.1,1.2.1.2.1.3.3.5.4a1.44,1.44,0,0,1,.2.3C367.7,347.2,367.6,347.1,367.4,346.9Zm-3.5,1.8q.15-.45-.3-.3c.1.2.2.2.3.3.8,1.7,2.4,1.8,4,1.8C366.6,349.8,365.6,348.5,363.9,348.7Zm-9.3,25.2c2.9-3,3.2-3.4,1.4-4.6a6.47,6.47,0,0,0-1.4,4.6.27.27,0,0,0-.3.3c0,.1.1.1.2.2A4.34,4.34,0,0,0,354.6,373.9Zm19-38.2c.9.8-.9,1.3-.1,2.2a16.18,16.18,0,0,1,1.9-1.8c.7-.6,1.2-1.6,2.4-1.2,0,.6-.8.6-.9,1.2a.52.52,0,0,0-.2.4h.5c3.6-2.2,7.6-2.9,11.7-3.2a17,17,0,0,0-11.1,1.7c-.7-.3.2-.9-.2-1.2-.9.1-1.4.8-2.1,1.2-.7.1-.9,1.3-1.9.7.2-1.2-.6-1.9-1.5-2.5-.4-.3-.7.3-1,.6-1.1,1.5.8,2.2.8,3.5C372.7,336.9,372.7,335.8,373.6,335.7ZM359.7,363c1.8.4,2.1-.7,2.1-2.1,1.9-.1.5-1.1.2-1.4-1.7-2.2-3.5-4.3-4.3-7-.1-.4-.3-.8-.9-.5-.4,3.2,1.1,5.6,3.4,7.7-1,.6-1.8-1-2.9-.2.1,1,.8,1.5,1.5,2.1.4.3,1.4.4.9,1.4a6.47,6.47,0,0,1-1.3-.4c-1-.5-1.5-.2-1.3.9.1.7.1,1.7,1,1.5A1.7,1.7,0,0,0,359.7,363Zm14.7-5.5c2.9.1,5.5-.3,7.6-2.6a9.94,9.94,0,0,0-5.1,1c-.8.4-1.4,1.4-2.5.9,1.2-1.6,3.1-2,4.7-2.9a10,10,0,0,0,2.4-1.6,1.09,1.09,0,0,0,.4-1.3c-.2-.5-.7-.4-1.1-.4a10,10,0,0,0-9.7,8.9c1.2-.9,1.7-2.5,3.3-2.8.5.3.1.5,0,.8Zm-4.1,9.4c3.9-1.6,4.7-3.1,3.3-6.9-2.4,1.6-2.8,4.2-3.6,6.6-.1.2-.3.4,0,.5C370,367.1,370.2,366.9,370.3,366.9Zm-2.7-12.2c.1.1.3.1.4.2,0-.2-.1-.3-.1-.5-2.8-3.5-7-6.1-7.9-11.3a6.83,6.83,0,0,0,2.2,8.3A60,60,0,0,0,367.6,354.7Zm-.1,13.2c2.3-3,3.1-6.3,1.6-9.8a7.15,7.15,0,0,0-5.8-4.1c3.5,3.9,5.5,8.2,3.9,13.6-.3.1-.4.4-.2.6S367.3,368,367.5,367.9Zm-1.9.1c.6-.2.6-.7.8-1.1,2.3-5.8-2.8-12.9-7.6-15.1a5.91,5.91,0,0,0,2,4.5,18.83,18.83,0,0,1,4.8,11.7c-.1.1-.2.3-.3.4l.2.2A1.27,1.27,0,0,1,365.6,368Zm19.2,6.9c.1.2.3.2.5,0a1.44,1.44,0,0,0-.2-.3,43.71,43.71,0,0,0-2.5-4.8,7.4,7.4,0,0,0-9.7-2.7c1.7.7,3.4,1.4,4.2,3C378.6,373.5,381.4,374.7,384.8,374.9Zm9.9-40.9c-6.2.3-12.4-.5-17.5,3.7,3.8-.9,7.6-.1,11.5.1C391.5,338,393.3,336.8,394.7,334Zm-20.2,7.7c2-.2,4-.5,6-.6s3.9.3,5.2,2.1c2.2,3,5.2,2.8,8.3,2.3.4-.1,1,0,1-.8s-2-3-2.9-2.9c-3.3.3-6.5-.5-9.7-1.3A9.36,9.36,0,0,0,374.5,341.7Zm20.7-4.1c-6.1,3-12.7-1.3-18.8,1.9a12.61,12.61,0,0,1,5.8.1c1.8.4,3.6.9,5.5,1.4C391.1,341.8,394.1,340.7,395.2,337.6Zm-25.8,8.5c3.6-5,2-9.1-1.2-13.2C365.7,337.6,368.5,341.6,369.4,346.1Zm26.5,17.4c-4.3.4-6,5-10,5.2,2.6,1.5,5.1,1.9,7.8.6C396.2,368.2,395.1,365.7,395.9,363.5Zm-30.8,7.9c2.5.2,4.8.7,6.5,2.3s3,1.2,4.4-.4C370.8,369,368.3,368.5,365.1,371.4Zm-2.8,1.7c3.1,3,6.4,3.5,10.3,2.5C369.7,372.6,366.4,371.8,362.3,373.1Zm10.8-28.9c-2.6,2.9-3.1,6.5-1.5,9.5C373.9,350.8,373.6,347.6,373.1,344.2Zm-18-5.2c-1.4-.1-1.5.1-1.2,1.1.5,1.5,3.3,3.1,4.8,2.6.8-.3,1.5-1,.5-1.6C357.9,340.1,356.6,338.9,355.1,339Zm-.4,26.9a10.79,10.79,0,0,1,3.7,6.3,3.87,3.87,0,0,0,.1-5.3A3.39,3.39,0,0,0,354.7,365.9Zm10-26.7c-.4-3-1.2-5.3-4.7-5.9A19.16,19.16,0,0,0,364.7,339.2Zm-2.1,23.9c-.9.7-1.7,1.2-2.4,1.8-.5.4-1.6.4-1.1,1.4.3.7.7,1.7,1.3,1.8s1.2-.8,1.6-1.4A5.55,5.55,0,0,0,362.6,363.1Zm8.9,5.1c2.1,1.2,3.1,3.8,5.9,4.4C376.2,369.9,374.4,368.3,371.5,368.2Zm14.1-.7c2.5.2,4-1.3,5.5-2.8.4-.4,1-1,.4-1.6s-1.1.2-1.4.5C388.8,365.1,387.6,366.7,385.6,367.5Zm-19.4-28.2v-6A4.81,4.81,0,0,0,366.2,339.3Zm12.3,36.8c.4-.2,1.3.3,1.2-.6a1.69,1.69,0,0,0-1.8-1.6c-.6.1-1.7.3-1.6,1C376.3,376.1,377.5,376,378.5,376.1Zm-17.1-3.9a5,5,0,0,0,1.5-6C362.3,368.5,361.9,370.3,361.4,372.2Zm23.6-6a3,3,0,0,0,3-1.8c.2-.4-.5-1-.9-1C385.4,363.5,386.1,365.3,385,366.2Zm-20.6,9.7c-1.7-1.3-2.7-2.7-4.8-1.4C361.1,375.1,362.3,376,364.4,375.9Zm13.7-17.8c1.5.1,2.4.2,3.3.3.5,0,.8-.1.7-.7s-.2-1-.9-.7C380.3,357.3,379.5,357.6,378.1,358.1Zm-14.5,5.1c.2,1,.3,1.8.4,2.5s.1,1.5.2,2.6C364.9,366.3,364.9,365.6,363.6,363.2Zm-2.4,5.6c-1.4.9-1,1.9-1,2.9C361.2,370.9,361.1,370.1,361.2,368.8Zm5.7-20.5-.2.2c0,.1.1.3.2.3s.3,0,.3-.3C367.1,348.5,367,348.4,366.9,348.3Z"/><path class="cls-1" d="M583.1,331.9h20.4c1.4,0,1.8.5,1.8,1.8v12c0,1.2-.5,1.5-1.6,1.5-3-.1-6,0-9,0-1.4,0-2.3-.3-2.2-2s-.8-2.2-2.4-1.8a28.83,28.83,0,0,1-5.9.3c-1.1,0-1.6.3-1.5,1.5.1,4.1.1,4.1,4.2,4.1,5.1,0,5.2,0,5.1,5.1,0,1.7.6,3.9-.4,4.8-.8.7-3-.1-4.5-.3a3.4,3.4,0,0,1-1-.1c-2.9-.1-3,0-2.5,2.9a2.56,2.56,0,0,1,0,1.5c-.7,2.1.3,2.5,2.1,2.4s3.4,0,5-.1c1.1,0,2.1-.2,1.8-1.8-.2-1.1.3-1.5,1.4-1.5,3.3,0,6.6-.1,10-.1,1,0,1.3.5,1.3,1.4,0,4-.1,8,0,12,0,1-.4,1.3-1.3,1.3-13.5.2-27,.9-40.5.3-1.9-.1-2.8-.7-2.7-2.7.1-2.2,0-4.3-.1-6.5a2.26,2.26,0,0,1,2.2-2.7c1.3-.1,1.7-.7,1.7-2-.1-6-.2-11.9-.1-17.9,0-1.5-.5-2.1-1.9-2s-1.8-.6-1.8-1.9q.15-3.9,0-7.8c-.1-1.5.5-1.7,1.8-1.7Zm-14.7,19c.1.1.3.1.4.2.1-.2-.1-.3-.2-.3-.1-.2-.2-.3-.3-.5-.4-.9-.7-1.8-1.1-2.7-.2-.5-.4-.7-.9-.5s-.4.6-.3,1a4.74,4.74,0,0,0,2,2.6C568.1,350.8,568.2,350.8,568.4,350.9Zm26.2,20.9c0-.1,0-.1-.1-.2h-.1l.2.2c0,.2,0,.4.3.5a2.19,2.19,0,0,0,.3.5c.3.6.5,1.2.8,1.7s.2,1.5,1.1,1-.2-.9-.3-1.3-.8-.7-.2-1.2c1,.3,1.3,1.4,2,1.9a4.27,4.27,0,0,0,4.3.5c1.1-.5-.9-1.3-.6-2.3a.1.1,0,0,1,.1-.1c1,.4,1.3-.3,1.6-1.1.1-.5.4-1.1-.3-1.4a3.41,3.41,0,0,0-3.1.3c.2.9,1.3,1,1.4,1.8-2.3-.8-4.7-1.5-7-2.3-.2,0-.3-.1-.5-.1a.52.52,0,0,1,.2.4c.4.9,1.7,1.3,1.8,2.4-.7.6-.8-.4-1.3-.4l-.4-.4C594.9,372.1,594.7,372,594.6,371.8Zm-18.7-24.9a2.19,2.19,0,0,0-.3-.5c-.3-.9-1.8-1-1.5-2.3.3.1.7.2,1,.3a5.92,5.92,0,0,1,.6.4c.3-.3,0-.6-.2-.8-2.8-4.6-6.1-8.6-11.6-10.1-.5-.1-1-.5-1.4-.1s0,1,.3,1.5a6.7,6.7,0,0,0,.9,1.4c1.7,2.3,4.3,3.2,6.6,4.6.7.4,1.8.3,1.8,1.6-.6.2-1-.3-1.5-.5-.3-.1-.6-.4-.8,0a.69.69,0,0,0,.3.9,6.71,6.71,0,0,1,1.5.6c.7.5,2.1.4,1.8,1.9-1.2-.2-1.9-1.5-3.3-1.3.6,2.2,2.4,3.4,5.1,3.6,0-.7-.9-.8-1-1.5.4-.8.8.1,1.2.1.2.1.3.3.5.4a1.44,1.44,0,0,1,.2.3C576.1,347.2,576,347.1,575.9,346.9Zm-3.6,1.8q.15-.45-.3-.3c.2.2.3.2.3.3.8,1.7,2.4,1.8,4,1.8C575,349.8,574,348.5,572.3,348.7Zm-9.2,25.2c2.9-3,3.2-3.4,1.4-4.6a5.92,5.92,0,0,0-1.4,4.6.27.27,0,0,0-.3.3c0,.1.1.1.2.2A1.09,1.09,0,0,1,563.1,373.9ZM582,335.7c.9.8-.9,1.3-.1,2.2a16.17,16.17,0,0,1,1.9-1.8c.7-.6,1.2-1.6,2.4-1.2,0,.6-.8.6-.9,1.2a.52.52,0,0,0-.2.4h.5c3.6-2.2,7.6-2.9,11.7-3.2a17,17,0,0,0-11.1,1.7c-.7-.3.2-.9-.2-1.2-.9.1-1.4.8-2.1,1.2-.6.1-.9,1.3-1.9.7.2-1.2-.6-1.9-1.5-2.5-.4-.3-.7.3-1,.6-1.1,1.5.8,2.2.8,3.5C581.2,336.9,581.1,335.8,582,335.7ZM568.1,363c1.8.4,2.1-.7,2.1-2.1,1.9-.1.5-1.1.2-1.4-1.7-2.2-3.5-4.3-4.3-7-.1-.4-.3-.8-.9-.5-.4,3.2,1.1,5.6,3.4,7.7-1,.6-1.8-1-2.9-.2.1,1,.8,1.5,1.5,2.1.4.3,1.4.4.9,1.4a6.47,6.47,0,0,1-1.3-.4c-1-.5-1.5-.2-1.3.9.1.7.1,1.7,1,1.5A1.65,1.65,0,0,0,568.1,363Zm14.7-5.5c2.9.1,5.5-.3,7.6-2.6a9.94,9.94,0,0,0-5.1,1c-.8.4-1.4,1.4-2.5.9,1.2-1.6,3.1-2,4.7-2.9a10,10,0,0,0,2.4-1.6,1.09,1.09,0,0,0,.4-1.3c-.2-.5-.7-.4-1.1-.4a10,10,0,0,0-9.7,8.9c1.2-.9,1.7-2.5,3.3-2.8.5.3.1.5,0,.8Zm-4.1,9.4c3.9-1.6,4.7-3.1,3.3-6.9-2.4,1.6-2.8,4.2-3.6,6.6-.1.2-.3.4,0,.5C578.5,367.1,578.6,366.9,578.7,366.9ZM576,354.7c.1.1.3.1.4.2,0-.2-.1-.3-.1-.5-2.8-3.5-7-6.1-7.9-11.3a6.83,6.83,0,0,0,2.2,8.3C572.4,352.7,574.2,353.6,576,354.7Zm-.1,13.2c2.3-3,3.1-6.3,1.6-9.8a7.15,7.15,0,0,0-5.8-4.1c3.5,3.9,5.5,8.2,3.9,13.6-.3.1-.4.4-.2.6S575.8,368,575.9,367.9Zm-1.9.1c.6-.2.6-.7.8-1.1,2.3-5.8-2.8-12.9-7.6-15.1a6.51,6.51,0,0,0,2,4.5A17.77,17.77,0,0,1,574,368c-.1.1-.2.3-.3.4l.2.2C573.9,368.4,574,368.2,574,368Zm19.2,6.9c.1.2.3.2.5,0a1.44,1.44,0,0,0-.2-.3,43.71,43.71,0,0,0-2.5-4.8c-2-3.3-6-4.4-10-2.6a6,6,0,0,1,4.4,2.9C587,373.5,589.8,374.7,593.2,374.9Zm10-40.9c-6.2.3-12.4-.5-17.4,3.7a16.32,16.32,0,0,1,4.4-.3c2.4.1,4.9.3,7.3.4C600.2,338,601.8,336.6,603.2,334ZM583,341.7c2-.2,4-.5,6-.6s4,.3,5.2,2.1c2.2,3,5.2,2.8,8.3,2.3.4-.1,1,0,1-.8s-2-3-2.9-2.9c-3.3.3-6.5-.5-9.7-1.3A9.31,9.31,0,0,0,583,341.7Zm1.8-2.3c2.9-.7,5.5.2,8.3.9,2,.5,4,1.2,6.2.9a4.69,4.69,0,0,0,4.5-4C597.5,340.4,590.9,336.3,584.8,339.4Zm-6.9,6.6c3.5-5.6,2-8.9-1.4-13C574.3,337.6,576.8,341.6,577.9,346Zm16.5,22.7c6.2,3.1,9.7,1.2,9.6-5.2C600.1,363.9,598.4,368.5,594.4,368.7Zm-9.9,4.6c-5.2-4.3-7.9-4.8-10.9-1.9,2.5.2,4.7.7,6.5,2.3S583.1,374.9,584.5,373.3Zm-13.8-.2c3,2.9,6.4,3.5,10.3,2.5A9.27,9.27,0,0,0,570.7,373.1Zm10.8-28.9a8,8,0,0,0-1.5,9.4C582.4,350.8,582.1,347.6,581.5,344.2Zm-15-1.5a1.31,1.31,0,0,0,1.6-.7c.4-.8-.3-1-.8-1.2-1.3-.7-2.4-1.6-4-1.8-1.4-.2-1.3.4-.9,1.3C563.2,342,564.8,342.4,566.5,342.7ZM563,365.9a10.68,10.68,0,0,1,3.8,6.4c1.6-1.8,1.2-3.5.2-5.2C566.1,365.7,564.7,365.6,563,365.9Zm5.4-32.7a18.59,18.59,0,0,0,4.8,5.9C572.8,336.2,571.9,333.9,568.4,333.2Zm2.6,29.9c-.8.6-1.6,1.1-2.4,1.7-.5.4-1.6.4-1.1,1.4.3.7.7,1.7,1.3,1.8s1.2-.8,1.6-1.4A4.65,4.65,0,0,0,571,363.1Zm14.7,9.6c-1.4-3.2-3.3-4.6-5.9-4.3C582,369.5,583.1,371.9,585.7,372.7Zm7.7-5.1c3.1.2,4.6-1.4,6.2-3,.4-.4.9-.9.4-1.4s-1.1.1-1.4.4A11.49,11.49,0,0,1,593.4,367.6Zm-18.5-28v-5c0-.5.2-1.2-.4-1.2s-.7.7-.8,1.2A5.46,5.46,0,0,0,574.9,339.6ZM588.1,376a1.89,1.89,0,0,0-2.9-1.8c-.3.2-.9.3-.7.9a1.81,1.81,0,0,0,1.9,1C587,376.1,587.6,376,588.1,376Zm-18.3-3.7a5,5,0,0,0,1.5-5.9C570.7,368.5,570.3,370.3,569.8,372.3Zm23.6-5.8c1.6-.6,2.7-.9,2.9-2.2,0-.2-.8-.9-1-.9C594,363.8,594.4,365.2,593.4,366.5Zm-25.5,8.2c1.7.3,2.8,1.5,4.4,1C571.1,374.8,570.2,373.2,567.9,374.7Zm19-16.8a5.21,5.21,0,0,0,2.6.5c.4,0,.9.2,1-.3a1.31,1.31,0,0,0-.3-1c-.3-.5-.7-.1-1.1.1C588.5,357.4,587.9,357.6,586.9,357.9Zm-14.8,5.6c.2,1.5.3,3,.5,4.9C573.7,366.3,572.7,364.9,572.1,363.5Zm-2.5,5.4c-1.5.7-.8,1.7-1.1,2.9C569.6,370.9,569.5,370.1,569.6,368.9Zm6-20.3c-.1-.1-.2-.2-.2-.3l-.2.2.3.3A.35.35,0,0,0,575.6,348.6Z"/><path class="cls-1" d="M479.2,332h21.2c1.6,0,2.2.4,2.1,2.1-.2,5-.2,10.1-.2,15.1,0,1.5-.4,2.2-2,2.1a54.21,54.21,0,0,0-5.7.1c-1.3.1-1.8-.4-1.7-1.7,0-1.7-.1-3.4-.1-5s-1.1-1.2-1.9-1.1-2.3-.8-2.3,1.2c0,6.4.1,12.7.1,19.1,0,1.4.8,1.6,1.9,1.5,1.5-.2,1.9.5,1.9,1.9-.1,2.7-.1,5.5-.1,8.2,0,1.4-.5,1.8-1.9,1.8H467.2c-1.1,0-1.5-.4-1.5-1.4v-8.6c0-1.7,1-1.8,2.2-1.6,1.5.2,2-.3,2-1.9-.2-6-.1-12-.2-18.1,0-1.7-2.2-2.8-3.7-2-.5.3-.4.8-.4,1.3-.1,1.6-.1,3.2-.1,4.8,0,1.2-.5,1.6-1.6,1.6-2.2-.1-4.5-.1-6.7-.1-.9,0-1.3-.3-1.3-1.2-.4-5.7-.3-11.3-.3-17,0-1.4,1.1-1,1.9-1.1,4.8-.1,9.7-.1,14.5-.1,2.3,0,4.8,0,7.2.1Zm-4.8,39.8c-.1,0-.4-.1-.2.2.1,0,.1-.1.2-.2a.46.46,0,0,0,.4-.5,4.73,4.73,0,0,0,2.2-2c4.4-4.8,4.6-11.9.2-14.7.1.8.2,1.4.3,2.1.3,4.1,1.4,8.3-.9,12.3-.5.8-1.6,1.3-1.9,2.3A.46.46,0,0,0,474.4,371.8Zm-1.2.9c-.1,0-.4-.1-.2.2l.2-.2c0-.1.5,0,.1-.3C473.3,372.5,473.2,372.6,473.2,372.7Zm-.2-24.3.4.4c.2-.3.2-.5-.2-.6-.2-1.1-.3-2.2-1.5-2.7A3.35,3.35,0,0,0,473,348.4Zm-1.9,23.8c1.8-1.1,1.7-2.9,1.7-4.6,1.2.2.7,1.4,1.1,2.1,1-1.8.2-3.6.2-5.4,2.1.9.7,3,1.6,4.7a14,14,0,0,0,0-8.1c-.2-.9-1.3-1.5-.8-2.5,1.3.4,1.1,1.9,2,2.7.4-6.4-.5-7.9-5-8.3.4,2.2,2.3,3.6,3,5.6-1.4.3-1.4-1.9-3-1.5a24.9,24.9,0,0,1,2.1,7.4c-.7,0-.7-1-1.5-.8-.3,1.4.3,2.8.2,4.2-.4.4-.6-.1-.8-.3-.4-.3-.4-1.2-1.2-.7a1.13,1.13,0,0,0-.4,1.5c1,1.2.7,2.7.8,4a.19.19,0,0,0-.3,0v.2C470.9,372.4,471,372.3,471.1,372.2Zm8.4-3.3c2.1-.4,4.2-.8,6.3-1.3.8-.2,1.9-.7,1.7-1.5s-1.5-1.1-2.3-.8c-2.1.9-4.3,1.6-5.7,3.6-.2,0-.3,0-.4.1l.2.2C479.4,369.1,479.4,369,479.5,368.9Zm-8.4-30.2c-.7.5-.8-.3-1.1-.5a11.59,11.59,0,0,0-6.6-2.4c1.3,4.6,6.1,5,8.9,7.7.4-1.9-1.4-3.1-1.2-4.8.9-.7.3-1.4-.1-2-1.4-2.2-3.6-2.7-6-3.4.1,1.5,1,2,2.2,2.4C468.8,336.2,470.5,336.7,471.1,338.7Zm4.5,11.3c.1.1.1.4.3.2a2.27,2.27,0,0,1-.1-.4,13.27,13.27,0,0,1-.6-5.6c.1-2.1,1-3.9,1.5-5.9a3.63,3.63,0,0,0-1.2-3.8,25.92,25.92,0,0,0-2,9.3C473.4,346,473.6,348.5,475.6,350Zm5.2,16.4c5.3-1.9,7.3-4.7,6.4-9.3-3.3,2.3-5.2,5.5-6.6,9.2-.1.1-.1.2-.2.3l.1.1Zm9.6,2.1c-5.3.1-10.5.4-15.1,4a63.36,63.36,0,0,0,7.6-.1c2.9-.3,5.7-1.3,7.5-3.9,0-.1.1-.2.2-.3h-.2Zm-8.2-9.9c4.2-2,5.8-4.7,4.7-8.5-.9,2.2-1.5,4.3-3.6,5.4.6-1.6,2-2.9,2.3-4.6a16.62,16.62,0,0,0,.9-5.2c-3.5,3.4-7.2,6.4-5.8,11.8,1.2-.1,1.1-1.7,2.3-1.6,0,1.1-1.1,1.5-1.1,2.5a.4.4,0,0,0-.2.6C481.9,358.8,482.1,358.7,482.2,358.6Zm-1.9-15.3c.4-1.7,1.9-2.7,2.9-4s1.9-2.6,1.7-4.4a15.57,15.57,0,0,0-6.4,10c.9-.4.9-1.5,1.8-1.6.6.7-.1,1.1-.3,1.6a10.69,10.69,0,0,0-.5,9.4c0-4,2.7-6.4,4.9-9.2,2.4-2.9,3.6-6.5,4.5-10.7-2.8,3.1-5.1,5.7-7.4,8.3C481.2,342.9,481.1,343.7,480.3,343.3ZM490,341c3.2.4,4,.6,6.7,2.3a4.59,4.59,0,0,0,3,.5c.6,0,.9-.2.7-.9a5,5,0,0,0-4.9-3.9A7.4,7.4,0,0,0,490,341Zm3.7,1.6a14.21,14.21,0,0,0,1.2,4.1c1.1,2.1,2.8,3.2,4.8,3,.5,0,1.1.1,1-.7-.3-1.3-.3-3-1.7-3.6C497.3,344.5,495.8,343.5,493.7,342.6ZM477,349.3a30,30,0,0,1,.9-6,24.42,24.42,0,0,1,2.6-5.7,2.4,2.4,0,0,0-.1-2.9C476.6,338,474.9,345.3,477,349.3Zm-12.9-5.9c-1.6.9-2.9,1.7-4.2,2.3a3.47,3.47,0,0,0-1.9,3c-.1.9.2,1.2,1.1,1.3a3.22,3.22,0,0,0,3.5-1.8A9.41,9.41,0,0,0,464.1,343.4Zm10.3,30.1c4.3,2.4,12.6,1.4,15.9-1.5.3-.2.7-.4.4-.8a1,1,0,0,0-.9-.3,10.66,10.66,0,0,0-1.9.7,14.56,14.56,0,0,1-7.6,1.9Zm20.2-39.9c-4.2.8-5.8,3.8-6.9,7.6C490.9,339.2,494,337.7,494.6,333.6Zm-27.2,7.8c-2.8-1.3-6.7-.8-8.4.9-.8.8-1.5,1.9-.9,2.8s1.7-.1,2.4-.5C462.6,343.3,464.5,341.9,467.4,341.4Zm32.9-7.8c-2.3-.2-4.1.1-5.3,2.2-.6,1.1-.7,1.7.9,1.7C498.2,337.4,499.2,336.6,500.3,333.6ZM465,339.8c-2.2-3.1-3.5-3.3-6.9-1.2C460,340.6,462.4,340,465,339.8Zm8.3-.9c.5-1.9,1.3-3.4-.3-4.8-.4-.4-.9-.8-1.4-.3s-.9.9-.4,1.6C471.8,336.4,472.5,337.5,473.3,338.9Zm8.4,36.9a31.37,31.37,0,0,0,7.5.1c.5,0,1.3.1,1-.8-.2-.6-.5-1.5-1.5-.9C486.6,375.5,484.1,375.6,481.7,375.8Zm-13-7.6c.2,2.3-.7,4-1,6.1C470.6,371.9,470.9,370.2,468.7,368.2ZM462,336.3a3.76,3.76,0,0,0-3.1-1.9c-1-.1-1.1.3-.7,1.1C459.1,337.4,460.6,336.7,462,336.3Zm35.4,1.9c1.3.9,2.3,1.2,3.3.4.5-.4.4-.9-.1-1.3C499.2,336.2,498.8,338.1,497.4,338.2Zm-23,13.6a4.05,4.05,0,0,0-.5-.9c-.4-.6-.7-1.4-1.6-1.4-.3,0-.5.1-.5.5a2.58,2.58,0,0,0,1.5,2A.8.8,0,0,0,474.4,351.8Z"/><path class="cls-1" d="M524.5,377.3H509.9c-1.6,0-2.3-.3-2.2-2.1a64.22,64.22,0,0,0,0-7.6c-.1-1.5.4-2.3,2-2s2.2-.5,2.2-2.2c-.2-6.1-.2-12.2-.2-18.3,0-1.4-.4-2.1-1.9-1.9s-2.2-.5-2.2-2.1c.1-2.6,0-5.2-.1-7.8,0-1.2.4-1.6,1.6-1.6h24.4c1.2,0,1.6.4,1.6,1.6,0,2.7,0,5.3.1,8,0,1.4-.6,2.1-2,2-2.1-.2-2.6.9-2.5,2.8.2,5.9.3,11.8.4,17.6,0,1.4.5,2,2,2,2-.1,3.9,0,5.9,0,1.3,0,1.7-.6,1.7-1.8s.1-2.7.2-4c0-1,.5-1.5,1.6-1.5,2.9.1,5.7.1,8.6.1,1.2,0,1.7.6,1.7,1.8,0,5,0,9.9.1,14.9,0,1.5-.7,1.6-1.9,1.7C543.1,377.4,535.1,376.8,524.5,377.3Zm2-28.2a3.34,3.34,0,0,0,2.5-1.2,1,1,0,0,0,.2-1.5c-.4-.5-.9.1-1.2.3a3.47,3.47,0,0,0-1.5,2.4.1.1,0,0,1-.1.1v.1A.35.35,0,0,0,526.5,349.1Zm3.9-6.6a6.89,6.89,0,0,0,3.3-3c.3-.6.8-1.5.1-1.9s-1.1.5-1.5,1c-.6.8-.5,2.1-2,2.1.4-1.5,1.7-2.7,1.5-4.5a5.2,5.2,0,0,1,1-3.1c.1-.1.1-.2.2-.2h-.2v.3c-3-.4-4.8,1.6-6.3,3.7-2,2.7-2.9,9.9-1.7,13.6.2-.6.5-1.2.7-1.8a23.61,23.61,0,0,1,4.8-7.9c.6.6-.2,1-.2,1.5,0,.2-.1.3-.1.5C530.1,342.6,530.2,342.5,530.4,342.5Zm-17.3,25.2c2.8-4,2.9-7.3.2-8.5.2,2.8.6,5.6-.4,8.2,0,.1-.1.3-.1.4A.37.37,0,0,0,513.1,367.7Zm15.5,3.7c0-.1-.1-.2-.1-.3l-.2.2c.1,0,.2.1.3.1,0,1.3,1.9,1.5,1.7,3-1.3-.2-1.9-1.4-2.6-2.2-3.4-3.6-7.3-4.3-11.9-1.7,2.3-.2,4.1.9,6,1.7,2.4,1,4.4,3,7,3.6.8.2,1.9,1,2.3-.6.7-.6,1.1.2,1.6.4,1.3.7,2.6.5,4.5.5-1.6-.9-2.6-1.6-3.6-2.1C531.9,373.2,530.6,371.7,528.6,371.4ZM524,334.9c-.6-.5.5-1.6-.5-1.9-.6-.1-.9.6-1.1,1.1a1,1,0,0,0,.3,1.1c.6.6.6-1.2,1.3-.3-.4,1.7-1.4,3.4,0,5.3.8-2,1.5-3.9,3-5.3a.94.94,0,0,0,.1-1.5c-.5-.5-.9.1-1.3.2C525.1,333.9,524.8,334.7,524,334.9Zm-12.1,40.7c3.7-2.3,7.4-3.2,11,.2.3.3,1,.8,1.4.2s-.1-1.1-.4-1.5a10.7,10.7,0,0,0-3.7-2.2c-3.9-1.8-6.5-.9-8.5,3.1-.1.2-.2.3,0,.5C511.6,375.9,511.8,375.7,511.9,375.6Zm4.5-23.5c.7-.5,1,.3,1.2.6a9.33,9.33,0,0,1,2.4,6.5c3.7-3.5,1.9-8-1-10.6-1.4-1.2-2.4-.2-3.3.5s.3,1.2.5,1.8c.2.4.9.7.2,1.2-1.5-.6-1.4-2.6-2.9-3.2-.2,2.7.4,4.9,2.7,6.4,1.4.9,2,2.6,2.6,4.3a4.6,4.6,0,0,0-.1-3.3A24,24,0,0,0,516.4,352.1ZM526.5,363a13.72,13.72,0,0,0,2.8-10.2,17,17,0,0,1-5.2,5.7c-1.8,1.4-3.6,2.7-5.3,4.1a18.76,18.76,0,0,0-6.1,8.8c2.1-1.4,3.9-3.2,6.2-4.3l6.9-3.3c0,1.8-2,1.4-2.8,2.6a10.15,10.15,0,0,0,5.7-2.1c.6-.5,1-1.4.6-2s-1,.3-1.5.5S527,363.7,526.5,363ZM521,338.7a8,8,0,0,1-3-2.1,8.66,8.66,0,0,0-5.9-2.2c-.5,0-1.2-.4-1.5.3s.2,1.1.5,1.5a3.18,3.18,0,0,0,1,1,73.87,73.87,0,0,1,11.1,7.4,20.12,20.12,0,0,1-.5-2.3,8,8,0,0,0-1.3-2.4c-1.3-1.8,1.2-.2,1-1.1v-.2c-.2-1.7-.3-3.5-1.9-4.7-.6-.4-1.2-1.3-1.9-.4a1.76,1.76,0,0,0,.2,2.5A11,11,0,0,1,521,338.7Zm9.2,31.8c4.6,3.6,9.3,6.5,15.4,5.6a32.61,32.61,0,0,1,5.4-.3c1.1,0,.7-.7.7-1.1-.1-1.7-2-2.7-4.2-2.2a22.26,22.26,0,0,1-12-.6A45.8,45.8,0,0,0,530.2,370.5Zm2.9-1.7c.7.7,1.4.5,2,.7,4.8,1.6,9.4.5,13.5-2,2.7-1.6,2.9-3.3,1.5-6.2C546.4,368.2,540.2,369.3,533.1,368.8Zm18-.8c-5.3,2.1-10.5,4-16.3,2.6C542.3,373.4,549.4,372.4,551.1,368Zm-40.4-28.4c3,2.6,6.3,4.8,10.7,4.7-.7-.5-1.2-1.1-1.8-1.5-1.6-1.1-3.3-2.1-4.9-3.2A3.3,3.3,0,0,0,510.7,339.6Zm18.2,10c-2.9.8-5.5,4.5-5.9,8.1C526.7,356.2,527.4,352.8,528.9,349.6Zm5.2,18.2v.2c1.3,0,2.6.1,4,0,3.7-.4,7.1-1.4,9.5-4.5.7-.9.8-1.8-.1-2.3s-1.1.6-1.3,1.1a8.22,8.22,0,0,1-6.9,4.8C537.5,367.3,535.8,367.6,534.1,367.8Zm-17.5-4.7c1.3-2.1,1.6-3.9.5-5.8-.6-1.1-1.4-2.3-3.3-1.8a6.43,6.43,0,0,1,2,3.3C516.2,360.2,516.3,361.5,516.6,363.1Zm2.5-15.6A13.52,13.52,0,0,1,523,353c.4-1.9,1.3-3.4.1-4.8C522.2,347.2,520.9,346.9,519.1,347.5Zm3-1c-1.5-1.3-4.6-1.6-5.9-.7-.7.5-1.2,1.3-.9,1.9.4.8,1.2.1,1.7-.2C518.6,346.5,520.3,346.5,522.1,346.5Zm20,19a10.24,10.24,0,0,0,2.6-2.4c.4-.6.6-1.1.1-1.7a2.84,2.84,0,0,0-2.2-1c-.9.1-.4,1-.5,1.6C542,363,542.1,364,542.1,365.5Zm-11.9.4c-3.4.1-6.2,1.4-9.1,1.9C524.3,368.4,527.2,368.2,530.2,365.9Zm-20.3,2c-.1,2.2-1.3,4.5,0,6.7C509.8,372.4,511.2,370.1,509.9,367.9Z"/><path class="cls-1" d="M621.9,374.7c.5,2.4-.7,2.7-2.5,2.6q-3.45-.15-6.9,0c-1.1,0-1.7-.3-1.7-1.5V364c0-1.2.6-1.5,1.7-1.5,2.7.1,5.3.1,8,0a1.62,1.62,0,0,1,1.9,1.4c.9,3,5.2,5.2,8.2,4.1a1.76,1.76,0,0,0,1.2-2.6,7.23,7.23,0,0,0-3.8-3.7c-3.2-1.6-6.8-2.6-9.8-4.6-6.3-4.2-9.3-9.7-6.7-17.2,1.3-3.9,7.1-7.9,11.2-8,3.9-.1,7.8,0,11.4,2,.4.2,1.2.5,1.2-.2.1-1.8,1.4-1.4,2.4-1.5,2.2-.1,4.5-.1,6.7-.2,1.1-.1,1.7.2,1.7,1.5,0,3.6.1,7.1.2,10.7,0,1.1-.5,1.5-1.5,1.5-2.7,0-5.5,0-8.2.1-1.2.1-1.4-.8-1.9-1.6a6.62,6.62,0,0,0-5.6-3.9,2.6,2.6,0,0,0-3,1.8c-.3,1.3.7,2.1,1.8,2.7,4.3,2.3,8.5,4.9,12.9,7,5.5,2.6,8,9.1,6.7,15.1a12.43,12.43,0,0,1-3.1,5.6C637.7,379.9,628.2,378.5,621.9,374.7Zm18.9-3.7c3.6-.2,5.8-2.3,5.9-5.7,0-.4.3-1.1-.4-1.2-.4-.1-.7.3-.8.8a11.82,11.82,0,0,1-4.7,6.1l-.1.1v.1A.35.35,0,0,1,640.8,371Zm-3.7-36.2c-2.2,1-4.7,1.6-6.7,3-.6-.9.5-1.1.7-1.7s.4-1,.1-1.4-.9,0-1.3.1c-2.6.6-3.2,2.9-4.3,5.4,1.1-.7,1.8-1.1,2.5-1.5s1.2-1.6,2.4-1c-.2.4-.5.7-.8,1.2,1.2,0,2.3.1,3.4,0a5,5,0,0,0,4.3-4.4c-.1,0-.1.1-.2.1s.1.1.1.2l.1-.1C637.3,334.7,637.3,334.6,637.1,334.8ZM621.5,350c.1.1.2.2.2.3a.33.33,0,0,0,0-.5c-2.1-3.7-1.8-8.6-5.1-12.1a5.51,5.51,0,0,0,.3,3.2C617.9,344.2,618.4,347.8,621.5,350Zm1.3-13.5c.1-.3,0-.6.2-.8a1.3,1.3,0,0,0-.2-1.9c-.7-.6-1.1.3-1.5.6-2.3,1.9-2.3,3.9-.2,6.8.2-1.7-.1-3.6,1.7-4.7.3,1.1-.5,2-.6,3.1a4.69,4.69,0,0,0,3.5,5.3c-2.8-4.1,1-7.4,1.1-11.3C624.9,334.3,624.5,336.3,622.8,336.5Zm-5.5,16.4c.6-.6,1.1.1,1.7.2,1.7.4,3.3,1.4,5.2,1-.5-.8-1.4-.6-2-.9-2.3-1-4.6-2-5.7-4.4,1-.4,1.2.6,1.7,1,.9.7,1.7,1.8,3.6,1.9-3.2-2.6-4.2-5.8-5.3-9-.4-1.3-1.4-2.1-3.1-2.7.8,2.4,1.2,4.5,2.3,6.5.4.7,1.3,1.2.8,2.3-1.5-.9-1.8-2.6-2.6-4.1-.3-.5-.4-1.1-1.1-1-.9.1-.5.8-.5,1.3-.2,2,.8,3.4,2.1,4.8.6.6,1.6.9,1.8,1.9-.7.6-1.2-.6-1.9-.1,1.6,3.1,3.5,3.9,7.3,3.3C620.1,354.1,618.3,354.3,617.3,352.9Zm-3.8,19.8c.8-.2.9.6,1.3,1a7.36,7.36,0,0,0,2.7,1.9,1.65,1.65,0,0,0,1.2,0c.5-.3.1-.7-.1-1.1-.4-1.3-.9-2.6-1.3-3.9,1.1-.4.9.8,1.3,1.1.6.5.7,2.3,1.6,1.6s-.3-1.6-1-2.3c-.1-.1,0-.2,0-.6,2.7,1.1,4.1,4,7,4.4a38.38,38.38,0,0,0,8.3,0c.4-.7-.9-.9-.4-1.7.5-.1.8.2,1.1.5.5.5,1.2,1,1,1.7-.2.9-1.2.4-1.8.5a18.37,18.37,0,0,0-5.1.5c5.3,1.1,9.3,0,11.3-3.1a11.61,11.61,0,0,1-5.3-.8c-.7-.3-1.2-.2-1.1.8-.2.3-.5.1-.7,0-2.7-1.9-5.8-2.6-8.9-3.4a31,31,0,0,1-6.6-1.9,2,2,0,0,1-.5-.1c-.2.2.1.3.2.3.9,1-.3,1.6-.3,2.5-1.9-1.3-2.4-3.8-4.4-5.2-.2,2.6.4,4.9.5,7.3-.7,0-.5-1-1.2-1.1.4,1.5.6,3,1.9,4.1C614.9,374.3,613.1,373.7,613.5,372.7Zm20.3-4.1c5.2-2.6,5-9.8,1.8-14.6-1.6,2.3-1.7,4.9-1.2,7.6.4,2.3.4,4.6-1.1,6.6-.1.2-.6.3-.3.6S633.6,368.8,633.8,368.6ZM630.3,350c1.2-.3,1.4.8,1.8,1.5.7,1.2,1.2,2.5,1.8,3.8,1.3-3.8-1.5-7.8-6.1-8.8.4,1.2,1.8,1.6,2.2,2.7-.7.5-1.1-.2-1.5-.5-2.3-2.1-5.3-3.1-7.7-5.4.2,5.5,5.4,11.2,12.1,13.7C633,354.2,631.6,352.1,630.3,350Zm8.5,18.2c-1.1,1.8-3.1,2-4.9,2.6a8.44,8.44,0,0,0,10.3-5.2,19.06,19.06,0,0,0,1-3.4c.1-.5.8-1.3,0-1.6s-1.3.4-1.6,1c-.6,1.1-1.1,2.3-1.7,3.4a3.87,3.87,0,0,1-2.4,2.3,25.43,25.43,0,0,0,4.3-9.5c-2,1.4-4.6,2.2-4.9,4.4a10.59,10.59,0,0,1-5.2,7.8C636,369.7,637.3,368.6,638.8,368.2Zm-5.8-1.4c1.4-2.5.9-4.9,0-7.3-1.2-3.1-3.9-3.3-6.7-3.5a5.57,5.57,0,0,0,2.7,4.3C631.2,361.8,633.3,363.6,633,366.8Zm11.1-23.7c-3.3-1.6-6.3-3.7-10.3-2.7C636.8,343.6,641.2,344.7,644.1,343.1Zm-5.5,17.1c2.5-2.6,2.5-4.8.2-8.1C636.2,354.8,638.7,357.4,638.6,360.2Zm-24.7,4.2c1.8,1.8,3.6,2.5,5.8,1.5.5-.2,1.1-.5,1.1-1.1s-.7-.9-1.2-1C617.8,363,616,363.5,613.9,364.4Zm6.7-7.5a24.7,24.7,0,0,0,6.1,3C624.8,356,624.5,355.9,620.6,356.9Zm16.1-18c2.6.3,4.9,3.2,8.2,1.1A14.05,14.05,0,0,0,636.7,338.9Zm8.1-2.5c-2.3-1-5.5-.3-6.6,1.4C640.5,337.3,643,338.9,644.8,336.4Zm-6.5-.4a33.69,33.69,0,0,1,5.3-1.2c.4,0,.6-.3.7-.7a.68.68,0,0,0-.3-.5C642.4,332.7,638.8,334.1,638.3,336Zm-19.2,31.4c2.3.7,4.4,1.6,7.1,1.4C623.7,367.6,621.8,366.3,619.1,367.4Zm22.2-9.4c2.1-.5,1.7-1.9,1.4-3.2-.1-.3-.1-.9-.7-.8a.88.88,0,0,0-.7,1.1A7.06,7.06,0,0,1,641.3,358Zm-22.7-19.9c0-1.2.8-2.2.3-3.4,0-.1-.5-.2-.5-.1a3.43,3.43,0,0,0-.1,3.4A.77.77,0,0,1,618.6,338.1Zm3,13.6a.1.1,0,0,1-.1.1h.3a.1.1,0,0,0-.1-.1Z"/><path class="cls-1" d="M661.8,374.7c.5,2.4-.7,2.7-2.5,2.6q-3.45-.15-6.9,0c-1.1,0-1.7-.3-1.7-1.5V364c0-1.2.6-1.5,1.7-1.5,2.7.1,5.3.1,8,0a1.62,1.62,0,0,1,1.9,1.4c.9,3,5.2,5.2,8.2,4.1a1.76,1.76,0,0,0,1.2-2.6,7.23,7.23,0,0,0-3.8-3.7c-3.2-1.6-6.8-2.5-9.8-4.6-4.1-2.8-7.3-6.2-7.6-11.6-.3-6.1,2.9-9.9,7.8-12.3s10.2-1.6,15.2.5c1,.4,1.8,1.1,1.9-.7,0-.7.7-.6,1.2-.6l8-.3c.9,0,1.4.2,1.4,1.3,0,3.6.1,7.3.2,10.9,0,1.1-.5,1.5-1.5,1.5-2.7,0-5.5,0-8.2.1-1.1,0-1.4-.6-1.8-1.4a6.94,6.94,0,0,0-5.4-4.1c-1.4-.2-2.9.3-3.2,1.8-.3,1.2.7,2.1,1.9,2.7,4.3,2.3,8.5,4.9,12.9,7,5.4,2.6,8,9.1,6.7,15.1a9.76,9.76,0,0,1-3.3,5.7C677.3,378.8,670,379.5,661.8,374.7Zm18.9-3.7c3.6-.2,5.8-2.3,5.9-5.7,0-.4.3-1.1-.4-1.2-.4-.1-.7.3-.8.8a11.33,11.33,0,0,1-4.7,6.1l-.1.1v.1A.35.35,0,0,1,680.7,371ZM677,334.8c-2.2,1-4.7,1.6-6.7,3-.6-.9.5-1.1.7-1.7s.4-1,.1-1.4-.9,0-1.3.1c-2.6.6-3.2,2.9-4.3,5.4,1.1-.7,1.8-1.1,2.5-1.5s1.2-1.6,2.4-1c-.2.4-.5.7-.8,1.2,1.2,0,2.3.1,3.4,0a5,5,0,0,0,4.3-4.4c-.1,0-.1.1-.2.1s.1.1.1.2l.1-.1C677.2,334.7,677.2,334.6,677,334.8ZM661.4,350c.1.1.2.2.2.3a.33.33,0,0,0,0-.5c-2.2-3.7-1.8-8.6-5.1-12.1a5.51,5.51,0,0,0,.3,3.2C657.8,344.2,658.3,347.8,661.4,350Zm1.3-13.5c.1-.3,0-.6.2-.8a1.3,1.3,0,0,0-.2-1.9c-.7-.6-1.1.3-1.5.6-2.3,1.9-2.3,3.9-.2,6.8.2-1.7-.1-3.6,1.7-4.7.3,1.1-.5,2-.6,3.1a4.69,4.69,0,0,0,3.5,5.3c-2.8-4.1,1-7.4,1.1-11.3C664.8,334.3,664.4,336.3,662.7,336.5ZM656,351.7c-.7.6-1.2-.6-1.9-.1,1.6,3.1,3.5,3.9,7.3,3.3-1.4-.7-3.2-.6-4.2-2,.6-.6,1.1.1,1.7.2,1.7.4,3.3,1.4,5.2,1-.5-.8-1.4-.6-2-.9-2.3-1-4.6-2-5.7-4.4,1-.4,1.2.6,1.7,1,.9.7,1.7,1.8,3.6,1.9-3.2-2.6-4.2-5.8-5.3-9-.4-1.3-1.4-2.1-3.1-2.7.8,2.4,1.2,4.5,2.3,6.5.4.7,1.3,1.2.8,2.3-1.5-.9-1.8-2.6-2.6-4.1-.3-.5-.4-1.1-1.1-1-.9.1-.5.8-.5,1.3-.2,2,.8,3.4,2.1,4.8C654.8,350.4,655.8,350.6,656,351.7Zm-2.6,21c.8-.2.9.6,1.3,1a7.36,7.36,0,0,0,2.7,1.9,1.65,1.65,0,0,0,1.2,0c.5-.3.1-.7-.1-1.1-.4-1.3-.9-2.6-1.3-3.9,1.1-.4.9.8,1.3,1.1.6.5.7,2.3,1.6,1.6s-.3-1.6-1-2.3c-.1-.1,0-.2,0-.6,2.7,1.1,4.1,4,7,4.4a38.38,38.38,0,0,0,8.3,0c.4-.7-.9-.9-.4-1.7.5-.1.8.2,1.1.5.5.5,1.2,1,1,1.7-.2.9-1.2.4-1.8.5a18.37,18.37,0,0,0-5.1.5c5.3,1.1,9.3,0,11.3-3.1a11.61,11.61,0,0,1-5.3-.8c-.7-.3-1.2-.2-1.1.8-.2.3-.5.1-.7,0-2.7-1.9-5.8-2.6-8.9-3.4a31,31,0,0,1-6.6-1.9,2,2,0,0,1-.5-.1c-.2.2.1.3.2.3.9,1-.3,1.6-.3,2.5-1.9-1.3-2.4-3.8-4.4-5.2-.2,2.6.4,4.9.5,7.3-.7,0-.5-1-1.2-1.1.4,1.5.6,3,1.9,4.1C654.8,374.3,653.1,373.7,653.4,372.7Zm20.3-4.1c5.2-2.6,5-9.8,1.8-14.6-1.6,2.3-1.7,4.9-1.2,7.6.4,2.3.4,4.6-1.1,6.6-.1.2-.6.3-.3.6A.6.6,0,0,0,673.7,368.6Zm-3.8-19.5c-.7.5-1.1-.2-1.5-.5-2.3-2.1-5.3-3.1-7.7-5.4.2,5.5,5.4,11.2,12.1,13.7.2-2.7-1.3-4.7-2.5-6.9,1.2-.3,1.4.8,1.8,1.5.7,1.2,1.2,2.5,1.8,3.8,1.3-3.8-1.5-7.8-6.1-8.8C668,347.6,669.5,348,669.9,349.1Zm8.9,19c-1.1,1.8-3.1,2.1-5,2.7,4,1.4,8.9-1.1,10.3-5.3a19.06,19.06,0,0,0,1-3.4c.1-.5.8-1.3,0-1.6s-1.3.4-1.6,1c-.6,1.1-1.1,2.3-1.7,3.4-.4.8-.8,1.7-2,1.9a26.51,26.51,0,0,0,4-9.2c-2.2,1.4-4.7,2.2-5,4.2a10.85,10.85,0,0,1-5.1,7.8C675.9,369.8,677.2,368.6,678.8,368.1ZM666.2,356a5.92,5.92,0,0,0,2.7,4.3c2.3,1.6,4.4,3.3,4.1,6.5,1.4-2.3,1-4.6.2-6.8C672.1,356.8,669.4,356,666.2,356ZM684,343.1c-3.3-1.6-6.3-3.8-10.3-2.7C676.6,343.5,681,344.7,684,343.1Zm-5.5,17.1c2.5-2.6,2.5-4.8.2-8.1C676.2,354.8,678.6,357.4,678.5,360.2Zm-24.6,4.2c1.6,1.5,3.2,2.4,5.3,1.6.7-.3,1.7-.4,1.5-1.3-.1-.7-1-1.1-1.8-1.2A8.39,8.39,0,0,0,653.9,364.4Zm22.7-25.5c2.6.3,4.8,3.1,8.3,1A15.06,15.06,0,0,0,676.6,338.9Zm-16.1,18a21.44,21.44,0,0,0,6.1,2.9C664.7,356,664.4,355.9,660.5,356.9Zm17.6-19.7c0,.2.1.4.1.6h4.7c.9,0,1.6-.5,1.6-1.3s-1-.7-1.5-.6A9.47,9.47,0,0,0,678.1,337.2Zm.1-1.2a29.11,29.11,0,0,1,5.1-1.2.88.88,0,0,0,.9-.8c0-.1-.1-.4-.3-.4C682.3,332.7,678.7,334.1,678.2,336Zm-19,31.4c2.2.6,4.2,1.5,6.6,1.4C662.9,366.9,661.3,366.6,659.2,367.4Zm22.1-9.5c1.8-.4,1.7-1.5,1.5-2.7-.1-.5-.1-1.3-.8-1.2s-.7.7-.7,1.3ZM658.4,338c.2-1.1,1-2.1.4-3.3,0-.1-.5-.1-.5-.1A3,3,0,0,0,658.4,338Zm3.3,13.8-.1-.1c-.2.1-.2.2,0,.2a.1.1,0,0,0,.1-.1Z"/><path class="cls-2" d="M390.8,425.3c3.2-10.1,5.4-20.2,7.7-30.3.4-1.7-.2-4,1.2-4.9,1.2-.8,3.3-.2,4.9-.2,4.2.1,8.4-.4,12.6.3,10.5,1.8,15.6,10.6,12,20.6-3.2,8.5-9.9,12.5-18.4,13.9C404.2,425.8,397.6,424.9,390.8,425.3Zm13.1-2.7h0a12.19,12.19,0,0,0,2.7,0c9.6-.5,14.7-4.8,16.7-14a23.48,23.48,0,0,0,.5-3.7c.4-6.4-3.3-10.9-9.5-12a28.1,28.1,0,0,0-5-.4c-4.2,0-4.7.4-5.7,4.4-1.9,7.6-3.7,15.2-5.5,22.8-.6,2.3-.3,2.7,2.1,2.9C401.4,422.7,402.7,422.6,403.9,422.6Z"/><path class="cls-2" d="M505.9,406.5c1.6-1.4,2.9-2.5,4.2-3.6a7.82,7.82,0,0,1,6.1-1.6c1,.2,1.3.6.7,1.5a6.47,6.47,0,0,0-.9,1.6c-.5,1-1,1.5-2.2.9a4.79,4.79,0,0,0-5.3,1,12.06,12.06,0,0,0-4.3,6.7c-.8,3.5-1.7,7-2.2,10.7-.1,1.1-.5,1.5-1.7,1.4-1.4-.1-2.9,0-4.6,0a135.44,135.44,0,0,0,4.6-17.1,50.67,50.67,0,0,0,.9-5.4c.1-.9.4-1.3,1.3-1.1a2.13,2.13,0,0,0,.8,0c3.5.1,3.5.1,2.7,3.6A5.31,5.31,0,0,0,505.9,406.5Z"/><path class="cls-2" d="M518.1,425.1a136.89,136.89,0,0,0,5.2-20.5c.6-3.3.6-3.2,4-3.3h.8c1.5-.2,1.8.2,1.3,1.7a128.36,128.36,0,0,0-4.8,19.2,7.85,7.85,0,0,0-.2,1.4c0,1.3-.5,1.7-1.8,1.5S519.7,425.1,518.1,425.1Z"/><path class="cls-2" d="M445.9,401.3a125.89,125.89,0,0,0-4.4,16.5c-.4,2-.8,4-1.1,6-.1,1.2-.6,1.5-1.7,1.4-1.5-.1-2.9,0-4.6,0a134,134,0,0,0,4.3-15.9c.5-2.2.8-4.4,1.2-6.6.1-.7.1-1.4,1.2-1.3C442.4,401.3,444.1,401.3,445.9,401.3Z"/><path class="cls-2" d="M444.1,395.4a2.21,2.21,0,0,1-2.2-2.2c-.1-1.6,1.9-3.2,3.8-3.3,1.5,0,2.6.7,2.7,2.3S446.3,395.4,444.1,395.4Z"/><path class="cls-2" d="M528.2,395.4a2.22,2.22,0,0,1-2.3-2.2c-.1-1.5,1.8-3.3,3.7-3.3,1.5,0,2.6.6,2.7,2.3C532.5,393.7,530.4,395.4,528.2,395.4Z"/><path class="cls-1" d="M494.9,318.2c.1-.4.1-.8.5-1C495.6,317.7,495.2,317.9,494.9,318.2Z"/><path class="cls-2" d="M440.4,193.2c-.1.1-.1.2-.2.3-.2-.3,0-.3.2-.3Z"/><path class="cls-3" d="M328.6,355c.1-4.4,2.7-7.6,5.6-10.5.9-.9,2-1.6,2.5-2.9-2,.9-3.2,2.7-4.8,4-.1-.1-.2-.3-.4-.4a22.63,22.63,0,0,0,2.6-7.7c.4-2.8,3.5-4.8,6.4-4.4.9.1.7.7.6,1.2a8.18,8.18,0,0,1-2.4,4.8c-.6.6-1.5,1-1.8,2.2,1.4,0,2.9-.9,4.3.8-1.6.2-2.2,2.7-4.3,1.4-.3-.2-.6.2-.6.4-.3,3.2-3.2,4.8-4.7,7.2a36.81,36.81,0,0,1-3,3.9Z"/><path class="cls-3" d="M334.5,356.7c-.3-.5-.6-.2-.8.1-2.9,3.5-4.6,7.6-2.3,12.6.3.6.8,1.2.4,2-2.6-1.5-4.8-6.8-4.3-10.1a11.2,11.2,0,0,1,2.3-5.5c1.3-1.6,2.7-3.2,4.1-4.8a23.35,23.35,0,0,0,3.2-5.4c1.7,3.9,0,6.6-1.9,9.3-.4.5-1.2.9-.7,1.8Z"/><path class="cls-3" d="M304.9,345.9c2.7,7,3.1,13.9-.4,20.7-.5-.4-.3-1.3-.6-2-.7-1.8-1.1-3.6-1.8-5.3C299.9,354.1,301.6,349.9,304.9,345.9Z"/><path class="cls-3" d="M325.5,354.5a63.63,63.63,0,0,1-1.5-8.7,9.16,9.16,0,0,1,1.5-6.2,12.78,12.78,0,0,0,2.2-5.8,12.8,12.8,0,0,1,1,11.1C327.5,347.9,325.9,350.7,325.5,354.5Z"/><path class="cls-3" d="M274.3,374c0-2.2,1.3-3.4,2.4-4.7,1.6-1.8,3.3-3.6,4.8-5.5a19.62,19.62,0,0,0,3.7-8.3c2.2,3.8.9,8.1-1.4,11.2C281.4,370,277.7,371.6,274.3,374Z"/><path class="cls-3" d="M282,338.5c-1.9-.4-3.4-3.8-2.6-5.3.5-.8,1-.2,1.4,0,1.3.9,1.7,2.3,1.2,4.7.7.2.9-.4,1.3-.7a2.28,2.28,0,0,1,1.7-.8c-2.8,5.4-3.1,11.1-1.9,17a14.66,14.66,0,0,1-3.7-7.2A8.88,8.88,0,0,1,282,338.5Z"/><path class="cls-3" d="M296.3,357.6c4.5.5,8,8.3,7.8,14.6C300.1,367.9,297,363.4,296.3,357.6Z"/><path class="cls-3" d="M306.3,366.8c-.1-4.6,2.8-9,6.7-10.3,1.6-.5,1.9,0,1.5,1.4a8.18,8.18,0,0,1-2.3,4.4,43.73,43.73,0,0,1-5.9,4.5Z"/><path class="cls-3" d="M302.2,337.4c3,5.2-1,9.2-2,13.9C297.9,347.8,299,340.9,302.2,337.4Z"/><path class="cls-3" d="M337.2,359.7c2.3,5.1-1.5,10,.1,14.9-2.9-.7-3.4-3.5-3-6C334.7,365.5,336.7,363,337.2,359.7Z"/><path class="cls-3" d="M331.1,372.2a23.44,23.44,0,0,1-8.9-1.1,3.61,3.61,0,0,1-2.7-3.8C324.2,366.9,327.5,369.4,331.1,372.2Z"/><path class="cls-3" d="M274.8,334c5.5,2.6,6,3.5,3.1,10.6-1.2-3.6-2.6-7-3.1-10.6Z"/><path class="cls-3" d="M313.6,337.4c3.8,4.1,1.4,7.5-.8,10.9C309.5,344.5,313.1,341.1,313.6,337.4Z"/><path class="cls-3" d="M329.3,345.7a14.56,14.56,0,0,0,.6-9,3.73,3.73,0,0,1,2.6-3.4c1-.2.7.6.7,1.1a17.46,17.46,0,0,1-3.5,11.7C329.6,345.9,329.4,345.8,329.3,345.7Z"/><path class="cls-3" d="M291.4,337c-.6,1.1.7,2.8-1.5,3-.1,0-.3.4-.3.5.9,2.2-1.1,2.5-2.2,3.3a10,10,0,0,0-3.8,4.1C283.9,343,285.7,340.5,291.4,337Z"/><path class="cls-3" d="M287.8,368.9c.9.2,1.3-.7,2.2-.8a2.78,2.78,0,0,1-1.4,3.3,14.66,14.66,0,0,1-5.4,1.6c-2.1.3-4.3.6-6.7,1a3.24,3.24,0,0,1,2.4-1.4c3.1-1,6.2-1.9,8.9-3.7Z"/><path class="cls-3" d="M323,343.8c-1.6-3.3-2.3-6.2-.6-9.3.6-1,1-1.2,1.8-.3,1.2,1.5,1.9,3,.6,4.9A9.11,9.11,0,0,0,323,343.8Z"/><path class="cls-3" d="M292.8,350c5,.9,6.6,4.9,8.2,9C296.7,357.3,294.4,354,292.8,350Z"/><path class="cls-3" d="M320.9,342c-4.8-1.2-6.1-3.1-5.3-7.3.2-1.2.5-1.2,1.4-.5C319.4,336.1,319.6,339.1,320.9,342Z"/><path class="cls-3" d="M308.2,357.2c0-3.8-2.1-8,1.6-11.3C312.4,350,310.2,353.6,308.2,357.2Z"/><path class="cls-3" d="M297.8,347.5c-2.3-4.2-1.5-10.8,1.7-14.5C300.2,338.1,297.4,342.6,297.8,347.5Z"/><path class="cls-3" d="M278.8,350.4c4,2.4,5.4,7.5,2.9,10.8C280.9,357.6,278.3,354.5,278.8,350.4Z"/><path class="cls-3" d="M332.1,373.6c-3.3.8-6.5,1.6-9.9.7a8.65,8.65,0,0,1-1.7-.7c-.5-.2-1.1-.6-.9-1.2s.8-.6,1.3-.5C324.5,372.9,328.4,372.6,332.1,373.6Z"/><path class="cls-3" d="M326.7,365c-2.5-2.6-4.5-4.7-4.4-7.9,0-.7.1-1.7.6-1.9.7-.2,1.3.6,1.9,1.1a2.72,2.72,0,0,1,.6,1.7C325.8,360.2,326.2,362.3,326.7,365Z"/><path class="cls-3" d="M310.9,365a10.61,10.61,0,0,1-5.1,8.8C305.7,369.9,307.5,367.2,310.9,365Z"/><path class="cls-3" d="M310.5,355.4a9.44,9.44,0,0,1,2.8-4.7,49.24,49.24,0,0,1,3.9-3.3,8.85,8.85,0,0,1-6.7,8Z"/><path class="cls-3" d="M334.5,356.7c1.3-.4,1.5-1.8,2.4-2.5.3-.3.7-.6,1.1-.2a1.1,1.1,0,0,1,0,.8c-1.9,3.3-3.4,6.8-6.7,9.2a12.92,12.92,0,0,1,2.7-6.1c.2-.3.6-.6.5-1.2Z"/><path class="cls-3" d="M292.7,332.8c-1.4,1.6-2.4,3-3.6,4.2s-2.9,1.8-4.1,3.3C284.8,337.2,289,333.1,292.7,332.8Z"/><path class="cls-3" d="M296.2,349.1c-4.1-1-5.6-3-5.1-7.2,2.6,1.9,4.6,4,5.1,7.2Z"/><path class="cls-3" d="M284.1,355.4c-.3-3,.4-5.4.8-7.8a2.41,2.41,0,0,1,1.2-1.6,1.72,1.72,0,0,1,1.8-.2c.7.4.2,1.1,0,1.7C287.1,350.2,285,352.2,284.1,355.4Z"/><path class="cls-3" d="M295.7,344.5c-2.5-4.5-2.8-8-1-10.3C296.9,337.5,295.3,341.1,295.7,344.5Z"/><path class="cls-3" d="M280.1,374.4c2.3-.4,4.6-.9,6.9-1.3a3.17,3.17,0,0,1,1.6.4,2,2,0,0,1,1.3,2c-.2,1.1-1.3.6-1.9.5C285.3,375.6,282.9,374.4,280.1,374.4Z"/><path class="cls-3" d="M340.9,375.6a5.08,5.08,0,0,1-.2-7.2c.2-.2.4-.7.8-.6s.6.6.6,1c0,1.4.3,2.9-.5,4.3A5.31,5.31,0,0,0,340.9,375.6Z"/><path class="cls-3" d="M276.6,367.7c1.2-2.4.7-4.9.6-7.6a3.63,3.63,0,0,1,2.4,3.2C279.9,365.6,277.8,366.4,276.6,367.7Z"/><path class="cls-3" d="M287.8,368.9c-2.3-.3-4,1.5-6.1,1.9l-.3-.3c1-1,2-2.1,3-3.1,1.1-1.2,2.4-.4,3.5-.6.6.8-.8,1.3-.1,2.1Z"/><path class="cls-3" d="M280.5,360.6c-1.6-1.4-3.8-2.6-3-5.7C279.4,356.5,279.9,358.5,280.5,360.6Z"/><path class="cls-3" d="M322.7,363.7c2.2.9,4,1.6,4.3,4.3C325.1,366.8,323.1,366.3,322.7,363.7Z"/><path class="cls-3" d="M320.4,336.8a2.38,2.38,0,0,1-1.2-1.7c-.3-.9.7-1.1,1.1-1.5.2-.1.4-.5.7-.2.5.5.3,1,.1,1.5A10.66,10.66,0,0,0,320.4,336.8Z"/><path class="cls-3" d="M284.8,332.9c.7-.2.9.1.8.6a2.85,2.85,0,0,1-2,2.1c-.6.2-.7-.7-.7-1C282.9,333.3,284.2,333.4,284.8,332.9Z"/><path class="cls-3" d="M275.7,341.3c.2.7.1,1.2-.4,1a3.18,3.18,0,0,1-1.5-2.5c-.1-.4-.1-1,.5-.9C275.7,339.1,275.4,340.5,275.7,341.3Z"/><path class="cls-3" d="M278.1,348.3c-1.5-.6-1.6-1.7-1.1-3.3.5,1.2,1,2.1,1.4,3.1C278.3,348.2,278.2,348.2,278.1,348.3Z"/><path class="cls-3" d="M273.7,369.9v-3C274.8,367.8,274.6,368.7,273.7,369.9Z"/><path class="cls-3" d="M285.7,335.9c-.2.1-.4.3-.6.4,0-.2-.2-.4-.1-.5a1.61,1.61,0,0,1,.7-.4Z"/><path class="cls-3" d="M328.9,347.1c0,.1-.1.2-.1.3-.2-.1-.3-.2-.5-.2.1-.1.2-.2.3-.2S328.8,347,328.9,347.1Z"/><path class="cls-3" d="M329.7,346.1c-.2.2-.2.7-.6.4s0-.6.2-.8C329.4,345.8,329.6,345.9,329.7,346.1Z"/><path class="cls-3" d="M331.1,346.2a.66.66,0,0,1,.3-.9c.1.1.2.3.4.4a.79.79,0,0,1-.7.5Z"/><path class="cls-3" d="M310.5,355.4c0,.2-.1.3-.1.5l-.2-.2q.15,0,.3-.3Z"/><path class="cls-3" d="M278.4,348.1c.1.2.1.4.2.6h0a1.76,1.76,0,0,1-.5-.4C278.2,348.2,278.3,348.2,278.4,348.1Z"/><path class="cls-3" d="M278.6,348.7c.1.1.2.1.3.2h-.1c-.2-.1-.2-.1-.2-.2Z"/><path class="cls-3" d="M331.1,346.2c-.1.1-.1.2-.2.3a.35.35,0,0,0-.1-.2.37.37,0,0,1,.3-.1Z"/><path class="cls-3" d="M328.6,355l-.2.2c0-.1.1-.1.2-.2Z"/><path class="cls-3" d="M276.1,368.5a.52.52,0,0,1-.4.2c.1-.1.1-.3.2-.4Z"/><path class="cls-3" d="M274.8,334c-.1,0-.1-.1-.2-.1h.1a.1.1,0,0,1,.1.1Z"/><path class="cls-3" d="M306.3,366.8c0,.1,0,.1-.1.2h-.1l.2-.2Z"/><path class="cls-3" d="M275.9,368.3c.1-.2.2-.5.5-.2a1.87,1.87,0,0,0-.3.4Z"/><path class="cls-3" d="M296.2,349.1h.2c-.1.1-.1,0-.2,0Z"/><path class="cls-3" d="M281.7,370.8c-.2,0-.3.1-.5.1.1-.1.1-.3.2-.4Z"/><path class="cls-3" d="M412.5,355.6c2.4,4.6,2.8,8.8,1,13.1a9.6,9.6,0,0,1-8.4,6C410.8,369.6,411.3,362.8,412.5,355.6Z"/><path class="cls-3" d="M436.4,363.3c-3.6-2.6-7.6-3.1-11.9-3-2.6.1-5.1.1-7.5,1.6a5.78,5.78,0,0,1,3.7-3.9c6.4-2.1,10.2-1.9,14.7,3.6.4.5.8.9,1.2,1.4A1.24,1.24,0,0,0,436.4,363.3Z"/><path class="cls-3" d="M444.1,365.1c-.6,1.3,1.4,1.6,1.2,2.7-4.4-1.7-7.3-5-7.4-8.6-.2-4.1,1.3-6.9,4.6-8.5-.4,1.9-.8,3.6-1.1,5.4-.4,2.8-.4,5.6,1.3,8,.4.5.5,1.5,1.4,1Z"/><path class="cls-3" d="M448.7,373.7c-4,0-7.8,1.2-11.8,1.7a11.85,11.85,0,0,1-4.2,0,3.63,3.63,0,0,1-1.7-.7,2.4,2.4,0,0,1-.7-3c.4-.9,1.3,0,1.9.3,3.1,1.3,6.2.2,9.3.2A19.31,19.31,0,0,1,448.7,373.7Z"/><path class="cls-3" d="M425.2,336.5c1,.4,1.2-.6,1.7-1,1.1-.7,1.9-1.8,3.5-1.9a4.18,4.18,0,0,1-1.3,3.4l-10.2,10.5-.2-.2c.6-3,2.6-5.3,4.5-7.6.9-.9,2.4-1.6,2-3.2Z"/><path class="cls-3" d="M425.9,345.7c.9,3.5,1.2,6.7,3.1,9.7l-6.8.3C423.6,352.5,423.8,349.1,425.9,345.7Z"/><path class="cls-3" d="M443.8,334.4c-3.6,5-9.3,5.1-14.6,6.2A27.31,27.31,0,0,1,443.8,334.4Z"/><path class="cls-3" d="M446.9,371.7c-3-.8-6-1.2-9-1.8a5.86,5.86,0,0,1-3.9-2.6c-.6-.9-.2-1.3.7-1.2C439.5,366.6,443.7,368.1,446.9,371.7Z"/><path class="cls-3" d="M425.3,336.5c-3.7,3.4-6.8,7.2-8.3,12.2.4-5.4,1.5-10.5,6.5-13.6.7-.4,1.3-1.5,2.1-.9,1.1.7-.4,1.5-.3,2.3Z"/><path class="cls-3" d="M450,369.3c-.6,1,1,1.4.6,2.5-2.5-2.1-4-4.9-6.5-6.8h0c-.4-1.3-1.4-2.4-1.8-3.7-.8-3-.7-3.7,2.2-5.8a29.94,29.94,0,0,1,0,3c-.3,4.5,2.2,7.6,4.8,10.8.3.2.5.3.7,0Z"/><path class="cls-3" d="M416.9,337.4c1.3-.9,1.5-2.8,3.1-3.5.5-.2.9-1,1.4-.4s.9,1.2.3,1.9c-1.6,1.8-3.5,3.2-4,5.7-.5,2.2-1.1,4.4-1.8,7-.6-3.9.2-7.4,1-10.7Z"/><path class="cls-3" d="M427.5,343.9c3.3-1.8,11.7,1.2,14.2,4.9-2.2.5-3.8-.6-5.4-1.7C433,344.8,431.4,344.2,427.5,343.9Z"/><path class="cls-3" d="M412.9,372.1c-.6,1,0,.9.6.6a6.37,6.37,0,0,1,4.1-.5,4,4,0,0,1,2,1.1c.4.5.9,1,.6,1.7s-1,.2-1.5.2a18.94,18.94,0,0,0-7.5.1c-.4.1-.6-.2-1-.6a3.33,3.33,0,0,0,2.4-2.8C412.7,371.9,412.8,372,412.9,372.1Z"/><path class="cls-3" d="M434.5,358.8c-3.9-2.8-3.8-6.9-4-11.2,1.2.3,2.2.6,2.2,1.7,0,3.3,1.2,6.3,1.8,9.5Z"/><path class="cls-3" d="M418.9,348.3c1.4.1,1.6-1.4,2.5-2,.7-.5,1.3-1.2,2-1.7.1.1.2.3.3.4a53.2,53.2,0,0,0-6,11.3c-.2.4-.2,1-.8,1.2h0c-.4-2.7.8-5,1.6-7.4.2-.6,1-1,.4-1.8Z"/><path class="cls-3" d="M440.3,371.3c-2.7.2-4.9.7-7,.2a3.71,3.71,0,0,1-2.9-2.5c-.1-.3-.2-.8.3-.8a4,4,0,0,1,3.6.8C435.8,370.4,437.8,370.6,440.3,371.3Z"/><path class="cls-3" d="M412.6,371.8a6.71,6.71,0,0,1,4.6-3.9,3,3,0,0,1,3.9,2.1,19.16,19.16,0,0,0-8.2,2.1Z"/><path class="cls-3" d="M428.9,339.1c2.3-3.5,5.9-4.9,9.8-5.9.4-.1.9-.4,1.1.1s-.1.8-.5,1C435.6,335.3,432.4,337.3,428.9,339.1Z"/><path class="cls-3" d="M450.1,369.3c-.8-1.9-2.5-3.3-3.3-5.2a7,7,0,0,1-.8-4c2.6,3.1,6.4,10,6.5,11.9-1.1-.7-1.2-2.3-2.4-2.7Z"/><path class="cls-3" d="M437.1,349.9c1.5,1.3,2,2.6.8,4.2a5.71,5.71,0,0,0-.9,3.2v3.5C435.2,357.6,435.3,353.9,437.1,349.9Z"/><path class="cls-3" d="M442.6,342.6c-3.7,1.3-7.2,1.6-10.7,0C433.5,341.9,441.2,341.8,442.6,342.6Z"/><path class="cls-3" d="M443.9,338.7c-3,3.6-6.8,2.1-10.1,2.4C437,339.9,440,338.4,443.9,338.7Z"/><path class="cls-3" d="M427.3,346.6c1.6.3,2.2,1.1,2.3,2.8a46.19,46.19,0,0,0,1.1,6.1h0c-2.1-1.2-2.5-3.3-3-5.4a10.48,10.48,0,0,1-.4-3.5Z"/><path class="cls-3" d="M410.5,359.7a18.07,18.07,0,0,1-3.6,11.2C407.7,367.1,409.3,363.5,410.5,359.7Z"/><path class="cls-3" d="M416.9,337.3c-1.6,1-1.3,2.8-2.1,4.5v-6.7c0-.5-.2-1.4.5-1.4a4,4,0,0,1,2.1.7c.6.4-.1.8-.2,1.2-.2.7-.9,1.1-.3,1.7Z"/><path class="cls-3" d="M413.7,350.2a17,17,0,0,1,1.4,8.7C413.2,356.3,413.4,353.6,413.7,350.2Z"/><path class="cls-3" d="M434.7,355.3c-.9-2.1-.8-4.4-1.1-6.6C435.9,350.7,436,351.2,434.7,355.3Z"/><path class="cls-3" d="M413.3,340.4a10.77,10.77,0,0,1-1-5.6c0-.4.2-.7.7-.6a1,1,0,0,1,1,1.1v5C413.7,340.3,413.5,340.4,413.3,340.4Z"/><path class="cls-3" d="M415.2,367.1c.6-2.9.7-3,2.7-3.9A6.13,6.13,0,0,1,415.2,367.1Z"/><path class="cls-3" d="M405.2,371.1a33.87,33.87,0,0,0-.4-3.5C406.7,368.2,406.8,368.8,405.2,371.1Z"/><path class="cls-3" d="M421.9,353.7a5.5,5.5,0,0,1-2.4,2.6l-.3-.3c.5-1.1,1.1-2.4,2.7-2.3Z"/><path class="cls-3" d="M419,347.5c0,.3-.1.5-.1.8h0c-.5-.3-.5-.6-.2-1C418.8,347.4,418.9,347.4,419,347.5Z"/><path class="cls-3" d="M419.4,356.3a.52.52,0,0,1-.8.2c.2-.2.3-.4.5-.5Z"/><path class="cls-3" d="M416.8,357.5c0,.1-.1.3-.1.4-.2-.2.1-.3.1-.4Z"/><path class="cls-3" d="M424.2,343.8c.2-.1.5-.1.7-.2h0c0,.3-.1.4-.4.5Z"/><path class="cls-3" d="M424.9,343.7c.1-.1.1-.2.2-.2v.1c-.2,0-.2,0-.2.1Z"/><path class="cls-3" d="M424.5,344.1l-.4.4-.3-.3c.2-.1.3-.3.5-.4C424.3,343.9,424.4,344,424.5,344.1Z"/><path class="cls-3" d="M424,344.6l-.4.4c-.1-.1-.2-.3-.3-.4a1.38,1.38,0,0,1,.4-.3Z"/><path class="cls-3" d="M427.4,346.6a.37.37,0,0,1-.3-.1v-.2l.3.3Z"/><path class="cls-3" d="M421.9,353.8c0-.1.1-.2.1-.3.3.3,0,.2-.1.3Z"/><path class="cls-3" d="M430.7,355.4c.1.1.2.1.3.2-.3.2-.3,0-.3-.2Z"/><path class="cls-3" d="M434.5,358.8h.3v.2a.77.77,0,0,1-.3-.2Z"/><path class="cls-3" d="M436.7,362.9a.76.76,0,0,1,.2.4c-.2,0-.3-.1-.5-.1Z"/><path class="cls-3" d="M406.7,371.6l-.1.1c0-.1-.1-.1-.1-.2a.1.1,0,0,1,.1-.1C406.6,371.5,406.6,371.5,406.7,371.6Z"/><path class="cls-3" d="M394.7,334c-1.4,2.8-3.2,4-6,3.8-3.8-.2-7.6-1-11.5-.1C382.4,333.5,388.5,334.3,394.7,334Z"/><path class="cls-3" d="M384.8,374.9c-3.4-.3-6.2-1.4-7.8-4.7-.8-1.6-2.5-2.3-4.2-3a7.4,7.4,0,0,1,9.7,2.7c.9,1.5,1.7,3.2,2.5,4.8C384.9,374.8,384.8,374.8,384.8,374.9Z"/><path class="cls-3" d="M363.5,342.8c0-1.2-1.1-1.1-1.8-1.6-2.3-1.4-4.9-2.4-6.6-4.6-.3-.4-.6-.9-.9-1.4s-.7-1-.3-1.5.9,0,1.4.1c5.5,1.5,8.8,5.5,11.6,10.1l-.4.4c-.3-.1-.7-.2-1-.3h0a.37.37,0,0,0-.4-.4h0c-.3-.5-.8-1.1-1.6-.8Z"/><path class="cls-3" d="M374.5,341.7a8.83,8.83,0,0,1,8-1.2c3.2.8,6.3,1.7,9.7,1.3.9-.1,2.8,2,2.9,2.9s-.6.7-1,.8c-3.1.5-6.2.7-8.3-2.3-1.3-1.8-3.2-2.1-5.2-2.1S376.5,341.5,374.5,341.7Z"/><path class="cls-3" d="M365.6,368a18.07,18.07,0,0,0-4.8-11.7,6.71,6.71,0,0,1-2-4.5c4.7,2.2,9.8,9.2,7.6,15.1-.2.4-.2,1-.8,1.1Z"/><path class="cls-3" d="M395.2,337.6c-1.1,3.1-4.1,4.3-7.6,3.4-1.8-.4-3.6-.9-5.5-1.4a10.39,10.39,0,0,0-5.8-.1C382.5,336.2,389.1,340.5,395.2,337.6Z"/><path class="cls-3" d="M369.4,346.1c-.9-4.5-3.7-8.5-1.2-13.2C371.4,337,372.9,341.1,369.4,346.1Z"/><path class="cls-3" d="M395.9,363.5c-.8,2.2.2,4.6-2.2,5.8-2.7,1.3-5.2.9-7.8-.6C390,368.5,391.6,363.9,395.9,363.5Z"/><path class="cls-3" d="M374.4,356.7c-1.6.3-2.1,1.9-3.3,2.8a10,10,0,0,1,9.7-8.9c.4,0,.9-.1,1.1.4a1.09,1.09,0,0,1-.4,1.3,12.54,12.54,0,0,1-2.4,1.6c-1.6.8-3.5,1.2-4.7,2.8Z"/><path class="cls-3" d="M367.2,367.6c1.6-5.4-.4-9.7-3.9-13.6a6.65,6.65,0,0,1,5.8,4.1c1.4,3.5.7,6.8-1.6,9.8Z"/><path class="cls-3" d="M365.1,371.4c3.1-2.9,5.7-2.4,10.9,1.9-1.3,1.6-2.7,1.9-4.4.4S367.6,371.6,365.1,371.4Z"/><path class="cls-3" d="M362.3,373.1c4.1-1.3,7.4-.5,10.3,2.5C368.7,376.6,365.4,376.1,362.3,373.1Z"/><path class="cls-3" d="M367.6,354.7a58.41,58.41,0,0,1-5.3-3.3,6.59,6.59,0,0,1-2.2-8.3c1,5.2,5.1,7.8,7.9,11.3A1.38,1.38,0,0,0,367.6,354.7Z"/><path class="cls-3" d="M394.1,373.1l-.1.1c-.3.9,1.7,1.8.6,2.3a4,4,0,0,1-4.3-.5c-.8-.6-1-1.6-2-1.9h0c-.1-1.2-1.4-1.5-1.8-2.4l.3-.3c2.3.8,4.7,1.5,7,2.3h0v.5a.37.37,0,0,1,.3-.1Z"/><path class="cls-3" d="M373.1,344.2c.5,3.4.8,6.6-1.5,9.5C369.9,350.7,370.5,347.1,373.1,344.2Z"/><path class="cls-3" d="M360.1,359.6c-2.2-2.1-3.8-4.5-3.4-7.7.6-.3.8.2.9.5a22.78,22.78,0,0,0,4.3,7c.2.3,1.7,1.3-.2,1.4h0a1.74,1.74,0,0,0-1.6-1.2Z"/><path class="cls-3" d="M370,366.6c.8-2.4,1.3-5,3.6-6.6,1.3,3.9.6,5.3-3.3,6.9Z"/><path class="cls-3" d="M355.1,339c1.5-.1,2.8,1.1,4.2,2.1,1,.7.2,1.4-.5,1.6-1.5.5-4.3-1.1-4.8-2.6C353.6,339,353.7,338.8,355.1,339Z"/><path class="cls-3" d="M354.7,365.9a3.14,3.14,0,0,1,3.8,1.1,3.87,3.87,0,0,1-.1,5.3A10.74,10.74,0,0,0,354.7,365.9Z"/><path class="cls-3" d="M376.8,336c.1-.5.9-.6.9-1.2h0a17,17,0,0,1,11.1-1.7,26.24,26.24,0,0,0-11.7,3.2C377,336.2,377,336.1,376.8,336Z"/><path class="cls-3" d="M374.4,357.5c.1-.3.5-.5,0-.8h0c1.1.5,1.7-.5,2.5-.9a9.94,9.94,0,0,1,5.1-1c-2.1,2.3-4.8,2.8-7.6,2.7Z"/><path class="cls-3" d="M364.7,339.2a18.06,18.06,0,0,1-4.7-5.9C363.6,333.8,364.4,336.2,364.7,339.2Z"/><path class="cls-3" d="M362.6,363.1a5.06,5.06,0,0,1-.6,3.5c-.4.6-.9,1.6-1.6,1.4s-1-1.1-1.3-1.8c-.4-1,.7-1,1.1-1.4A16.59,16.59,0,0,1,362.6,363.1Z"/><path class="cls-3" d="M361.8,360.9c0,1.4-.3,2.6-2.1,2.1h0c.5-1-.5-1.1-.9-1.5-.7-.6-1.4-1.1-1.5-2.1,1-.8,1.9.8,2.9.2h0a1.2,1.2,0,0,0,1.6,1.3Z"/><path class="cls-3" d="M365.6,346.6c.1.7,1,.8,1,1.5q-4.2-.3-5.1-3.6c1.4-.3,2.2,1.1,3.3,1.3h0c0,.5.3.7.8.8Z"/><path class="cls-3" d="M371.5,368.2c2.9,0,4.6,1.7,5.9,4.4C374.6,372,373.6,369.4,371.5,368.2Z"/><path class="cls-3" d="M385.6,367.5c2-.8,3.2-2.3,4.5-3.8.3-.4.9-1,1.4-.5s0,1.1-.4,1.6C389.6,366.2,388.1,367.7,385.6,367.5Z"/><path class="cls-3" d="M364.7,345.8c.3-1.4-1.1-1.3-1.8-1.9a6.71,6.71,0,0,0-1.5-.6.69.69,0,0,1-.3-.9c.2-.5.6-.1.8,0,.5.2.9.7,1.5.5h0c.4.6.7,1.5,1.7.8h0v.5h.5c-.3,1.3,1.2,1.4,1.5,2.3l-.3.3c-.4,0-.8-.8-1.2-.1h0c.3-1,0-1.2-.9-.9Z"/><path class="cls-3" d="M373.6,335.7c-.9.1-.8,1.2-1.7,1.6,0-1.3-2-2-.8-3.5.2-.3.5-.8,1-.6.8.6,1.7,1.2,1.5,2.5Z"/><path class="cls-3" d="M393.8,372.7c-.1-.8-1.2-.9-1.4-1.8a3.41,3.41,0,0,1,3.1-.3c.7.3.4.9.3,1.4-.2.8-.5,1.4-1.6,1.1h0c0-.3-.2-.5-.4-.4Z"/><path class="cls-3" d="M354.7,373.9a6,6,0,0,1,1.3-4.6c1.9,1.2,1.5,1.6-1.3,4.6Z"/><path class="cls-3" d="M366.2,339.3a5.1,5.1,0,0,1,0-6Z"/><path class="cls-3" d="M378.5,376.1c-1-.1-2.2,0-2.3-1.2-.1-.7,1-.9,1.6-1a1.69,1.69,0,0,1,1.8,1.6C379.8,376.4,378.9,375.9,378.5,376.1Z"/><path class="cls-3" d="M377.8,334.8c-1.2-.4-1.7.6-2.4,1.2a16.18,16.18,0,0,0-1.9,1.8c-.8-.9,1-1.4.1-2.2h0c1.1.6,1.3-.6,1.9-.9s1.2-1.1,2.1-1.2c.4.5-.5,1,.2,1.3Z"/><path class="cls-3" d="M361.4,372.2c.5-1.9.9-3.7,1.5-6A5.27,5.27,0,0,1,361.4,372.2Z"/><path class="cls-3" d="M359.7,363a1.7,1.7,0,0,1-1.6,2c-.9.2-.9-.9-1-1.5-.2-1.1.2-1.4,1.3-.9.4.1.9.3,1.3.4Z"/><path class="cls-3" d="M385,366.2c1.1-.9.3-2.7,2.1-2.7.4,0,1.1.6.9,1A3,3,0,0,1,385,366.2Z"/><path class="cls-3" d="M364.4,375.9c-2.1.1-3.3-.9-4.8-1.4C361.7,373.2,362.7,374.6,364.4,375.9Z"/><path class="cls-3" d="M378.1,358.1c1.4-.5,2.2-.8,3-1.1s.8.3.9.7c.2.6-.2.7-.7.7C380.5,358.3,379.6,358.3,378.1,358.1Z"/><path class="cls-3" d="M359.5,350.7a4.74,4.74,0,0,1-2-2.6c-.2-.4-.3-.8.3-1a.63.63,0,0,1,.9.5c.3.9.7,1.8,1.1,2.7A1.38,1.38,0,0,0,359.5,350.7Z"/><path class="cls-3" d="M363.6,363.2c1.3,2.4,1.4,3.1.5,5.1-.1-1.1-.1-1.9-.2-2.6S363.7,364.2,363.6,363.2Z"/><path class="cls-3" d="M363.9,348.7c1.7-.2,2.7,1.1,4,1.8-1.7,0-3.2-.1-4-1.8Z"/><path class="cls-3" d="M388.3,373.1c-.7.5.1.8.2,1.2s1.1.9.3,1.3-.9-.6-1.1-1-.5-1.1-.8-1.7c.1-.1.1-.2.2-.2.4,0,.5,1,1.2.4Z"/><path class="cls-3" d="M361.2,368.8c-.1,1.3,0,2.2-1,2.9C360.2,370.6,359.8,369.7,361.2,368.8Z"/><path class="cls-3" d="M365.6,368c0,.2-.1.4-.1.6l-.2-.2a1.38,1.38,0,0,0,.3-.4Z"/><path class="cls-3" d="M354.6,373.9a4.33,4.33,0,0,1-.1.5c-.1-.1-.2-.1-.2-.2a.27.27,0,0,1,.3-.3Z"/><path class="cls-3" d="M366.9,348.3c.1.1.2.2.2.3s-.1.3-.3.3-.2-.2-.2-.3S366.9,348.4,366.9,348.3Z"/><path class="cls-3" d="M366.9,344c.2.2.5.5.2.8a5.92,5.92,0,0,0-.6-.4C366.7,344.3,366.8,344.1,366.9,344Z"/><path class="cls-3" d="M367.5,367.9c-.2.1-.3.6-.5.3s0-.5.2-.6Z"/><path class="cls-3" d="M367.4,346.9c.2.1.3.3,0,.4a1.44,1.44,0,0,0-.2-.3A.35.35,0,0,0,367.4,346.9Z"/><path class="cls-3" d="M363.9,348.7c-.1-.1-.2-.1-.3-.2.3-.1.4-.1.3.2Z"/><path class="cls-3" d="M377.1,336.3h-.5a.52.52,0,0,0,.2-.4C377,336.1,377,336.2,377.1,336.3Z"/><path class="cls-3" d="M385,374.7c.1.1.2.2.2.3s-.3.1-.5,0C384.8,374.8,384.9,374.8,385,374.7Z"/><path class="cls-3" d="M367.1,346.4a2.19,2.19,0,0,0,.3.5c-.1,0-.1.1-.2.1s-.3-.3-.5-.4A.52.52,0,0,0,367.1,346.4Z"/><path class="cls-3" d="M367.9,354.4c0,.2.1.3.1.5-.1-.1-.3-.1-.4-.2Z"/><path class="cls-3" d="M374.4,357.5l-.1.1Z"/><path class="cls-3" d="M370.3,366.9a1.44,1.44,0,0,1-.3.2c-.3-.1-.1-.3,0-.5Z"/><path class="cls-3" d="M386.6,372.2l.4.4c-.1.1-.1.2-.2.2a2.19,2.19,0,0,0-.3-.5Z"/><path class="cls-3" d="M386.2,371.8l.4.4-.1.1c-.3,0-.4-.2-.3-.5Z"/><path class="cls-3" d="M386.2,371.8c-.1-.1-.2-.1-.2-.2h.1c0,.1,0,.2.1.2Z"/><path class="cls-3" d="M360,350.9c-.2-.1-.3-.2-.5-.3.1-.1.2-.3.3-.4.1.2.2.3.3.5A.35.35,0,0,1,360,350.9Z"/><path class="cls-3" d="M360.1,350.8c.2,0,.3.1.2.3-.1-.1-.3-.1-.4-.2A.35.35,0,0,0,360.1,350.8Z"/><path class="cls-3" d="M386.5,370.6a.52.52,0,0,1-.2-.4c.2,0,.3.1.5.1Q386.65,370.6,386.5,370.6Z"/><path class="cls-3" d="M603.2,334c-1.3,2.6-3,4-5.7,3.8-2.4-.2-4.9-.3-7.3-.4a16.32,16.32,0,0,0-4.4.3C590.8,333.5,596.9,334.3,603.2,334Z"/><path class="cls-3" d="M593.2,374.9c-3.4-.3-6.2-1.4-7.8-4.7a5.69,5.69,0,0,0-4.4-2.9c4-1.8,7.9-.7,10,2.6.9,1.5,1.7,3.2,2.5,4.8C593.4,374.8,593.3,374.8,593.2,374.9Z"/><path class="cls-3" d="M571.9,342.8c0-1.2-1.1-1.1-1.8-1.6-2.3-1.4-4.9-2.4-6.6-4.6-.3-.4-.6-.9-.9-1.4s-.7-1-.3-1.5.9,0,1.4.1c5.5,1.5,8.8,5.5,11.6,10.1l-.4.4c-.3-.1-.7-.2-1-.3h0a.37.37,0,0,0-.4-.4h0c-.3-.5-.7-1.1-1.6-.8Z"/><path class="cls-3" d="M583,341.7a8.83,8.83,0,0,1,8-1.2c3.2.8,6.3,1.7,9.7,1.3.9-.1,2.8,2,2.9,2.9s-.6.7-1,.8c-3.1.5-6.2.7-8.3-2.3-1.3-1.8-3.2-2.1-5.2-2.1C586.9,341.2,585,341.5,583,341.7Z"/><path class="cls-3" d="M574,368a18.07,18.07,0,0,0-4.8-11.7,6.92,6.92,0,0,1-2-4.5c4.8,2.2,9.9,9.3,7.6,15.1-.2.4-.2,1-.8,1.1Z"/><path class="cls-3" d="M584.8,339.4c6-3.1,12.7,1,18.9-2.2a4.69,4.69,0,0,1-4.5,4c-2.2.3-4.2-.4-6.2-.9C590.4,339.6,587.7,338.7,584.8,339.4Z"/><path class="cls-3" d="M577.9,346c-1.1-4.4-3.6-8.4-1.4-13C579.9,337.1,581.5,340.4,577.9,346Z"/><path class="cls-3" d="M594.4,368.7c4-.2,5.7-4.9,9.6-5.2C604.1,369.9,600.6,371.8,594.4,368.7Z"/><path class="cls-3" d="M582.8,356.7c-1.6.3-2.1,1.9-3.3,2.8a10,10,0,0,1,9.7-8.9c.4,0,.9-.1,1.1.4a1.09,1.09,0,0,1-.4,1.3,12.54,12.54,0,0,1-2.4,1.6c-1.6.8-3.5,1.2-4.7,2.8Z"/><path class="cls-3" d="M575.6,367.6c1.6-5.4-.4-9.7-3.9-13.6a6.65,6.65,0,0,1,5.8,4.1c1.4,3.5.7,6.8-1.6,9.8Z"/><path class="cls-3" d="M584.5,373.3c-1.3,1.6-2.6,2-4.4.4s-4-2.1-6.5-2.3C576.6,368.5,579.2,369,584.5,373.3Z"/><path class="cls-3" d="M570.7,373.1a9.31,9.31,0,0,1,10.3,2.5A10.16,10.16,0,0,1,570.7,373.1Z"/><path class="cls-3" d="M576,354.7a58.41,58.41,0,0,1-5.3-3.3,6.59,6.59,0,0,1-2.2-8.3c1,5.2,5.1,7.8,7.9,11.3A1.38,1.38,0,0,0,576,354.7Z"/><path class="cls-3" d="M602.6,373.1l-.1.1c-.3.9,1.7,1.8.6,2.3a4,4,0,0,1-4.3-.5c-.8-.6-1-1.6-2-1.9h0c-.1-1.2-1.4-1.5-1.8-2.4l.3-.3c2.3.8,4.7,1.5,7,2.3h0v.5c0-.1.2-.1.3-.1Z"/><path class="cls-3" d="M581.5,344.2c.6,3.4.9,6.6-1.5,9.4C578.4,350.7,579,347,581.5,344.2Z"/><path class="cls-3" d="M568.6,359.6c-2.2-2.1-3.8-4.5-3.4-7.7.6-.3.8.2.9.5a22.78,22.78,0,0,0,4.3,7c.2.3,1.7,1.3-.2,1.4h0a1.86,1.86,0,0,0-1.6-1.2Z"/><path class="cls-3" d="M578.4,366.6c.8-2.4,1.3-5,3.6-6.6,1.3,3.9.6,5.3-3.3,6.9Z"/><path class="cls-3" d="M566.5,342.7c-1.7-.3-3.3-.7-4.1-2.5-.3-.8-.5-1.4.9-1.3,1.6.2,2.7,1.1,4,1.8.5.3,1.1.5.8,1.2A1.41,1.41,0,0,1,566.5,342.7Z"/><path class="cls-3" d="M563,365.9c1.6-.2,3.1-.1,4,1.3a4.09,4.09,0,0,1-.2,5.2A10,10,0,0,0,563,365.9Z"/><path class="cls-3" d="M585.3,336c.1-.5.9-.6.9-1.2h0a17,17,0,0,1,11.1-1.7,26.24,26.24,0,0,0-11.7,3.2Z"/><path class="cls-3" d="M582.8,357.5c.1-.3.5-.5,0-.8h0c1.1.5,1.7-.5,2.5-.9a9.94,9.94,0,0,1,5.1-1c-2.1,2.3-4.7,2.8-7.6,2.7Z"/><path class="cls-3" d="M568.4,333.2c3.6.7,4.5,2.9,4.8,5.9A17.34,17.34,0,0,1,568.4,333.2Z"/><path class="cls-3" d="M571,363.1a4.65,4.65,0,0,1-.6,3.5c-.4.6-.9,1.6-1.6,1.4-.5-.1-1-1.1-1.3-1.8-.4-1,.7-1,1.1-1.4C569.3,364.2,570.2,363.7,571,363.1Z"/><path class="cls-3" d="M570.2,360.9c0,1.4-.3,2.6-2.1,2.1h0c.5-1-.5-1.1-.9-1.5-.7-.6-1.4-1.1-1.5-2.1,1-.8,1.9.8,2.9.2h0c.1,1,.6,1.5,1.6,1.3Z"/><path class="cls-3" d="M574,346.6c.1.7,1,.8,1,1.5q-4.2-.3-5.1-3.6c1.4-.3,2.2,1.1,3.3,1.3h0c0,.5.4.7.8.8Z"/><path class="cls-3" d="M585.7,372.7c-2.6-.8-3.7-3.2-5.9-4.3C582.5,368.1,584.4,369.4,585.7,372.7Z"/><path class="cls-3" d="M593.4,367.6c2.6-.9,3.8-2.5,5.2-4,.3-.3.8-1,1.4-.4s0,1-.4,1.4C598,366.2,596.5,367.8,593.4,367.6Z"/><path class="cls-3" d="M574,344.1c-.3,1.3,1.2,1.4,1.5,2.3l-.3.3c-.4,0-.8-.8-1.2-.1h0c.3-.9,0-1.1-.9-.9h0c.3-1.4-1.1-1.3-1.8-1.9a6.71,6.71,0,0,0-1.5-.6.69.69,0,0,1-.3-.9c.2-.5.6-.1.8,0,.5.2.9.7,1.5.5h0c.4.6.7,1.5,1.7.8h0v.5Z"/><path class="cls-3" d="M582,335.7c-.9.1-.8,1.2-1.7,1.6,0-1.2-2-2-.8-3.5.2-.3.5-.8,1-.6.9.6,1.7,1.2,1.5,2.5Z"/><path class="cls-3" d="M602.2,372.7c-.1-.8-1.2-.9-1.4-1.8a3.41,3.41,0,0,1,3.1-.3c.7.3.4.9.3,1.4-.2.8-.5,1.4-1.6,1.1h0c0-.3-.1-.5-.4-.4Z"/><path class="cls-3" d="M574.9,339.6a5.46,5.46,0,0,1-1.2-5c.1-.5.1-1.3.8-1.2s.4.7.4,1.2Z"/><path class="cls-3" d="M563.1,373.9a5.81,5.81,0,0,1,1.4-4.6c1.8,1.2,1.5,1.6-1.4,4.6Z"/><path class="cls-3" d="M588.1,376c-.5,0-1.1.1-1.6.1a1.81,1.81,0,0,1-1.9-1c-.2-.5.3-.7.7-.9a1.61,1.61,0,0,1,2.3.2A1.94,1.94,0,0,1,588.1,376Z"/><path class="cls-3" d="M582,335.7c1.1.6,1.3-.6,1.9-.9s1.2-1.1,2.1-1.2c.4.4-.5.9.2,1.2h0c-1.2-.4-1.7.6-2.4,1.2a16.18,16.18,0,0,0-1.9,1.8c-.8-.8,1-1.3.1-2.1Z"/><path class="cls-3" d="M569.8,372.3c.5-2,.9-3.8,1.5-5.9A5,5,0,0,1,569.8,372.3Z"/><path class="cls-3" d="M568.1,363a1.7,1.7,0,0,1-1.6,2c-.9.2-.9-.9-1-1.5-.2-1.1.2-1.4,1.3-.9.4.1.9.3,1.3.4Z"/><path class="cls-3" d="M593.4,366.5c.9-1.3.6-2.7,1.9-3.1.2-.1,1,.6,1,.9C596.1,365.6,595.1,366,593.4,366.5Z"/><path class="cls-3" d="M567.9,374.7c2.3-1.5,3.2.1,4.4,1C570.7,376.2,569.6,375,567.9,374.7Z"/><path class="cls-3" d="M586.9,357.9a19.92,19.92,0,0,0,2.3-.8c.4-.1.8-.5,1.1-.1a1.93,1.93,0,0,1,.3,1c-.1.6-.7.3-1,.3A4.39,4.39,0,0,1,586.9,357.9Z"/><path class="cls-3" d="M567.9,350.7a4.74,4.74,0,0,1-2-2.6c-.2-.4-.3-.8.3-1a.63.63,0,0,1,.9.5c.3.9.7,1.8,1.1,2.7A1.38,1.38,0,0,0,567.9,350.7Z"/><path class="cls-3" d="M572.3,348.7c1.7-.2,2.7,1.1,4,1.8-1.6,0-3.2-.1-4-1.8Z"/><path class="cls-3" d="M572.1,363.5c.6,1.5,1.6,2.9.5,4.9C572.4,366.5,572.3,365,572.1,363.5Z"/><path class="cls-3" d="M595.5,372.6c.5,0,.6,1.1,1.3.4h0c-.7.5.1.8.2,1.2s1.1.9.3,1.3-.9-.6-1.1-1-.5-1.1-.8-1.7C595.3,372.8,595.4,372.7,595.5,372.6Z"/><path class="cls-3" d="M569.6,368.9c-.1,1.1,0,1.9-1.1,2.9C568.8,370.6,568.1,369.6,569.6,368.9Z"/><path class="cls-3" d="M563.1,373.9a4.33,4.33,0,0,1-.1.5c-.1-.1-.2-.1-.2-.2s0-.3.3-.3Z"/><path class="cls-3" d="M574,368c0,.2-.1.4-.1.6l-.2-.2a1.38,1.38,0,0,0,.3-.4Z"/><path class="cls-3" d="M575.6,348.6c0,.1-.1.2-.1.3l-.3-.3s.1-.2.2-.2S575.5,348.5,575.6,348.6Z"/><path class="cls-3" d="M575.4,344c.2.2.5.5.2.8a5.93,5.93,0,0,0-.6-.4Z"/><path class="cls-3" d="M575.9,367.9c-.2.1-.3.6-.5.3s0-.5.2-.6Z"/><path class="cls-3" d="M575.9,346.9c.2.1.3.3,0,.4a1.44,1.44,0,0,0-.2-.3A.35.35,0,0,1,575.9,346.9Z"/><path class="cls-3" d="M572.4,348.7c-.1-.1-.2-.1-.3-.2.2-.1.3-.1.3.2Z"/><path class="cls-3" d="M595,372.2l.4.4c-.1.1-.1.2-.2.2a2.19,2.19,0,0,0-.3-.5Z"/><path class="cls-3" d="M593.4,374.7c.1.1.2.2.2.3s-.3.1-.5,0C593.3,374.8,593.4,374.8,593.4,374.7Z"/><path class="cls-3" d="M575.5,346.4a2.19,2.19,0,0,0,.3.5c-.1,0-.1.1-.2.1s-.3-.3-.5-.4A.52.52,0,0,0,575.5,346.4Z"/><path class="cls-3" d="M585.6,336.3h-.5a.52.52,0,0,0,.2-.4A1.38,1.38,0,0,0,585.6,336.3Z"/><path class="cls-3" d="M576.4,354.4c0,.2.1.3.1.5-.1-.1-.3-.1-.4-.2S576.2,354.5,576.4,354.4Z"/><path class="cls-3" d="M578.7,366.9a1.44,1.44,0,0,1-.3.2c-.3-.1-.1-.3,0-.5Z"/><path class="cls-3" d="M594.9,372.3c-.3-.1-.4-.3-.3-.5h0l.4.4Z"/><path class="cls-3" d="M594.6,371.8c-.1-.1-.2-.1-.2-.2h.1a.31.31,0,0,1,.1.2Z"/><path class="cls-3" d="M568.2,350.3c.1.2.2.3.3.5-.1,0-.1.1-.2.1s-.3-.2-.5-.3A1.38,1.38,0,0,0,568.2,350.3Z"/><path class="cls-3" d="M594.9,370.6a.52.52,0,0,1-.2-.4c.2,0,.3.1.5.1Q595,370.6,594.9,370.6Z"/><path class="cls-3" d="M568.6,350.8c.2,0,.3.1.2.3-.1-.1-.3-.1-.4-.2C568.5,350.9,568.5,350.8,568.6,350.8Z"/><path class="cls-3" d="M480.3,343.3c.8.5.9-.4,1.2-.7,2.3-2.6,4.6-5.2,7.4-8.3-.9,4.3-2.1,7.8-4.5,10.7s-4.9,5.2-4.9,9.2a10.69,10.69,0,0,1,.5-9.4c.2-.4.9-.9.3-1.5Z"/><path class="cls-3" d="M481.9,358.3c.1-.9,1.1-1.4,1.1-2.5-1.2-.1-1.2,1.5-2.3,1.6-1.4-5.5,2.3-8.4,5.8-11.8.1,2-.6,3.6-.9,5.2s-1.7,2.9-2.3,4.6c2.1-1,2.7-3.2,3.6-5.4,1.2,3.8-.4,6.5-4.7,8.5C482.1,358.5,482,358.4,481.9,358.3Z"/><path class="cls-3" d="M490.4,368.5c-1.8,2.6-4.6,3.6-7.5,4a63.05,63.05,0,0,1-7.6.1c4.6-3.7,9.8-4,15.1-4.1Z"/><path class="cls-3" d="M490,341a7.75,7.75,0,0,1,5.4-2,4.94,4.94,0,0,1,4.9,3.9c.2.7-.1.9-.7.9a4.59,4.59,0,0,1-3-.5C494,341.5,493.3,341.4,490,341Z"/><path class="cls-3" d="M480.6,366.3c1.4-3.6,3.3-6.9,6.6-9.2.9,4.6-1.1,7.4-6.4,9.3Z"/><path class="cls-3" d="M475.6,350c-2-1.6-2.2-4-2.2-6.1a25.92,25.92,0,0,1,2-9.3,3.57,3.57,0,0,1,1.2,3.8,39.23,39.23,0,0,0-1.5,5.9,15.09,15.09,0,0,0,.6,5.6A.1.1,0,0,1,475.6,350Z"/><path class="cls-3" d="M471.1,338.6c-.1,1.7,1.6,3,1.2,4.8-2.8-2.7-7.6-3.1-8.9-7.7a11.59,11.59,0,0,1,6.6,2.4c.3.3.4,1,1.1.5Z"/><path class="cls-3" d="M493.7,342.6c2,1,3.6,2,5.3,2.7,1.3.6,1.4,2.3,1.7,3.6.2.8-.5.6-1,.7a4.76,4.76,0,0,1-4.8-3A12.63,12.63,0,0,1,493.7,342.6Z"/><path class="cls-3" d="M476.7,369.1c2.3-3.9,1.2-8.1.9-12.3l-.3-2.1c4.3,2.9,4.1,9.9-.2,14.7A1.38,1.38,0,0,1,476.7,369.1Z"/><path class="cls-3" d="M477,349.3c-2.2-4-.4-11.3,3.4-14.6a2.57,2.57,0,0,1,.1,2.9,24.42,24.42,0,0,0-2.6,5.7A31.09,31.09,0,0,0,477,349.3Z"/><path class="cls-3" d="M464.1,343.4a10.08,10.08,0,0,1-1.5,4.8c-.7,1.5-1.9,1.9-3.5,1.8-.9-.1-1.3-.3-1.1-1.3.2-1.3.5-2.4,1.9-3A35.53,35.53,0,0,0,464.1,343.4Z"/><path class="cls-3" d="M474.4,373.5c2.3,0,4.1-.1,5.8,0a14.56,14.56,0,0,0,7.6-1.9,7.31,7.31,0,0,1,1.9-.7,1,1,0,0,1,.9.3c.3.4-.2.6-.4.8C487,374.9,478.7,375.9,474.4,373.5Z"/><path class="cls-3" d="M494.6,333.6c-.6,4.1-3.7,5.6-6.9,7.6C488.8,337.4,490.4,334.5,494.6,333.6Z"/><path class="cls-3" d="M474.9,358.4c-.7-2-2.6-3.4-3-5.6,4.5.4,5.5,1.9,5,8.3-.9-.8-.8-2.4-2-2.7Z"/><path class="cls-3" d="M474.8,358.4c-.5,1.1.6,1.7.8,2.5a14,14,0,0,1,0,8.1c-1-1.7.5-3.8-1.6-4.7h0a24.9,24.9,0,0,0-2.1-7.4c1.5-.4,1.6,1.8,2.9,1.5Z"/><path class="cls-3" d="M467.4,341.4c-2.9.4-4.8,1.9-6.9,3.1-.7.4-1.8,1.3-2.4.5s.2-2,.9-2.8C460.7,340.7,464.6,340.2,467.4,341.4Z"/><path class="cls-3" d="M480.3,343.2c-.9.1-.9,1.3-1.9,1.7a15.09,15.09,0,0,1,6.4-10,5.33,5.33,0,0,1-1.7,4.4c-.9,1.3-2.4,2.2-2.8,3.9Z"/><path class="cls-3" d="M479.4,368.9c1.5-1.9,3.7-2.6,5.8-3.5.8-.3,2.1-.1,2.3.8s-.9,1.3-1.7,1.5c-2,.4-4.2.8-6.4,1.2Z"/><path class="cls-3" d="M500.3,333.6c-1.1,3-2.1,3.8-4.4,3.9-1.6,0-1.5-.6-.9-1.7C496.2,333.6,498,333.3,500.3,333.6Z"/><path class="cls-3" d="M465,339.8c-2.6.1-4.9.8-6.9-1.2C461.4,336.5,462.7,336.7,465,339.8Z"/><path class="cls-3" d="M471.1,338.7c-.6-1.9-2.3-2.5-4-3-1.2-.4-2-.8-2.2-2.4,2.4.6,4.6,1.2,6,3.4.5.6,1.1,1.2.2,2Z"/><path class="cls-3" d="M473.3,338.9c-.8-1.4-1.5-2.4-2.1-3.5a1.14,1.14,0,0,1,.4-1.6c.6-.5,1-.1,1.4.3C474.6,335.4,473.8,336.9,473.3,338.9Z"/><path class="cls-3" d="M472.7,367.6c0,1.7.2,3.5-1.7,4.6h0c-.1-1.4.3-2.9-.7-4.2a1,1,0,0,1,.4-1.5c.8-.5.8.5,1.2.7s.4.8.8.4Z"/><path class="cls-3" d="M472.7,367.6c0-1.4-.5-2.8-.2-4.2.8-.1.8.9,1.5.8h0c0,1.8.9,3.6-.2,5.4-.4-.6.2-1.8-1.1-2Z"/><path class="cls-3" d="M481.7,375.8c2.4-.2,4.9-.3,7-1.7.9-.6,1.2.3,1.5.9.3.9-.5.8-1,.8A26.91,26.91,0,0,1,481.7,375.8Z"/><path class="cls-3" d="M468.7,368.2c2.2,2,1.9,3.7-1,6.1C468,372.3,468.9,370.5,468.7,368.2Z"/><path class="cls-3" d="M462,336.3c-1.4.3-2.9,1.1-3.8-.8-.4-.7-.3-1.2.7-1.1C460.3,334.6,461.4,335,462,336.3Z"/><path class="cls-3" d="M497.4,338.2c1.4-.1,1.8-2,3.3-.9a.85.85,0,0,1,.1,1.3C499.7,339.4,498.7,339,497.4,338.2Z"/><path class="cls-3" d="M474.4,351.8a1,1,0,0,1-1,.2,2.58,2.58,0,0,1-1.5-2c-.1-.3.2-.5.5-.5.9.1,1.2.8,1.6,1.4A7.93,7.93,0,0,0,474.4,351.8Z"/><path class="cls-3" d="M473,348.4a3.89,3.89,0,0,1-1.3-2.8c1.2.5,1.4,1.6,1.5,2.7C473.1,348.3,473.1,348.4,473,348.4Z"/><path class="cls-3" d="M477,369.4a4.73,4.73,0,0,1-2.2,2h0c.2-1.1,1.3-1.5,1.9-2.3Z"/><path class="cls-3" d="M473.2,348.3c.3.1.4.3.2.6l-.4-.4C473.1,348.4,473.1,348.3,473.2,348.3Z"/><path class="cls-3" d="M482.2,358.6c-.2.1-.3.2-.5.3-.2-.3-.2-.5.2-.6Z"/><path class="cls-3" d="M473.2,372.7c-.1.1-.1.2-.2.3-.2-.4,0-.3.2-.3Z"/><path class="cls-3" d="M473.2,372.7c0-.1.1-.2.1-.3.4.3-.1.2-.1.3Z"/><path class="cls-3" d="M471.1,372.2c-.1.1-.2.2-.3.2v-.2a.19.19,0,0,1,.3,0Z"/><path class="cls-3" d="M479.5,368.9c-.1.1-.1.2-.2.3l-.2-.2c.1,0,.2-.1.4-.1Z"/><path class="cls-3" d="M480.8,366.4c-.1.1-.1.2-.2.3l-.1-.1c.1-.1.1-.2.2-.3C480.6,366.3,480.8,366.4,480.8,366.4Z"/><path class="cls-3" d="M490.4,368.5v-.3h.2c-.1.1-.1.2-.2.3Z"/><path class="cls-3" d="M474.4,371.8c-.1.1-.1.2-.2.3-.2-.3.1-.2.2-.3Z"/><path class="cls-3" d="M474.8,371.4a.37.37,0,0,1-.4.4h0c0-.3.1-.4.4-.4Z"/><path class="cls-3" d="M475.8,349.8c0,.2.2.4.1.4s-.3-.1-.3-.2S475.7,349.9,475.8,349.8Z"/><path class="cls-3" d="M525.7,363.8l-6.9,3.3c-2.3,1.1-4.1,2.8-6.2,4.3a20.3,20.3,0,0,1,6.1-8.8c1.7-1.4,3.6-2.7,5.3-4.1a17,17,0,0,0,5.2-5.7,13.72,13.72,0,0,1-2.8,10.2h0a.71.71,0,0,0-.7.8Z"/><path class="cls-3" d="M530.3,340.7a25.77,25.77,0,0,0-4.8,7.9c-.2.6-.5,1.2-.7,1.8-1.1-3.8-.3-10.9,1.7-13.6,1.6-2.1,3.3-4,6.3-3.7h0a5.2,5.2,0,0,0-1,3.1c.1,1.8-1.1,3-1.5,4.5Z"/><path class="cls-3" d="M521,338.7a7.94,7.94,0,0,0-2.3-2.7,1.76,1.76,0,0,1-.2-2.5c.7-1,1.4,0,1.9.4,1.6,1.1,1.7,2.9,1.9,4.7v.2c.2.8-2.3-.7-1,1.1a7,7,0,0,1,1.3,2.4,17,17,0,0,1,.5,2.3c-3.6-3.1-7.4-5.1-11.1-7.4-.4-.2-.7-.7-1-1s-.8-.9-.5-1.5,1-.3,1.5-.3a8.49,8.49,0,0,1,5.9,2.2A9.81,9.81,0,0,0,521,338.7Z"/><path class="cls-3" d="M530.2,370.5c1.8.5,3.6.8,5.3,1.4a22.21,22.21,0,0,0,12,.6c2.3-.5,4.1.5,4.2,2.2,0,.4.4,1.1-.7,1.1a48.87,48.87,0,0,0-5.4.3C539.5,377,534.7,374.1,530.2,370.5Z"/><path class="cls-3" d="M531.1,375.2c-.4,1.6-1.5.8-2.3.6-2.6-.6-4.6-2.6-7-3.6-1.9-.8-3.7-1.9-6-1.7,4.6-2.6,8.5-2,11.9,1.7.8.8,1.3,2,2.6,2.2h0c-.1.6.3.8.8.8Z"/><path class="cls-3" d="M533.1,368.8c7.1.5,13.4-.5,17-7.5,1.4,2.9,1.2,4.6-1.5,6.2-4.2,2.5-8.7,3.6-13.5,2C534.5,369.3,533.8,369.5,533.1,368.8Z"/><path class="cls-3" d="M516.5,352.1c.6-.5-.1-.8-.2-1.2-.2-.6-1.4-1.1-.5-1.8s1.9-1.7,3.3-.5c2.9,2.5,4.7,7.1,1,10.6a9.33,9.33,0,0,0-2.4-6.5c-.3-.4-.6-1.1-1.2-.6Z"/><path class="cls-3" d="M511.6,375.4c2-4,4.6-4.9,8.5-3.1a10.7,10.7,0,0,1,3.7,2.2c.4.4.8,1,.4,1.5-.5.7-1.1.1-1.4-.2-3.6-3.5-7.3-2.5-11-.2Z"/><path class="cls-3" d="M551.1,368c-1.7,4.4-8.7,5.5-16.3,2.6C540.6,371.9,545.8,370.1,551.1,368Z"/><path class="cls-3" d="M510.7,339.6a3.3,3.3,0,0,1,4,0c1.6,1.1,3.3,2.1,4.9,3.2.6.4,1.2,1,1.8,1.5C517,344.4,513.7,342.2,510.7,339.6Z"/><path class="cls-3" d="M528.9,349.6c-1.5,3.2-2.2,6.6-5.9,8.1C523.4,354.1,525.9,350.4,528.9,349.6Z"/><path class="cls-3" d="M516.4,352.1c.8,1.4,1.7,2.7,2.4,4.1a5.2,5.2,0,0,1,.1,3.3c-.6-1.7-1.1-3.3-2.6-4.3-2.4-1.5-3-3.7-2.7-6.4,1.5.6,1.4,2.7,2.8,3.3Z"/><path class="cls-3" d="M534.1,367.8c1.7-.2,3.4-.5,5.2-.7a8.5,8.5,0,0,0,6.9-4.8c.2-.5.4-1.6,1.3-1.1s.9,1.4.1,2.3c-2.5,3-5.9,4.1-9.5,4.5-1.3.1-2.6,0-4,0Z"/><path class="cls-3" d="M524,334.9c.8-.1,1.1-1,1.8-1.3.4-.2.8-.7,1.3-.2a1,1,0,0,1-.1,1.5c-1.6,1.4-2.2,3.3-3,5.3-1.4-2-.4-3.7,0-5.3Z"/><path class="cls-3" d="M530.3,374.4c.3-1.5-1.7-1.7-1.7-2.9h0c2,.3,3.2,1.8,4.9,2.6a39.86,39.86,0,0,1,3.6,2.1c-1.9,0-3.2.2-4.5-.5-.4-.2-.8-1-1.6-.4h0c.4-.9.1-1.2-.7-.9Z"/><path class="cls-3" d="M516.6,363.1a35.09,35.09,0,0,0-.8-4.2,6.43,6.43,0,0,0-2-3.3c1.9-.5,2.7.7,3.3,1.8C518.1,359.2,517.9,361.1,516.6,363.1Z"/><path class="cls-3" d="M512.9,367.4c1-2.7.6-5.4.4-8.2,2.8,1.2,2.6,4.4-.2,8.5C513.1,367.6,513,367.5,512.9,367.4Z"/><path class="cls-3" d="M519.1,347.5c1.7-.6,3.1-.4,4,.7,1.2,1.4.3,2.9-.1,4.8A13.52,13.52,0,0,0,519.1,347.5Z"/><path class="cls-3" d="M526.5,363c.5.7.8,0,1.2-.2s1-1.2,1.5-.5,0,1.5-.6,2a10.94,10.94,0,0,1-5.7,2.1c.8-1.2,2.8-.8,2.8-2.6h0c.8.3,1.1,0,.8-.8Z"/><path class="cls-3" d="M522.1,346.5c-1.8,0-3.5,0-5.1,1-.5.3-1.3,1.1-1.7.2-.3-.6.2-1.4.9-1.9C517.5,344.9,520.6,345.2,522.1,346.5Z"/><path class="cls-3" d="M542.1,365.5V362c0-.6-.4-1.4.5-1.6a2.84,2.84,0,0,1,2.2,1c.5.6.3,1.1-.1,1.7A10.24,10.24,0,0,1,542.1,365.5Z"/><path class="cls-3" d="M530.2,365.9c-3,2.3-6,2.4-9.1,1.9C524.1,367.3,526.8,366,530.2,365.9Z"/><path class="cls-3" d="M530.1,342.2c0-.5.8-.9.2-1.5h0c1.4,0,1.4-1.3,2-2.1.4-.6.8-1.5,1.5-1s.2,1.3-.1,1.9a8.64,8.64,0,0,1-3.3,3Z"/><path class="cls-3" d="M509.9,367.9c1.3,2.2-.1,4.4,0,6.7C508.6,372.4,509.8,370.2,509.9,367.9Z"/><path class="cls-3" d="M526.5,349.1a3,3,0,0,1,1.5-2.4c.3-.2.8-.8,1.2-.3a1.08,1.08,0,0,1-.2,1.5c-.7.6-1.4,1.4-2.5,1.2Z"/><path class="cls-3" d="M524,334.8c-.7-.9-.7.9-1.3.3a1,1,0,0,1-.3-1.1c.2-.5.5-1.2,1.1-1.1,1,.3-.1,1.4.5,1.9Z"/><path class="cls-3" d="M511.9,375.6l-.2.2c-.2-.1-.1-.3,0-.5C511.7,375.5,511.8,375.6,511.9,375.6Z"/><path class="cls-3" d="M530.4,342.5c-.1.1-.2.1-.4.2,0-.2.1-.3.1-.5Z"/><path class="cls-3" d="M532.9,333.2v-.3h.2c-.1.1-.2.2-.2.3Z"/><path class="cls-3" d="M513.1,367.7c-.1.1-.2.1-.4.2a4.33,4.33,0,0,0,.1-.5Q513.1,367.55,513.1,367.7Z"/><path class="cls-3" d="M526.5,349.1a.35.35,0,0,1-.1.2v-.1a.1.1,0,0,0,.1-.1Z"/><path class="cls-3" d="M528.6,371.4c-.1,0-.2-.1-.3-.1l.2-.2a.37.37,0,0,1,.1.3Z"/><path class="cls-3" d="M638.8,368.2c-1.6.5-2.9,1.6-5.1,1.6a10.59,10.59,0,0,0,5.2-7.8c.4-2.2,2.9-2.9,4.9-4.4a24.74,24.74,0,0,1-4.3,9.5,3.87,3.87,0,0,0,2.4-2.3c.6-1.1,1.1-2.2,1.7-3.4.3-.7.9-1.3,1.6-1s.1,1.1,0,1.6c-.3,1.1-.6,2.3-1,3.4-1.5,4.1-6.3,6.6-10.3,5.2C635.8,370.2,637.7,370,638.8,368.2Z"/><path class="cls-3" d="M617.3,370.6c0-.8,1.2-1.5.3-2.5l.3-.3a38.24,38.24,0,0,0,6.6,1.9c3.1.8,6.2,1.5,8.9,3.4.2.2.5.3.7,0h0c-.5.7.8.9.4,1.7a38.38,38.38,0,0,1-8.3,0c-2.9-.4-4.4-3.3-7-4.4v.6c.7.7,1.8,1.8,1,2.3s-1-1.2-1.6-1.6-.2-1.6-1.3-1.1Z"/><path class="cls-3" d="M630.3,350c1.3,2.1,2.7,4.2,2.5,6.9-6.7-2.5-11.9-8.2-12.1-13.7,2.4,2.3,5.4,3.4,7.7,5.4.4.4.8,1,1.5.5h0c-.4.6,0,.8.4.9Z"/><path class="cls-3" d="M633.4,368.2c1.5-2,1.5-4.4,1.1-6.6-.5-2.7-.4-5.3,1.2-7.6,3.1,4.8,3.4,12-1.8,14.6A2.18,2.18,0,0,1,633.4,368.2Z"/><path class="cls-3" d="M633,366.8c.3-3.3-1.8-5-4.1-6.5a5.57,5.57,0,0,1-2.7-4.3c2.8.2,5.5.4,6.7,3.5C634,361.9,634.4,364.3,633,366.8Z"/><path class="cls-3" d="M613.5,372.7c-.2-2.4-.8-4.7-.6-7.3,2,1.3,2.5,3.8,4.4,5.2h0c.4,1.3.9,2.6,1.3,3.9.1.4.5.8.1,1.1a1.65,1.65,0,0,1-1.2,0,6.36,6.36,0,0,1-2.7-1.9c-.4-.4-.5-1.3-1.3-1Z"/><path class="cls-3" d="M616.1,351.7c-.2-1-1.2-1.2-1.8-1.9a6.29,6.29,0,0,1-2.1-4.8c0-.5-.3-1.2.5-1.3s.9.5,1.1,1c.7,1.4,1.1,3.1,2.6,4.1h0c1.1,2.5,3.4,3.5,5.7,4.4.7.3,1.5.1,2,.9-1.9.4-3.5-.6-5.2-1-.5-.1-1-.8-1.7-.2h0c.4-1.1-.5-1.1-1.1-1.2Z"/><path class="cls-3" d="M622.8,336.5c1.7-.2,2.1-2.2,4-2.9,0,3.8-3.8,7.1-1.1,11.3-2.7-.9-3.8-2.7-3.5-5.3.1-1,.9-1.9.6-3.1Z"/><path class="cls-3" d="M616.5,348.7c.5-1-.5-1.6-.8-2.3-1.1-2-1.5-4.1-2.3-6.5a4.29,4.29,0,0,1,3.1,2.7c1.1,3.2,2.1,6.5,5.3,9a6.16,6.16,0,0,1-3.6-1.9c-.6-.3-.8-1.3-1.7-1Z"/><path class="cls-3" d="M644.1,343.1c-2.9,1.7-7.2.5-10.3-2.7C637.7,339.3,640.7,341.4,644.1,343.1Z"/><path class="cls-3" d="M634.1,373.1c-.2-1,.4-1.1,1.1-.8a12,12,0,0,0,5.3.8c-1.9,3.1-6,4.2-11.3,3.1,1.8-.5,3.4-.3,5.1-.5.6-.1,1.6.4,1.8-.5.2-.7-.6-1.2-1-1.7-.2-.2-.5-.6-1-.4Z"/><path class="cls-3" d="M621.5,350c-3.1-2.3-3.6-5.8-4.5-9.1a5.51,5.51,0,0,1-.3-3.2c3.3,3.5,3,8.3,5.1,12.1C621.6,349.8,621.5,349.9,621.5,350Z"/><path class="cls-3" d="M629.9,349.1c-.4-1.2-1.8-1.5-2.2-2.7,4.6,1,7.4,5,6.1,8.8-.6-1.3-1.1-2.6-1.8-3.8-.4-.6-.6-1.7-1.8-1.5h0c.6-.5.1-.6-.3-.8Z"/><path class="cls-3" d="M638.6,360.2c.1-2.9-2.4-5.4.2-8.1C641.1,355.4,641.1,357.6,638.6,360.2Z"/><path class="cls-3" d="M613.9,364.4c2-.9,3.9-1.4,5.8-.6.5.2,1.2.4,1.2,1s-.6.9-1.1,1.1C617.6,366.8,615.8,366.1,613.9,364.4Z"/><path class="cls-3" d="M630.3,337.8c2.1-1.4,4.5-1.9,6.7-3a4.49,4.49,0,0,1-4.1,4.1c-1.1.1-2.2,0-3.4,0a3.83,3.83,0,0,0,.8-1.1Z"/><path class="cls-3" d="M622.8,336.5c-1.8,1.1-1.5,3-1.7,4.8-2.1-2.9-2.1-4.9.2-6.8.4-.3.8-1.2,1.5-.6a1.28,1.28,0,0,1,.2,1.9,1,1,0,0,0-.2.7Z"/><path class="cls-3" d="M630.3,337.8c-1.2-.5-1.6.7-2.4,1a20.26,20.26,0,0,0-2.5,1.5c1.1-2.5,1.6-4.8,4.3-5.4.4-.1.9-.6,1.3-.1s0,.9-.1,1.4-1.1.7-.6,1.6Z"/><path class="cls-3" d="M640.9,371a11.63,11.63,0,0,0,4.6-6.1c.1-.5.4-.8.8-.8.7.1.4.8.4,1.2-.1,3.3-2.3,5.4-5.8,5.7Z"/><path class="cls-3" d="M620.6,356.9c4-1,4.2-.9,6.1,3A24.75,24.75,0,0,1,620.6,356.9Z"/><path class="cls-3" d="M636.7,338.9a14.05,14.05,0,0,1,8.2,1.1C641.6,342.1,639.3,339.2,636.7,338.9Z"/><path class="cls-3" d="M644.8,336.4c-1.8,2.5-4.4.9-6.6,1.4C639.3,336.1,642.5,335.4,644.8,336.4Z"/><path class="cls-3" d="M617.3,352.9c1,1.4,2.8,1.2,4.2,2-3.8.6-5.7-.3-7.3-3.3.7-.4,1.2.8,1.9.1h0c-.2.9.5,1.1,1.2,1.2Z"/><path class="cls-3" d="M638.3,336c.6-1.9,4.1-3.3,5.7-2.4a.85.85,0,0,1,.3.5c-.1.4-.3.7-.7.7A33.69,33.69,0,0,0,638.3,336Z"/><path class="cls-3" d="M619.1,367.4c2.7-1.1,4.6.2,7.1,1.4C623.5,369,621.5,368.1,619.1,367.4Z"/><path class="cls-3" d="M641.3,358a14,14,0,0,0,0-2.9.88.88,0,0,1,.7-1.1c.6-.1.6.5.7.8C643,356.1,643.4,357.5,641.3,358Z"/><path class="cls-3" d="M618.6,338.1a.77.77,0,0,0-.3-.1,3.44,3.44,0,0,1,.1-3.4s.5,0,.5.1C619.5,335.9,618.7,336.9,618.6,338.1Z"/><path class="cls-3" d="M613.5,372.7c-.4,1.1,1.4,1.6.6,2.9-1.3-1.1-1.4-2.6-1.9-4.1.8.2.6,1.2,1.3,1.2Z"/><path class="cls-3" d="M633.8,368.6c-.2.2-.5.4-.7.2s.2-.4.3-.6Z"/><path class="cls-3" d="M637.2,334.6c0,.1.1.1.1.2l-.1.1c0-.1-.1-.1-.1-.2A.1.1,0,0,1,637.2,334.6Z"/><path class="cls-3" d="M621.6,351.7h0c.1,0,.1.1.2.1h-.3C621.6,351.8,621.6,351.8,621.6,351.7Z"/><path class="cls-3" d="M617.7,368.1c-.1-.1-.4-.1-.2-.3,0-.1.3,0,.5.1C617.8,367.9,617.7,368,617.7,368.1Z"/><path class="cls-3" d="M640.8,371l-.2.2v-.1a.31.31,0,0,1,.2-.1Z"/><path class="cls-3" d="M621.7,349.8c.1.2.2.4,0,.5-.1-.1-.2-.2-.2-.3A.22.22,0,0,1,621.7,349.8Z"/><path class="cls-3" d="M678.8,368.1c-1.6.4-2.9,1.7-5,1.6a10.85,10.85,0,0,0,5.1-7.8c.4-2,2.8-2.9,5-4.2a27.36,27.36,0,0,1-4,9.2c1.2-.2,1.6-1.1,2-1.9.6-1.1,1.1-2.2,1.7-3.4.3-.7.9-1.3,1.6-1s.2,1.1,0,1.6a33.73,33.73,0,0,1-1,3.4,8.54,8.54,0,0,1-10.3,5.3C675.7,370.2,677.7,369.9,678.8,368.1Z"/><path class="cls-3" d="M674,373.1c-.5.7.8.9.4,1.7a38.38,38.38,0,0,1-8.3,0c-2.9-.4-4.4-3.3-7-4.4v.6c.7.7,1.8,1.8,1,2.3s-1-1.2-1.6-1.6-.2-1.6-1.3-1.1h0c0-.8,1.2-1.5.3-2.5l.3-.3a38.24,38.24,0,0,0,6.6,1.9c3.1.8,6.2,1.5,8.9,3.4.2.1.5.3.7,0Z"/><path class="cls-3" d="M670.2,350c1.3,2.1,2.7,4.2,2.5,6.9-6.7-2.5-11.9-8.2-12.1-13.7,2.4,2.3,5.4,3.4,7.7,5.4.4.4.8,1,1.5.5h0c-.4.6,0,.8.4.9Z"/><path class="cls-3" d="M673.3,368.2c1.5-2,1.5-4.4,1.1-6.6-.5-2.7-.4-5.3,1.2-7.6,3.1,4.8,3.4,12-1.8,14.6C673.6,368.5,673.5,368.3,673.3,368.2Z"/><path class="cls-3" d="M666.2,356c3.3,0,5.9.8,7,4,.7,2.2,1.2,4.5-.2,6.8.3-3.3-1.8-5-4.1-6.5A5.64,5.64,0,0,1,666.2,356Z"/><path class="cls-3" d="M657.2,370.6c.4,1.3.9,2.6,1.3,3.9.1.4.5.8.1,1.1a1.65,1.65,0,0,1-1.2,0,6.36,6.36,0,0,1-2.7-1.9c-.4-.4-.5-1.2-1.3-1h0c-.2-2.4-.8-4.7-.6-7.3,2,1.3,2.6,3.9,4.4,5.2Z"/><path class="cls-3" d="M656.4,348.7c1.1,2.5,3.4,3.5,5.7,4.4.7.3,1.5.1,2,.9-1.9.4-3.5-.6-5.2-1-.5-.1-1-.8-1.7-.2h0c.2-1.1-.6-1.1-1.3-1.3h0c-.2-1-1.2-1.2-1.8-1.9a6.29,6.29,0,0,1-2.1-4.8c0-.5-.3-1.2.5-1.3s.9.5,1.1,1c.9,1.6,1.3,3.3,2.8,4.2Z"/><path class="cls-3" d="M662.7,336.5c1.7-.2,2.1-2.2,4-2.9,0,3.8-3.8,7.1-1.1,11.3-2.7-.9-3.8-2.7-3.5-5.3.1-1,.9-1.9.6-3.1Z"/><path class="cls-3" d="M656.4,348.7c.5-1-.5-1.6-.8-2.3-1.1-2-1.5-4.1-2.3-6.5a4.29,4.29,0,0,1,3.1,2.7c1.1,3.2,2.1,6.5,5.3,9a6.16,6.16,0,0,1-3.6-1.9c-.6-.3-.7-1.3-1.7-1Z"/><path class="cls-3" d="M684,343.1c-2.9,1.7-7.4.5-10.3-2.7C677.7,339.3,680.7,341.4,684,343.1Z"/><path class="cls-3" d="M674,373.1c-.2-1,.4-1.1,1.1-.8a12,12,0,0,0,5.3.8c-1.9,3.1-6,4.2-11.3,3.1,1.8-.5,3.4-.3,5.1-.5.6-.1,1.6.4,1.8-.5.2-.7-.6-1.2-1-1.7-.2-.2-.5-.6-1-.4Z"/><path class="cls-3" d="M661.4,350c-3.1-2.3-3.6-5.8-4.5-9.1a5.51,5.51,0,0,1-.3-3.2c3.3,3.5,2.9,8.3,5.1,12.1C661.6,349.8,661.5,349.9,661.4,350Z"/><path class="cls-3" d="M669.9,349.1c-.4-1.2-1.8-1.5-2.2-2.7,4.6,1,7.4,5,6.1,8.8-.6-1.3-1.1-2.6-1.8-3.8-.4-.6-.6-1.7-1.8-1.5h0c.5-.5,0-.6-.3-.8Z"/><path class="cls-3" d="M678.5,360.2c.1-2.8-2.3-5.4.2-8.1C681,355.4,681,357.6,678.5,360.2Z"/><path class="cls-3" d="M653.9,364.4a7.88,7.88,0,0,1,5.1-.9c.8.1,1.7.5,1.8,1.2.2.9-.9,1.1-1.5,1.3C657.1,366.8,655.5,365.9,653.9,364.4Z"/><path class="cls-3" d="M677,334.8a4.49,4.49,0,0,1-4.1,4.1c-1.1.1-2.2,0-3.4,0a6.22,6.22,0,0,1,.8-1.2h0C672.3,336.4,674.8,335.9,677,334.8Z"/><path class="cls-3" d="M662.7,336.5c-1.8,1.1-1.5,3-1.7,4.8-2.1-2.9-2.1-4.9.2-6.8.4-.3.8-1.2,1.5-.6a1.28,1.28,0,0,1,.2,1.9,1,1,0,0,0-.2.7Z"/><path class="cls-3" d="M670.3,337.8c-1.2-.5-1.6.7-2.4,1a20.26,20.26,0,0,0-2.5,1.5c1.1-2.5,1.6-4.8,4.3-5.4.4-.1.9-.6,1.3-.1s0,.9-.1,1.4-1.2.7-.6,1.6Z"/><path class="cls-3" d="M680.8,371a11.63,11.63,0,0,0,4.6-6.1c.1-.5.4-.8.8-.8.7.1.4.8.4,1.2-.1,3.3-2.3,5.4-5.8,5.7Z"/><path class="cls-3" d="M676.6,338.9a15.27,15.27,0,0,1,8.3,1C681.4,342.1,679.2,339.2,676.6,338.9Z"/><path class="cls-3" d="M660.5,356.9c3.9-1,4.2-.9,6.1,2.9A24.51,24.51,0,0,1,660.5,356.9Z"/><path class="cls-3" d="M678.1,337.2a9.94,9.94,0,0,1,4.8-1.4c.6,0,1.5-.1,1.5.6s-.7,1.3-1.6,1.3h-4.7A.45.45,0,0,0,678.1,337.2Z"/><path class="cls-3" d="M657.2,352.9c1,1.4,2.8,1.2,4.2,2-3.8.6-5.7-.3-7.3-3.3.7-.4,1.2.8,1.9.1h0c-.2.9.5,1.1,1.2,1.2Z"/><path class="cls-3" d="M678.2,336c.5-1.9,4-3.3,5.6-2.4.1.1.3.3.3.4a1.08,1.08,0,0,1-.9.8A36,36,0,0,0,678.2,336Z"/><path class="cls-3" d="M659.2,367.4c2.1-.9,3.7-.5,6.6,1.4C663.4,369,661.4,368.1,659.2,367.4Z"/><path class="cls-3" d="M681.3,357.9a22.48,22.48,0,0,0,0-2.6c-.1-.6,0-1.2.7-1.3s.7.7.8,1.2C683,356.4,683.1,357.6,681.3,357.9Z"/><path class="cls-3" d="M658.4,338a3,3,0,0,1-.1-3.4c0-.1.5,0,.5.1C659.4,335.9,658.6,336.9,658.4,338Z"/><path class="cls-3" d="M653.4,372.7c-.4,1.1,1.4,1.6.6,2.9-1.3-1.1-1.4-2.6-1.9-4.1.9.2.6,1.2,1.3,1.2Z"/><path class="cls-3" d="M673.7,368.6c-.2.2-.5.4-.7.2s.2-.4.3-.6C673.5,368.3,673.6,368.5,673.7,368.6Z"/><path class="cls-3" d="M677.2,334.6c0,.1.1.1.1.2l-.1.1c0-.1-.1-.1-.1-.2S677.1,334.6,677.2,334.6Z"/><path class="cls-3" d="M661.7,351.8v.1l-.1.1c-.2-.1-.2-.2.1-.2C661.6,351.7,661.6,351.8,661.7,351.8Z"/><path class="cls-3" d="M657.6,368.1c-.1-.1-.4-.1-.2-.3,0-.1.3,0,.5.1C657.8,367.9,657.7,368,657.6,368.1Z"/><path class="cls-3" d="M680.7,371l-.2.2v-.1l.2-.1Z"/><path class="cls-3" d="M661.6,349.8c.1.2.2.4,0,.5-.1-.1-.2-.2-.2-.3Z"/><path class="cls-1" d="M365.2,343.7c-1,.6-1.3-.2-1.7-.8C364.3,342.5,364.8,343.1,365.2,343.7Z"/><path class="cls-1" d="M365.6,344.1h-.5v-.5C365.4,343.7,365.6,343.8,365.6,344.1Z"/><path class="cls-1" d="M393.7,372.6c.3,0,.5.1.4.4h-.5C393.7,373,393.7,372.8,393.7,372.6Z"/><path class="cls-1" d="M361.8,360.9a1.3,1.3,0,0,1-1.7-1.3A1.94,1.94,0,0,1,361.8,360.9Z"/><path class="cls-1" d="M364.7,345.8c.8-.3,1.2,0,.9.9C365.1,346.5,364.8,346.3,364.7,345.8Z"/><path class="cls-1" d="M573.6,343.7c-1,.6-1.3-.2-1.7-.8C572.8,342.5,573.2,343.1,573.6,343.7Z"/><path class="cls-1" d="M574,344.1h-.5v-.5C573.9,343.7,574.1,343.8,574,344.1Z"/><path class="cls-1" d="M602.2,372.6c.3,0,.5.1.4.4h-.5A1,1,0,0,0,602.2,372.6Z"/><path class="cls-1" d="M570.2,360.9a1.3,1.3,0,0,1-1.7-1.3A1.83,1.83,0,0,1,570.2,360.9Z"/><path class="cls-1" d="M573.2,345.8c.8-.3,1.2,0,.9.9C573.6,346.5,573.2,346.3,573.2,345.8Z"/><path class="cls-1" d="M526.5,363q.45,1.2-.9.9Q525.75,363,526.5,363Z"/><path class="cls-1" d="M530.3,374.3c.8-.2,1.1,0,.9.9C530.6,375.2,530.2,375,530.3,374.3Z"/><path class="cls-1" d="M629.9,349.1c.4.2.9.3.4.9C629.9,349.9,629.5,349.7,629.9,349.1Z"/><path class="cls-1" d="M617.3,352.9c-.7-.1-1.4-.3-1.3-1.3C616.7,351.8,617.6,351.8,617.3,352.9Z"/><path class="cls-1" d="M669.8,349.1c.4.2.9.3.4.9C669.8,349.9,669.4,349.7,669.8,349.1Z"/><path class="cls-1" d="M657.2,352.9c-.7-.1-1.4-.3-1.3-1.3C656.6,351.8,657.5,351.8,657.2,352.9Z"/></g></g></svg>